<?xml version="1.0" encoding="utf-8"?>
<!-- Generator: Adobe Illustrator 27.5.0, SVG Export Plug-In . SVG Version: 6.00 Build 0)  -->
<svg version="1.1" xmlns="http://www.w3.org/2000/svg" xmlns:xlink="http://www.w3.org/1999/xlink" x="0px" y="0px"
	 viewBox="0 0 500 500" style="enable-background:new 0 0 500 500;" xml:space="preserve">
<g id="Background_complete">
	<g>
		
			<ellipse transform="matrix(0.866 -0.5 0.5 0.866 -25.5351 202.6022)" style="fill:#E6E6E6;" cx="365.294" cy="148.95" rx="69.337" ry="65.482"/>
		
			<ellipse transform="matrix(0.9667 -0.256 0.256 0.9667 -25.3452 99.2591)" style="fill:#E0E0E0;" cx="368.645" cy="146.997" rx="65.482" ry="65.482"/>
		<circle style="fill:#F5F5F5;" cx="368.749" cy="146.954" r="62.839"/>
		<path style="fill:#E6E6E6;" d="M415.901,122.437l-37.669,21.765c-0.797,0.321-1.182,1.226-0.862,2.023
			c0.211,0.524,0.69,0.892,1.25,0.962l41.975,11.256c1.899,0.511,3.852-0.613,4.364-2.512c0.035-0.13,0.063-0.262,0.083-0.395
			c1.63-10.648,0.196-21.541-4.135-31.404c-0.792-1.809-2.901-2.633-4.71-1.841C416.096,122.335,415.997,122.384,415.901,122.437z"
			/>
		<path style="fill:#E6E6E6;" d="M375.573,154.09l21.765,37.669c0.987,1.711,3.173,2.298,4.884,1.311
			c0.117-0.068,0.231-0.142,0.34-0.223c8.686-6.398,15.367-15.14,19.262-25.201c0.68-1.845-0.264-3.892-2.108-4.572
			c-0.094-0.035-0.189-0.065-0.286-0.092l-41.975-11.271c-0.864-0.258-1.773,0.234-2.031,1.098
			C375.296,153.238,375.35,153.702,375.573,154.09z"/>
		<path style="fill:#E6E6E6;" d="M361.613,153.779l-37.669,21.765c-1.711,0.987-2.297,3.173-1.311,4.884
			c0.068,0.117,0.142,0.231,0.223,0.34c6.379,8.682,15.099,15.368,25.139,19.277c1.83,0.719,3.896-0.181,4.616-2.011
			c0.049-0.125,0.091-0.253,0.126-0.383l11.256-41.975c0.385-0.767,0.075-1.702-0.692-2.087
			C362.749,153.313,362.088,153.387,361.613,153.779z"/>
		<path style="fill:#E6E6E6;" d="M414.626,113.234c-6.383-8.679-15.101-15.365-25.139-19.278c-1.83-0.719-3.896,0.181-4.616,2.011
			c-0.049,0.125-0.091,0.253-0.126,0.383l-11.271,41.975c-0.233,0.871,0.285,1.766,1.156,1.998c0.418,0.112,0.864,0.053,1.238-0.164
			l37.669-21.765c1.7-1.004,2.265-3.197,1.26-4.897C414.745,113.407,414.688,113.319,414.626,113.234z M385.679,124.381
			c-0.684-0.529-0.342-2.13,0.762-3.545c1.104-1.415,2.565-2.161,3.249-1.555c0.684,0.606,0.342,2.114-0.762,3.545
			c-1.104,1.43-2.55,2.006-3.234,1.477L385.679,124.381z"/>
		<path style="fill:#E6E6E6;" d="M368.966,137.082l11.256-41.975c0.529-1.903-0.584-3.874-2.487-4.403
			c-0.138-0.038-0.278-0.068-0.42-0.09c-10.648-1.63-21.541-0.196-31.404,4.135c-1.811,0.787-2.641,2.894-1.853,4.705
			c0.052,0.119,0.11,0.235,0.174,0.348l21.765,37.669c0.336,0.79,1.249,1.158,2.039,0.822
			C368.537,138.079,368.889,137.62,368.966,137.082z M358.193,110.653c-0.855,0.124-1.788-1.213-2.068-3
			c-0.28-1.788,0.186-3.343,1.042-3.467c0.855-0.124,1.772,1.197,2.052,2.985c0.28,1.788-0.171,3.327-1.026,3.467V110.653z
			 M367.178,121.116c-0.871,0-1.477-1.555-1.353-3.374c0.124-1.819,0.902-3.218,1.757-3.109c0.855,0.109,1.477,1.555,1.368,3.374
			s-0.964,3.14-1.772,3.094V121.116z"/>
		<path style="fill:#E6E6E6;" d="M393.265,194.075L371.5,156.406c-0.321-0.797-1.226-1.182-2.023-0.862
			c-0.524,0.211-0.892,0.69-0.962,1.25L357.26,198.77c-0.511,1.899,0.613,3.852,2.512,4.364c0.13,0.035,0.262,0.063,0.396,0.083
			c10.648,1.638,21.543,0.203,31.404-4.135c1.809-0.792,2.633-2.901,1.841-4.71C393.367,194.27,393.319,194.172,393.265,194.075z
			 M370.412,178.917c-0.855,0.14-1.772-1.197-2.052-2.985c-0.28-1.788,0.186-3.342,1.026-3.482c0.84-0.14,1.788,1.213,2.068,3.001
			c0.28,1.788-0.187,3.374-1.042,3.498V178.917z M380.331,189.302c-0.839,0.202-1.85-1.073-2.254-2.829
			c-0.404-1.757,0-3.358,0.808-3.545c0.809-0.187,1.85,1.073,2.254,2.845c0.404,1.772,0.047,3.374-0.809,3.638V189.302z"/>
		<path style="fill:#E6E6E6;" d="M358.877,146.736l-41.975-11.256c-1.899-0.511-3.852,0.613-4.364,2.512
			c-0.035,0.13-0.063,0.262-0.083,0.395c-1.638,10.648-0.203,21.543,4.135,31.404c0.787,1.811,2.894,2.641,4.705,1.853
			c0.119-0.052,0.235-0.11,0.348-0.174l37.669-21.765c0.787-0.342,1.148-1.258,0.806-2.046
			C359.898,147.154,359.425,146.802,358.877,146.736z M341.465,153.654c-1.772,0.342-3.358,0-3.513-0.902
			c-0.156-0.902,1.135-1.819,2.907-2.177c1.772-0.358,3.343,0,3.514,0.902S343.237,153.359,341.465,153.654z"/>
		<path style="fill:#E6E6E6;" d="M361.924,139.818l-21.765-37.669c-0.987-1.711-3.173-2.298-4.884-1.311
			c-0.117,0.068-0.231,0.142-0.34,0.223c-8.682,6.38-15.368,15.099-19.278,25.139c-0.68,1.845,0.264,3.892,2.108,4.572
			c0.094,0.035,0.189,0.065,0.286,0.092l41.975,11.271c0.867,0.245,1.77-0.259,2.015-1.126
			C362.155,140.611,362.112,140.186,361.924,139.818z M333.038,127.381c-1.399-1.15-2.099-2.612-1.555-3.28
			c0.544-0.669,2.114-0.295,3.529,0.855c1.415,1.15,2.083,2.612,1.555,3.28c-0.529,0.669-2.114,0.218-3.529-0.917V127.381z"/>
	</g>
	<g>
		<path style="fill:#407BFF;" d="M111.819,98.56c-1.489,1.259-2.931,2.534-4.339,3.974c-27.102,27.004-28.397,69.637-2.888,95.228
			c25.509,25.591,68.158,24.433,95.244-2.576c1.409-1.388,2.717-2.843,3.984-4.329L111.819,98.56z"/>
		<path style="fill:#E0E0E0;enable-background:new    ;" d="M111.819,98.56c-1.489,1.259-2.931,2.534-4.339,3.974
			c-27.102,27.004-28.397,69.637-2.888,95.228c25.509,25.591,68.158,24.433,95.244-2.576c1.409-1.388,2.717-2.843,3.984-4.329
			L111.819,98.56z"/>
		<path style="fill:#E6E6E6;" d="M111.676,98.411c-0.494,0.467-0.983,0.918-1.461,1.389c-25.589,25.502-25.66,66.92-0.158,92.509
			s66.92,25.66,92.509,0.158c0.483-0.487,0.93-0.969,1.397-1.461L111.676,98.411z"/>
		<path style="opacity:0.8;fill:#FFFFFF;enable-background:new    ;" d="M113.516,100.361c-0.463,0.424-0.931,0.865-1.379,1.294
			c-24.557,24.476-24.623,64.226-0.147,88.783c24.476,24.557,64.226,24.623,88.783,0.147c0.457-0.461,0.878-0.916,1.3-1.319
			L113.516,100.361z"/>
		<path style="fill:#EBEBEB;" d="M148.061,140.927l-30.711-30.699c-1.412-1.385-3.679-1.363-5.063,0.049
			c-0.078,0.08-0.153,0.164-0.224,0.25c-6.749,8.388-10.967,18.525-12.159,29.225c-0.218,1.956,1.191,3.719,3.147,3.937
			c0.131,0.015,0.262,0.022,0.394,0.022l43.455,0.067c0.911,0.017,1.664-0.707,1.681-1.618
			C148.589,141.695,148.401,141.247,148.061,140.927z"/>
		<path style="fill:#EBEBEB;" d="M146.896,148.381l-43.471-0.072c-1.968-0.004-3.568,1.588-3.572,3.556
			c0,0.131,0.007,0.261,0.021,0.391c1.165,10.703,5.354,20.854,12.075,29.265c1.211,1.54,3.442,1.807,4.982,0.595
			c0.112-0.088,0.219-0.183,0.32-0.284l30.793-30.734c0.591-0.693,0.508-1.735-0.185-2.326
			C147.588,148.542,147.25,148.405,146.896,148.381z"/>
		<path style="fill:#EBEBEB;" d="M158.81,155.632l-0.087,43.466c0.002,1.977,1.607,3.579,3.584,3.577
			c0.126,0,0.253-0.007,0.378-0.02c10.703-1.166,20.854-5.354,29.265-12.075c1.541-1.225,1.797-3.467,0.572-5.008
			c-0.082-0.103-0.169-0.201-0.261-0.294l-30.686-30.778c-0.671-0.617-1.715-0.572-2.331,0.099
			C158.982,154.882,158.829,155.247,158.81,155.632z"/>
		<path style="fill:#EBEBEB;" d="M151.335,154.477l-30.778,30.686c-1.385,1.412-1.363,3.679,0.049,5.063
			c0.08,0.078,0.163,0.153,0.25,0.223c8.388,6.748,18.526,10.966,29.225,12.16c1.965,0.218,3.735-1.199,3.953-3.164
			c0.014-0.123,0.021-0.247,0.022-0.372l0.067-43.455c-0.028-0.911-0.79-1.626-1.701-1.598
			C152.017,154.034,151.629,154.196,151.335,154.477z"/>
		<path style="fill:#E0E0E0;" d="M178.41,180.373c0.844,1.6,0.904,3.211,0.154,3.614c-0.751,0.403-2.075-0.553-2.918-2.153
			c-0.844-1.6-0.9-3.227-0.133-3.625C176.278,177.811,177.613,178.788,178.41,180.373z"/>
		<path style="fill:#E0E0E0;" d="M166.414,172.889c0.724,1.648,0.692,3.282-0.107,3.618c-0.798,0.336-2.045-0.647-2.723-2.333
			c-0.678-1.686-0.692-3.282,0.112-3.634C164.499,170.188,165.689,171.24,166.414,172.889z"/>
	</g>
	<g>
		<path style="fill:#E0E0E0;" d="M232.031,98.985l-1.598-1.203c7.835-10.4,14.038-22.021,18.439-34.541l1.887,0.663
			C246.29,76.619,239.989,88.421,232.031,98.985z"/>
		<g>
			<g>
				<path style="fill:#E6E6E6;" d="M239.993,131.96c7.778-5.628,12.277-16.481,8.4-25.264c-2.601-5.891-8.836-9.896-15.233-10.127
					l0.048-0.003c-3.189-6.174-10.6-9.328-16.819-9.474c-6.219-0.146-12.432,2.851-16.189,7.808
					c-2.65,3.496-4.075,7.832-4.424,12.204c-0.844,10.566,4.917,21.38,14.157,26.574
					C219.172,138.873,231.405,138.174,239.993,131.96z"/>
			</g>
			<g style="opacity:0.4;">
				<path style="fill:#FFFFFF;" d="M227.657,96.488c-3.587-3.674-9.187-5.245-14.161-3.973c-4.974,1.272-9.132,5.34-10.514,10.285
					c-0.85,3.041-0.425,10.562-0.425,10.562s9.81,0.679,10.105,0.521c-1.561-4.173-0.749-9.145,2.058-12.604
					c2.807-3.459,7.505-5.278,11.91-4.61"/>
			</g>
		</g>
	</g>
	<g>
		<path style="fill:#E0E0E0;" d="M411.778,252.285c-1.844-9.098-5.11-17.902-9.708-26.169l1.748-0.972
			c4.697,8.446,8.035,17.444,9.921,26.744L411.778,252.285z"/>
		<g>
			<g>
				<path style="fill:#E6E6E6;" d="M434.882,263.324c0.678-6.832-2.997-14.388-9.536-16.478c-4.386-1.402-9.487,0.035-12.645,3.349
					l0.021-0.027c-4.817-1.222-10.02,1.248-13.047,4.507c-3.028,3.259-4.371,8.005-3.501,12.367
					c0.614,3.076,2.259,5.896,4.433,8.156c5.254,5.464,13.774,7.51,20.936,5.029S434.134,270.867,434.882,263.324z"/>
			</g>
			<g style="opacity:0.4;">
				<path style="fill:#FFFFFF;" d="M410.048,253.101c-3.667,0.177-7.165,2.428-8.843,5.694c-1.678,3.265-1.474,7.42,0.517,10.505
					c1.224,1.897,5.451,5.237,5.451,5.237s5.017-4.928,5.072-5.161c-2.973-1.144-5.249-3.937-5.769-7.08s0.736-6.52,3.182-8.56"/>
			</g>
		</g>
	</g>
	<g>
		<path style="fill:#E0E0E0;" d="M103.258,263.169l-1.338-1.486c6.899-6.208,12.824-13.494,17.61-21.655l1.726,1.012
			C116.365,249.378,110.31,256.823,103.258,263.169z"/>
		<g>
			<g>
				<path style="fill:#E6E6E6;" d="M104.146,287.191c6.229-2.886,10.871-9.889,9.351-16.584c-1.02-4.49-4.849-8.154-9.307-9.191
					l0.034,0.005c-1.394-4.77-6.165-7.997-10.51-8.95c-4.345-0.953-9.116,0.301-12.431,3.266c-2.338,2.091-3.931,4.94-4.774,7.961
					c-2.038,7.301,0.527,15.679,6.302,20.589C88.586,289.196,97.268,290.378,104.146,287.191z"/>
			</g>
			<g style="opacity:0.4;">
				<path style="fill:#FFFFFF;" d="M100.338,260.606c-2.015-3.069-5.731-4.938-9.396-4.725c-3.666,0.213-7.14,2.499-8.787,5.781
					c-1.012,2.018-1.743,7.355-1.743,7.355s6.793,1.819,7.021,1.748c-0.525-3.142,0.725-6.521,3.168-8.565
					c2.443-2.044,5.99-2.678,8.99-1.607"/>
			</g>
		</g>
	</g>
	<g>
		<g>
			<g>
				<g>
					<g>
						<path style="fill:#E0E0E0;" d="M443.92,330.198H263.174c-3.232,0-5.862-2.63-5.862-5.862V61.062
							c0-3.232,2.63-5.862,5.862-5.862H443.92c3.232,0,5.862,2.629,5.862,5.862v263.273
							C449.783,327.568,447.153,330.198,443.92,330.198z M263.174,55.45c-3.095,0-5.612,2.518-5.612,5.612v263.273
							c0,3.095,2.518,5.612,5.612,5.612H443.92c3.095,0,5.612-2.518,5.612-5.612V61.062c0-3.094-2.518-5.612-5.612-5.612H263.174z"
							/>
					</g>
				</g>
				<g>
					<g>
						<path style="fill:#E0E0E0;" d="M235.493,330.198H54.746c-3.232,0-5.862-2.63-5.862-5.862V61.062
							c0-3.232,2.629-5.862,5.862-5.862h180.747c3.232,0,5.862,2.629,5.862,5.862v263.273
							C241.355,327.568,238.725,330.198,235.493,330.198z M54.746,55.45c-3.094,0-5.612,2.518-5.612,5.612v263.273
							c0,3.095,2.518,5.612,5.612,5.612h180.747c3.095,0,5.612-2.518,5.612-5.612V61.062c0-3.094-2.518-5.612-5.612-5.612H54.746z"
							/>
					</g>
				</g>
			</g>
			<g>
				<g>
					<rect x="0" y="391.267" style="fill:#E0E0E0;" width="500" height="0.25"/>
				</g>
			</g>
		</g>
		<rect x="51.672" y="405.531" style="fill:#E0E0E0;" width="16.06" height="0.25"/>
		<rect x="170.352" y="402.821" style="fill:#E0E0E0;" width="53.53" height="0.25"/>
		<rect x="68.732" y="414.821" style="fill:#E0E0E0;" width="36.25" height="0.25"/>
		<rect x="378.352" y="402.691" style="fill:#E0E0E0;" width="43.19" height="0.25"/>
		<rect x="430.452" y="402.691" style="fill:#E0E0E0;" width="6.33" height="0.25"/>
		<rect x="316.212" y="408.921" style="fill:#E0E0E0;" width="53.89" height="0.25"/>
	</g>
</g>
<g id="Background_simple" style="display:none;">
	<g style="display:inline;">
		<path style="fill:#407BFF;" d="M334.483,347.12c24.831-3.385,48.775-10.593,70.012-21.897
			c25.029-13.324,50.603-34.082,43.05-61.232c-13.945-50.124-80.842-51.037-67.485-84.739c15.13-38.175,4.983-82.955-62.906-95.407
			C188.207,60.192,32.331,198.583,76.111,274.628C103.366,321.97,202.637,365.094,334.483,347.12z"/>
		<path style="opacity:0.9;fill:#FFFFFF;" d="M334.483,347.12c24.831-3.385,48.775-10.593,70.012-21.897
			c25.029-13.324,50.603-34.082,43.05-61.232c-13.945-50.124-80.842-51.037-67.485-84.739c15.13-38.175,4.983-82.955-62.906-95.407
			C188.207,60.192,32.331,198.583,76.111,274.628C103.366,321.97,202.637,365.094,334.483,347.12z"/>
	</g>
</g>
<g id="Shadow">
	<g>
		<g>
			<path style="fill:#F5F5F5;" d="M458.875,434.893c0,5.949-93.517,10.771-208.875,10.771s-208.875-4.823-208.875-10.771
				c0-5.949,93.516-10.772,208.875-10.772S458.875,428.944,458.875,434.893z"/>
		</g>
	</g>
</g>
<g id="Oranges">
	<g id="freepik--Glass--inject-2">
		
			<ellipse transform="matrix(0.9669 -0.2553 0.2553 0.9669 -88.7854 44.4705)" style="fill:#407BFF;" cx="126.938" cy="364.298" rx="72.851" ry="68.793"/>
		
			<ellipse transform="matrix(0.9669 -0.2553 0.2553 0.9669 -88.7854 44.4705)" style="opacity:0.3;enable-background:new    ;" cx="126.938" cy="364.298" rx="72.851" ry="68.793"/>
		
			<ellipse transform="matrix(0.7071 -0.7071 0.7071 0.7071 -218.5168 198.9077)" style="fill:#407BFF;" cx="130.844" cy="363.227" rx="68.793" ry="68.793"/>
		<circle style="fill:#407BFF;" cx="130.981" cy="363.202" r="66.026"/>
		<circle style="opacity:0.8;fill:#FFFFFF;enable-background:new    ;" cx="130.981" cy="363.202" r="66.026"/>
		<path style="fill:#407BFF;" d="M190.125,354.058c-0.52-2.003-2.565-3.205-4.568-2.686l-44.251,11.647
			c-0.476,0.116-0.879,0.432-1.105,0.867c-0.431,0.831-0.106,1.854,0.724,2.284l39.497,23.004c0.112,0.065,0.227,0.124,0.346,0.177
			c1.895,0.852,4.122,0.006,4.974-1.89c4.593-10.35,6.142-21.795,4.465-32.993C190.188,354.33,190.16,354.193,190.125,354.058z"/>
		<path style="fill:#407BFF;" d="M137.124,370.263c-0.902,0.249-1.432,1.181-1.184,2.084l11.662,44.204
			c0.034,0.127,0.075,0.252,0.122,0.375c0.747,1.939,2.924,2.905,4.863,2.158c10.562-4.074,19.747-11.069,26.482-20.168
			c0.078-0.105,0.15-0.214,0.216-0.327c1.055-1.79,0.46-4.096-1.331-5.151l-39.506-22.992
			C138.052,370.206,137.573,370.14,137.124,370.263z"/>
		<path style="fill:#407BFF;" d="M130.346,372.538c-0.817-0.457-1.849-0.165-2.306,0.652l-23.004,39.497
			c-0.072,0.123-0.136,0.25-0.193,0.38c-0.831,1.895,0.032,4.105,1.927,4.936c10.345,4.583,21.78,6.133,32.971,4.469
			c0.147-0.021,0.292-0.05,0.435-0.088c2-0.532,3.19-2.584,2.658-4.583l-11.671-44.192
			C131.05,373.154,130.755,372.767,130.346,372.538z"/>
		<path style="fill:#407BFF;" d="M184.693,346.466c1.937-0.752,2.897-2.932,2.145-4.869c-4.074-10.561-11.073-19.743-20.177-26.469
			c-0.11-0.081-0.224-0.157-0.342-0.225c-1.787-1.043-4.082-0.439-5.124,1.349l-23.004,39.497c-0.226,0.392-0.287,0.857-0.171,1.294
			c0.243,0.913,1.18,1.455,2.093,1.212l44.182-11.659C184.43,346.559,184.563,346.516,184.693,346.466z"/>
		<path style="fill:#407BFF;" d="M123.964,369.407c-0.242-0.913-1.179-1.457-2.091-1.215L77.68,379.864
			c-0.138,0.036-0.273,0.081-0.406,0.132c-1.927,0.753-2.88,2.926-2.127,4.853c4.07,10.564,11.066,19.75,20.168,26.482
			c0.11,0.081,0.224,0.157,0.342,0.225c1.787,1.043,4.081,0.439,5.124-1.349l23.004-39.497
			C124.016,370.318,124.08,369.848,123.964,369.407z"/>
		<path style="fill:#407BFF;" d="M131.577,353.9c0.814,0.479,1.862,0.208,2.341-0.606l23.004-39.497
			c0.068-0.118,0.13-0.239,0.185-0.363c0.839-1.892-0.015-4.105-1.907-4.944c-10.346-4.596-21.787-6.15-32.984-4.478
			c-0.135,0.02-0.27,0.047-0.402,0.082c-2.01,0.524-3.215,2.579-2.691,4.59l11.671,44.192
			C130.912,353.306,131.192,353.673,131.577,353.9z"/>
		<path style="fill:#407BFF;" d="M124.812,356.216c0.913-0.242,1.457-1.178,1.215-2.091l-11.671-44.192
			c-0.036-0.138-0.081-0.273-0.133-0.406c-0.753-1.927-2.926-2.88-4.853-2.127c-10.562,4.074-19.747,11.069-26.482,20.168
			c-0.081,0.11-0.157,0.224-0.225,0.342c-1.043,1.787-0.439,4.081,1.349,5.124l39.497,23.004
			C123.901,356.269,124.371,356.333,124.812,356.216z"/>
		<path style="fill:#407BFF;" d="M121.643,362.644c0.481-0.813,0.212-1.862-0.602-2.342L81.535,337.31
			c-0.112-0.065-0.227-0.124-0.346-0.177c-1.895-0.852-4.122-0.006-4.974,1.889c-4.593,10.346-6.139,21.787-4.456,32.981
			c0.021,0.15,0.051,0.298,0.09,0.444c0.533,1.991,2.578,3.172,4.569,2.64l44.182-11.659
			C121.039,363.314,121.413,363.032,121.643,362.644z"/>
		<g style="opacity:0.3;">
			<path style="fill:#FFFFFF;" d="M190.125,354.058c-0.52-2.003-2.565-3.205-4.568-2.686l-44.251,11.647
				c-0.476,0.116-0.879,0.432-1.105,0.867c-0.431,0.831-0.106,1.854,0.724,2.284l39.497,23.004c0.112,0.065,0.227,0.124,0.346,0.177
				c1.895,0.852,4.122,0.006,4.974-1.89c4.593-10.35,6.142-21.795,4.465-32.993C190.188,354.33,190.16,354.193,190.125,354.058z"/>
			<path style="fill:#FFFFFF;" d="M137.124,370.263c-0.902,0.249-1.432,1.181-1.184,2.084l11.662,44.204
				c0.034,0.127,0.075,0.252,0.122,0.375c0.747,1.939,2.924,2.905,4.863,2.158c10.562-4.074,19.747-11.069,26.482-20.168
				c0.078-0.105,0.15-0.214,0.216-0.327c1.055-1.79,0.46-4.096-1.331-5.151l-39.506-22.992
				C138.052,370.206,137.573,370.14,137.124,370.263z"/>
			<path style="fill:#FFFFFF;" d="M130.346,372.538c-0.817-0.457-1.849-0.165-2.306,0.652l-23.004,39.497
				c-0.072,0.123-0.136,0.25-0.193,0.38c-0.831,1.895,0.032,4.105,1.927,4.936c10.345,4.583,21.78,6.133,32.971,4.469
				c0.147-0.021,0.292-0.05,0.435-0.088c2-0.532,3.19-2.584,2.658-4.583l-11.671-44.192
				C131.05,373.154,130.755,372.767,130.346,372.538z"/>
			<path style="fill:#FFFFFF;" d="M184.693,346.466c1.937-0.752,2.897-2.932,2.145-4.869c-4.074-10.561-11.073-19.743-20.177-26.469
				c-0.11-0.081-0.224-0.157-0.342-0.225c-1.787-1.043-4.082-0.439-5.124,1.349l-23.004,39.497
				c-0.226,0.392-0.287,0.857-0.171,1.294c0.243,0.913,1.18,1.455,2.093,1.212l44.182-11.659
				C184.43,346.559,184.563,346.516,184.693,346.466z"/>
			<path style="fill:#FFFFFF;" d="M123.964,369.407c-0.242-0.913-1.179-1.457-2.091-1.215L77.68,379.864
				c-0.138,0.036-0.273,0.081-0.406,0.132c-1.927,0.753-2.88,2.926-2.127,4.853c4.07,10.564,11.066,19.75,20.168,26.482
				c0.11,0.081,0.224,0.157,0.342,0.225c1.787,1.043,4.081,0.439,5.124-1.349l23.004-39.497
				C124.016,370.318,124.08,369.848,123.964,369.407z"/>
			<path style="fill:#FFFFFF;" d="M131.577,353.9c0.814,0.479,1.862,0.208,2.341-0.606l23.004-39.497
				c0.068-0.118,0.13-0.239,0.185-0.363c0.839-1.892-0.015-4.105-1.907-4.944c-10.346-4.596-21.787-6.15-32.984-4.478
				c-0.135,0.02-0.27,0.047-0.402,0.082c-2.01,0.524-3.215,2.579-2.691,4.59l11.671,44.192
				C130.912,353.306,131.192,353.673,131.577,353.9z"/>
			<path style="fill:#FFFFFF;" d="M124.812,356.216c0.913-0.242,1.457-1.178,1.215-2.091l-11.671-44.192
				c-0.036-0.138-0.081-0.273-0.133-0.406c-0.753-1.927-2.926-2.88-4.853-2.127c-10.562,4.074-19.747,11.069-26.482,20.168
				c-0.081,0.11-0.157,0.224-0.225,0.342c-1.043,1.787-0.439,4.081,1.349,5.124l39.497,23.004
				C123.901,356.269,124.371,356.333,124.812,356.216z"/>
			<path style="fill:#FFFFFF;" d="M121.643,362.644c0.481-0.813,0.212-1.862-0.602-2.342L81.535,337.31
				c-0.112-0.065-0.227-0.124-0.346-0.177c-1.895-0.852-4.122-0.006-4.974,1.889c-4.593,10.346-6.139,21.787-4.456,32.981
				c0.021,0.15,0.051,0.298,0.09,0.444c0.533,1.991,2.578,3.172,4.569,2.64l44.182-11.659
				C121.039,363.314,121.413,363.032,121.643,362.644z"/>
		</g>
		<path style="fill:#407BFF;" d="M167.203,368.493c-0.126,0.909-1.747,1.438-3.631,1.195c-1.884-0.243-3.328-1.165-3.202-2.074
			c0.126-0.909,1.747-1.438,3.631-1.195C165.894,366.648,167.329,367.583,167.203,368.493z"/>
		<path style="opacity:0.6;fill:#FFFFFF;enable-background:new    ;" d="M167.203,368.493c-0.126,0.909-1.747,1.438-3.631,1.195
			c-1.884-0.243-3.328-1.165-3.202-2.074c0.126-0.909,1.747-1.438,3.631-1.195C165.894,366.648,167.329,367.583,167.203,368.493z"/>
		<path style="fill:#407BFF;" d="M154.096,388.261c-0.608,0.672-2.252,0.181-3.669-1.068c-1.417-1.249-2.085-2.837-1.477-3.509
			c0.608-0.672,2.249-0.203,3.656,1.059C153.99,386.064,154.704,387.589,154.096,388.261z"/>
		<path style="opacity:0.6;fill:#FFFFFF;enable-background:new    ;" d="M154.096,388.261c-0.608,0.672-2.252,0.181-3.669-1.068
			c-1.417-1.249-2.085-2.837-1.477-3.509c0.608-0.672,2.249-0.203,3.656,1.059C153.99,386.064,154.704,387.589,154.096,388.261z"/>
		<path style="fill:#407BFF;" d="M154.016,403.713c-0.74,0.537-2.245-0.276-3.351-1.818c-1.106-1.542-1.421-3.217-0.681-3.755
			c0.74-0.537,2.236,0.288,3.351,1.818C154.454,401.51,154.756,403.176,154.016,403.713z"/>
		<path style="opacity:0.6;fill:#FFFFFF;enable-background:new    ;" d="M154.016,403.713c-0.74,0.537-2.245-0.276-3.351-1.818
			c-1.106-1.542-1.421-3.217-0.681-3.755c0.74-0.537,2.236,0.288,3.351,1.818C154.454,401.51,154.756,403.176,154.016,403.713z"/>
		<path style="fill:#407BFF;" d="M111.893,328.901c-0.772,0.475-2.213-0.425-3.22-2.049c-1.008-1.624-1.192-3.32-0.42-3.795
			c0.772-0.475,2.203,0.438,3.22,2.049C112.45,326.746,112.665,328.426,111.893,328.901z"/>
		<path style="opacity:0.6;fill:#FFFFFF;enable-background:new    ;" d="M111.893,328.901c-0.772,0.475-2.213-0.425-3.22-2.049
			c-1.008-1.624-1.192-3.32-0.42-3.795c0.772-0.475,2.203,0.438,3.22,2.049C112.45,326.746,112.665,328.426,111.893,328.901z"/>
		<path style="fill:#407BFF;" d="M112.561,343.725c-0.731,0.525-2.236-0.288-3.342-1.83c-1.106-1.542-1.412-3.23-0.681-3.755
			c0.731-0.525,2.236,0.288,3.342,1.83C112.999,341.522,113.292,343.201,112.561,343.725z"/>
		<path style="opacity:0.6;fill:#FFFFFF;enable-background:new    ;" d="M112.561,343.725c-0.731,0.525-2.236-0.288-3.342-1.83
			c-1.106-1.542-1.412-3.23-0.681-3.755c0.731-0.525,2.236,0.288,3.342,1.83C112.999,341.522,113.292,343.201,112.561,343.725z"/>
		<path style="opacity:0.6;fill:#FFFFFF;enable-background:new    ;" d="M95.385,362.386c-0.144,0.888-1.782,1.381-3.655,1.076
			c-1.873-0.305-3.285-1.28-3.14-2.168c0.144-0.888,1.782-1.381,3.655-1.076C94.133,360.52,95.53,361.498,95.385,362.386z"/>
		<path style="opacity:0.6;fill:#FFFFFF;enable-background:new    ;" d="M160.354,337.092c-0.696-0.57-0.302-2.234,0.9-3.703
			c1.202-1.468,2.753-2.202,3.449-1.632c0.697,0.57,0.302,2.234-0.9,3.703C162.595,336.943,161.05,337.662,160.354,337.092z"/>
		<path style="opacity:0.6;fill:#FFFFFF;enable-background:new    ;" d="M155.764,346.405c-0.05-0.898,1.444-1.731,3.339-1.836
			c1.895-0.105,3.483,0.544,3.533,1.443c0.05,0.898-1.444,1.731-3.339,1.836C157.387,347.958,155.814,347.303,155.764,346.405z"/>
		<path style="opacity:0.6;fill:#FFFFFF;enable-background:new    ;" d="M139.572,327.764c-0.895-0.091-1.485-1.697-1.293-3.585
			c0.192-1.888,1.081-3.355,1.976-3.264c0.895,0.091,1.485,1.697,1.293,3.585C141.359,326.403,140.467,327.855,139.572,327.764z"/>
		<path style="fill:#407BFF;" d="M120.171,407.911c-0.868-0.077-1.45-1.678-1.241-3.568c0.208-1.89,1.131-3.334,1.999-3.257
			c0.868,0.077,1.44,1.691,1.241,3.568C121.962,406.544,121.039,407.988,120.171,407.911z"/>
		<path style="opacity:0.6;fill:#FFFFFF;enable-background:new    ;" d="M120.171,407.911c-0.868-0.077-1.45-1.678-1.241-3.568
			c0.208-1.89,1.131-3.334,1.999-3.257c0.868,0.077,1.44,1.691,1.241,3.568C121.962,406.544,121.039,407.988,120.171,407.911z"/>
		<path style="fill:#407BFF;" d="M103.678,381.673c-0.506-0.756,0.369-2.215,1.952-3.272c1.583-1.057,3.285-1.275,3.778-0.529
			c0.494,0.747-0.369,2.215-1.952,3.272C105.882,382.189,104.184,382.429,103.678,381.673z"/>
		<path style="opacity:0.6;fill:#FFFFFF;enable-background:new    ;" d="M103.678,381.673c-0.506-0.756,0.369-2.215,1.952-3.272
			c1.583-1.057,3.285-1.275,3.778-0.529c0.494,0.747-0.369,2.215-1.952,3.272C105.882,382.189,104.184,382.429,103.678,381.673z"/>
	</g>
	<g id="freepik--Orange--inject-2">
		<path style="fill:#407BFF;" d="M322.283,325.287c-25.466,40.741-9.295,73.211,23.064,93.438
			c32.358,20.227,68.616,20.528,94.082-20.212c25.466-40.741,10.628-75.344-21.715-95.561
			C385.371,282.735,347.749,284.546,322.283,325.287z"/>
		<path style="opacity:0.4;fill:#FFFFFF;enable-background:new    ;" d="M322.283,325.287
			c-25.466,40.741-9.295,73.211,23.064,93.438c32.358,20.227,68.616,20.528,94.082-20.212
			c25.466-40.741,10.628-75.344-21.715-95.561C385.371,282.735,347.749,284.546,322.283,325.287z"/>
		<path style="fill:#407BFF;" d="M399.568,373.596c23.213-37.135,27.345-60.163,9.452-75.467c2.929,1.431,5.836,3.036,8.695,4.823
			c32.343,20.217,47.181,54.82,21.715,95.561s-61.739,40.429-94.082,20.212c-2.858-1.787-5.596-3.663-8.176-5.652
			C358.565,422.774,376.355,410.731,399.568,373.596z"/>
		<path style="opacity:0.3;fill:#FFFFFF;enable-background:new    ;" d="M399.568,373.596c23.213-37.135,27.345-60.163,9.452-75.467
			c2.929,1.431,5.836,3.036,8.695,4.823c32.343,20.217,47.181,54.82,21.715,95.561s-61.739,40.429-94.082,20.212
			c-2.858-1.787-5.596-3.663-8.176-5.652C358.565,422.774,376.355,410.731,399.568,373.596z"/>
		<path style="opacity:0.2;fill:#FFFFFF;enable-background:new    ;" d="M367.468,307.229c-0.958,7.546,3.725,10.803,9.957,11.167
			c6.232,0.365,11.675-2.33,12.648-9.866c0.973-7.536-3.675-11.195-9.907-11.559C373.935,296.607,368.425,299.683,367.468,307.229z"
			/>
		<path style="opacity:0.2;fill:#FFFFFF;enable-background:new    ;" d="M351.615,311.679c0.413,3.107,2.708,3.859,5.313,3.321
			c2.604-0.538,4.585-2.289,4.156-5.405c-0.573-2.64-3.142-4.131-5.736-3.33c-2.311,0.713-3.908,3.031-3.765,5.465L351.615,311.679z
			"/>
		<path style="fill:#407BFF;" d="M323.89,322.855c-21.505,36.72-0.474,66.979,16.692,77.709c2.19,1.369,6.745,3.345,9.712,5.2
			c2.967,1.855,8.292,6.054,10.483,7.423c17.492,10.934,53.405,15.658,76.935-21.986c23.276-37.237,9.18-69.399-21.138-88.915
			l1.118,0.699c32.343,20.217,47.181,54.82,21.715,95.561c-25.466,40.741-61.74,40.429-94.082,20.212
			c-32.343-20.217-48.53-52.697-23.064-93.438C322.801,324.458,323.34,323.664,323.89,322.855z"/>
		<path style="opacity:0.2;fill:#FFFFFF;enable-background:new    ;" d="M323.89,322.855c-21.505,36.72-0.474,66.979,16.692,77.709
			c2.19,1.369,6.745,3.345,9.712,5.2c2.967,1.855,8.292,6.054,10.483,7.423c17.492,10.934,53.405,15.658,76.935-21.986
			c23.276-37.237,9.18-69.399-21.138-88.915l1.118,0.699c32.343,20.217,47.181,54.82,21.715,95.561
			c-25.466,40.741-61.74,40.429-94.082,20.212c-32.343-20.217-48.53-52.697-23.064-93.438
			C322.801,324.458,323.34,323.664,323.89,322.855z"/>
		<path style="opacity:0.2;fill:#FFFFFF;enable-background:new    ;" d="M361.478,380.717c-0.353-0.645-2.565-0.356-2.972,0.331
			c-0.408,0.687-0.43,3.521,0.454,3.697C359.844,384.922,362.016,381.689,361.478,380.717z"/>
		<path style="opacity:0.2;fill:#FFFFFF;enable-background:new    ;" d="M349.518,392.732c-0.908-0.379-3.257,1.754-3.257,2.79
			c0.001,1.036,2.17,4.063,3.347,3.528C350.785,398.515,350.892,393.332,349.518,392.732z"/>
		<path style="opacity:0.2;fill:#FFFFFF;enable-background:new    ;" d="M345.334,375.922c-0.196-0.758-2.423-1.067-3.017-0.497
			c-0.594,0.57-1.315,3.486-0.496,3.904C342.641,379.747,345.589,377.07,345.334,375.922z"/>
		<path style="opacity:0.2;fill:#FFFFFF;enable-background:new    ;" d="M343.259,386.984c-0.165-0.668-2.168-0.955-2.689-0.433
			c-0.521,0.522-1.202,3.133-0.461,3.502C340.851,390.422,343.52,388.018,343.259,386.984z"/>
		<path style="opacity:0.2;fill:#FFFFFF;enable-background:new    ;" d="M337.138,368.469c-0.155-0.685-2.184-0.965-2.705-0.443
			c-0.521,0.522-1.186,3.142-0.461,3.502C334.699,371.888,337.384,369.493,337.138,368.469z"/>
		<path style="opacity:0.2;fill:#FFFFFF;enable-background:new    ;" d="M337.07,378.29c-0.693-0.551-3.19,0.783-3.387,1.72
			c-0.197,0.936,0.987,4.124,2.103,3.928C336.904,383.741,338.082,379.228,337.07,378.29z"/>
		<path style="fill:#407BFF;" d="M419.352,308.142l11.874,0.36c0,0,26.511-16.007,45.554,20.165c0,0-12.514,14.87-30.908,0.194
			c-18.394-14.675-14.582-20.014-29.389-18.065l1.058-1.693C417.969,308.495,418.653,308.131,419.352,308.142z"/>
		<path style="opacity:0.2;fill:#FFFFFF;enable-background:new    ;" d="M448.576,314.616c-14.44-1.093-17.393-6.046-17.393-6.046
			s26.511-16.007,45.554,20.165C476.737,328.735,463.026,315.693,448.576,314.616z"/>
		<path style="fill:#263238;" d="M420.11,308.451l5.848,6.786c-2.168,0.216-4.335,0.209-6.47-0.019
			c-3.291-1.208-6.28-3.077-8.808-5.506c-1.008-1.615-1.854-3.342-2.524-5.156l6.268,0.34c0,0,5.82-2.882,6.906-4.723
			c1.085-1.84,1.249-5.904,1.337-9.051c0.029-1.528,1.247-2.838,2.721-2.925c0.288-0.017,0.572,0.014,0.843,0.092l0,0
			c1.266,0.357,2.007,1.656,1.732,3.036c-0.676,3.842-1.709,7.636-3.083,11.326C423.453,304.719,421.857,306.66,420.11,308.451z"/>
	</g>
</g>
<g id="Cocktail">
	<g>
		<path style="fill:#407BFF;" d="M143.131,204.019c0,2.075,21.88,233.75,21.88,233.75h182.945c0,0,17.659-236.189,17.659-233.422
			C365.615,207.113,143.131,204.019,143.131,204.019z"/>
		<path style="opacity:0.8;fill:#FFFFFF;enable-background:new    ;" d="M143.131,204.019c0,2.075,21.88,233.75,21.88,233.75
			h182.945c0,0,17.659-236.189,17.659-233.422C365.615,207.113,143.131,204.019,143.131,204.019z"/>
		<g>
			<path style="fill:#407BFF;" d="M156.364,256.83l13.481,148.494c5.18,2.118,172.778,0,172.778,0L355.22,256.83H156.364z"/>
		</g>
		<path style="opacity:0.3;fill:#FFFFFF;" d="M355.06,256.83c-2.385-6.011-45.788-10.8-98.995-10.8s-96.609,4.79-98.995,10.8h-0.706
			l13.481,148.494c5.18,2.118,172.778,0,172.778,0L355.22,256.83H355.06z"/>
		<ellipse style="fill:#407BFF;" cx="256.065" cy="257.351" rx="99.11" ry="11.322"/>
		<g>
			<g>
				<path style="fill:#407BFF;" d="M280.141,266.513c0,0,11.388-5.979,22.821,7.269c7.801,9.04,30.793,31.744,32.114,36.763
					s-28.622,34.556-37.347,39.142c-8.725,4.586-14.631,4.786-20.609,0.94c-5.978-3.845-34.408-28.846-35.258-37.105
					C241.012,305.262,272.794,268.785,280.141,266.513z"/>
				<path style="opacity:0.8;fill:#FFFFFF;" d="M280.141,266.513c0,0,11.388-5.979,22.821,7.269
					c7.801,9.04,30.793,31.744,32.114,36.763s-28.622,34.556-37.347,39.142c-8.725,4.586-14.631,4.786-20.609,0.94
					c-5.978-3.845-34.408-28.846-35.258-37.105C241.012,305.262,272.794,268.785,280.141,266.513z"/>
				<path style="opacity:0.6;fill:#FFFFFF;" d="M286.876,271.911c0,0,28.605,29.922,31.53,33.946
					c4.992,1.965,12.532,4.451,10.781,5.038l-10.19-0.176c0,0-29.02,35.638-33.042,35.955c-4.022,0.317,28.509-31.418,29.76-37.677
					c1.251-6.259-35.68-36.779-33.56-38.163C284.426,269.352,287.611,272.445,286.876,271.911z"/>
			</g>
			<path style="opacity:0.6;fill:#FFFFFF;" d="M269.677,285.93c0,0-21.037,19.329-18.378,28.16
				c2.659,8.831,26.16,26.944,23.873,22.07c-2.286-4.874-18.834-18.824-15.91-26.78C262.185,301.424,269.677,285.93,269.677,285.93z
				"/>
		</g>
		<g>
			<g>
				<path style="fill:#407BFF;" d="M175.825,297.564c0,0,5.635-11.985,23.252-8.212c12.021,2.575,45.004,6.929,49.206,10.229
					c4.202,3.299-2.028,46.153-6.342,55.339c-4.314,9.186-9.038,13.02-16.336,13.577c-7.297,0.557-46.171-2.303-52-8.556
					C167.776,353.688,171.205,303.995,175.825,297.564z"/>
				<path style="opacity:0.6;fill:#FFFFFF;" d="M175.825,297.564c0,0,5.635-11.985,23.252-8.212
					c12.021,2.575,45.004,6.929,49.206,10.229c4.202,3.299-2.028,46.153-6.342,55.339c-4.314,9.186-9.038,13.02-16.336,13.577
					c-7.297,0.557-46.171-2.303-52-8.556C167.776,353.688,171.205,303.995,175.825,297.564z"/>
				<path style="opacity:0.3;fill:#FFFFFF;" d="M184.708,297.811c0,0,42.076,6.793,46.976,8.279
					c5.319-1.488,13.054-4.132,11.981-2.562l-8.475,6.186c0,0-1.683,47.289-4.787,50.048c-3.105,2.76,3.885-43.507,1.023-49.422
					c-2.862-5.916-52.144-8.026-51.263-10.48C181.107,297.232,185.643,297.793,184.708,297.811z"/>
			</g>
			<path style="opacity:0.3;fill:#FFFFFF;" d="M179.129,319.441c0,0-5.11,28.108,2.339,33.545c7.45,5.437,37.119,5.699,32.355,3.192
				c-4.764-2.507-26.377-3.644-28.848-11.753C182.505,336.317,179.129,319.441,179.129,319.441z"/>
		</g>
		<g>
			<g>
				<path style="fill:#407BFF;" d="M285.594,321.957c0,0,8.096-7.979,22.232,2.335c9.646,7.038,35.189,24.129,37.613,28.718
					c2.423,4.589-16.415,39.532-23.875,45.975c-7.459,6.443-13.167,7.975-19.861,5.584c-6.694-2.392-40.048-20.302-42.746-28.154
					C256.259,368.562,278.952,325.835,285.594,321.957z"/>
				<path style="opacity:0.6;fill:#FFFFFF;" d="M285.594,321.957c0,0,8.096-7.979,22.232,2.335
					c9.646,7.038,35.189,24.129,37.613,28.718c2.423,4.589-16.415,39.532-23.875,45.975c-7.459,6.443-13.167,7.975-19.861,5.584
					c-6.694-2.392-40.048-20.302-42.746-28.154C256.259,368.562,278.952,325.835,285.594,321.957z"/>
				<path style="opacity:0.3;fill:#FFFFFF;" d="M293.377,325.689c0,0,34.639,22.665,38.399,25.922
					c5.307,0.784,13.215,1.497,11.642,2.465l-9.965,2.136c0,0-20.194,41.285-24.04,42.505c-3.846,1.22,20.652-37.059,20.452-43.438
					c-0.199-6.38-43.083-27.742-41.331-29.569C290.411,323.752,294.213,326.043,293.377,325.689z"/>
			</g>
			<path style="opacity:0.3;fill:#FFFFFF;" d="M279.8,343.24c0,0-16.112,23.592-11.522,31.591
				c4.59,7.999,31.583,20.319,28.252,16.089c-3.331-4.229-22.608-14.068-21.563-22.48C276.012,360.029,279.8,343.24,279.8,343.24z"
				/>
		</g>
		<ellipse style="fill:#407BFF;" cx="254.42" cy="204.019" rx="111.289" ry="10.846"/>
		<ellipse style="opacity:0.8;fill:#FFFFFF;enable-background:new    ;" cx="254.42" cy="204.019" rx="111.289" ry="10.846"/>
		<g>
			<path style="fill:#407BFF;" d="M381.456,171.272c-1.716-1.081-3.432-2.11-5.302-3.054c-35.278-18.394-77.951-6.297-95.315,27.025
				c-17.364,33.322-2.831,75.24,32.447,93.617c1.819,0.961,3.672,1.802,5.542,2.591L381.456,171.272z"/>
			<path style="opacity:0.3;enable-background:new    ;" d="M381.456,171.272c-1.716-1.081-3.432-2.11-5.302-3.054
				c-35.278-18.394-77.951-6.297-95.315,27.025c-17.364,33.322-2.831,75.24,32.447,93.617c1.819,0.961,3.672,1.802,5.542,2.591
				L381.456,171.272z"/>
			<path style="fill:#407BFF;" d="M381.559,171.083c-0.618-0.343-1.218-0.686-1.836-1.012
				c-33.314-17.365-74.398-4.436-91.763,28.878c-17.365,33.314-4.436,74.398,28.878,91.764c0.635,0.326,1.253,0.618,1.888,0.927
				L381.559,171.083z"/>
			<path style="opacity:0.8;fill:#FFFFFF;enable-background:new    ;" d="M380.203,173.52c-0.566-0.326-1.15-0.652-1.716-0.961
				c-31.973-16.664-71.402-4.254-88.066,27.72c-16.664,31.973-4.254,71.402,27.72,88.066c0.601,0.309,1.184,0.583,1.716,0.875
				L380.203,173.52z"/>
			<path style="fill:#407BFF;" d="M350.828,220.5l20.796-40.082c0.93-1.834,0.196-4.075-1.638-5.005
				c-0.104-0.053-0.21-0.1-0.318-0.143c-10.434-4.058-21.808-5.058-32.79-2.883c-2.008,0.398-3.313,2.348-2.916,4.355
				c0.027,0.134,0.061,0.267,0.102,0.397l13.572,43.102c0.269,0.909,1.223,1.427,2.132,1.159
				C350.233,221.264,350.618,220.936,350.828,220.5z"/>
			<path style="fill:#407BFF;" d="M343.072,221.684L329.5,178.564c-0.613-1.953-2.694-3.038-4.647-2.425
				c-0.129,0.041-0.257,0.088-0.381,0.143c-10.245,4.515-18.994,11.853-25.223,21.156c-1.147,1.684-0.711,3.979,0.973,5.126
				c0.123,0.083,0.25,0.16,0.382,0.228l40.134,20.882c0.873,0.368,1.88-0.04,2.248-0.913
				C343.13,222.42,343.16,222.043,343.072,221.684z"/>
			<path style="fill:#407BFF;" d="M339.623,235.771l-43.119,13.555c-1.96,0.623-3.044,2.716-2.421,4.676
				c0.04,0.125,0.086,0.248,0.139,0.368c4.515,10.245,11.853,18.994,21.156,25.223c1.698,1.143,4.001,0.694,5.144-1.004
				c0.076-0.113,0.146-0.23,0.209-0.351l20.882-40.082c0.4-0.859,0.029-1.88-0.83-2.28
				C340.421,235.706,340.011,235.669,339.623,235.771z"/>
			<path style="fill:#407BFF;" d="M338.422,227.998l-40.082-20.882c-1.834-0.93-4.075-0.197-5.004,1.638
				c-0.053,0.104-0.1,0.21-0.143,0.318c-4.057,10.434-5.057,21.808-2.883,32.79c0.401,2.017,2.361,3.327,4.378,2.926
				c0.127-0.025,0.252-0.057,0.375-0.095l43.102-13.572c0.894-0.314,1.364-1.293,1.05-2.188
				C339.075,228.535,338.793,228.202,338.422,227.998z"/>
			<g style="opacity:0.3;">
				<path style="fill:#FFFFFF;" d="M350.828,220.5l20.796-40.082c0.93-1.834,0.196-4.075-1.638-5.005
					c-0.104-0.053-0.21-0.1-0.318-0.143c-10.434-4.058-21.808-5.058-32.79-2.883c-2.008,0.398-3.313,2.348-2.916,4.355
					c0.027,0.134,0.061,0.267,0.102,0.397l13.572,43.102c0.269,0.909,1.223,1.427,2.132,1.159
					C350.233,221.264,350.618,220.936,350.828,220.5z"/>
				<path style="fill:#FFFFFF;" d="M343.072,221.684L329.5,178.564c-0.613-1.953-2.694-3.038-4.647-2.425
					c-0.129,0.041-0.257,0.088-0.381,0.143c-10.245,4.515-18.994,11.853-25.223,21.156c-1.147,1.684-0.711,3.979,0.973,5.126
					c0.123,0.083,0.25,0.16,0.382,0.228l40.134,20.882c0.873,0.368,1.88-0.04,2.248-0.913
					C343.13,222.42,343.16,222.043,343.072,221.684z"/>
				<path style="fill:#FFFFFF;" d="M339.623,235.771l-43.119,13.555c-1.96,0.623-3.044,2.716-2.421,4.676
					c0.04,0.125,0.086,0.248,0.139,0.368c4.515,10.245,11.853,18.994,21.156,25.223c1.698,1.143,4.001,0.694,5.144-1.004
					c0.076-0.113,0.146-0.23,0.209-0.351l20.882-40.082c0.4-0.859,0.029-1.88-0.83-2.28
					C340.421,235.706,340.011,235.669,339.623,235.771z"/>
				<path style="fill:#FFFFFF;" d="M338.422,227.998l-40.082-20.882c-1.834-0.93-4.075-0.197-5.004,1.638
					c-0.053,0.104-0.1,0.21-0.143,0.318c-4.057,10.434-5.057,21.808-2.883,32.79c0.401,2.017,2.361,3.327,4.378,2.926
					c0.127-0.025,0.252-0.057,0.375-0.095l43.102-13.572c0.894-0.314,1.364-1.293,1.05-2.188
					C339.075,228.535,338.793,228.202,338.422,227.998z"/>
			</g>
			<path style="fill:#407BFF;" d="M321.247,262.967c-1.321,1.338-2.9,1.905-3.535,1.287c-0.635-0.618-0.103-2.231,1.218-3.569
				c1.321-1.338,2.917-1.905,3.552-1.27C323.117,260.05,322.568,261.68,321.247,262.967z"/>
			<path style="opacity:0.6;fill:#FFFFFF;enable-background:new    ;" d="M321.247,262.967c-1.321,1.338-2.9,1.905-3.535,1.287
				c-0.635-0.618-0.103-2.231,1.218-3.569c1.321-1.338,2.917-1.905,3.552-1.27C323.117,260.05,322.568,261.68,321.247,262.967z"/>
			<path style="fill:#407BFF;" d="M324.901,248.726c-1.407,1.235-3.037,1.716-3.62,1.029c-0.583-0.686,0-2.231,1.458-3.432
				c1.459-1.201,3.037-1.716,3.638-1.029C326.978,245.98,326.308,247.49,324.901,248.726z"/>
			<path style="opacity:0.6;fill:#FFFFFF;enable-background:new    ;" d="M324.901,248.726c-1.407,1.235-3.037,1.716-3.62,1.029
				c-0.583-0.686,0-2.231,1.458-3.432c1.459-1.201,3.037-1.716,3.638-1.029C326.978,245.98,326.308,247.49,324.901,248.726z"/>
			<path style="fill:#407BFF;" d="M348.923,188.585c-0.223,1.853-1.133,3.294-2.025,3.191c-0.892-0.103-1.424-1.716-1.218-3.569
				c0.206-1.853,1.115-3.294,2.008-3.191C348.58,185.119,349.129,186.715,348.923,188.585z"/>
			<path style="opacity:0.6;fill:#FFFFFF;enable-background:new    ;" d="M348.923,188.585c-0.223,1.853-1.133,3.294-2.025,3.191
				c-0.892-0.103-1.424-1.716-1.218-3.569c0.206-1.853,1.115-3.294,2.008-3.191C348.58,185.119,349.129,186.715,348.923,188.585z"/>
			<path style="opacity:0.6;fill:#FFFFFF;enable-background:new    ;" d="M312.839,225.15c1.836,0.446,3.157,1.493,2.934,2.368
				c-0.223,0.875-1.853,1.235-3.672,0.806c-1.819-0.429-3.14-1.493-2.934-2.368C309.373,225.081,311.02,224.721,312.839,225.15z"/>
		</g>
		<g>
			<g>
				<path style="fill:#407BFF;" d="M186.539,357.226c0,0-2.883-12.535,12.838-20.219c10.728-5.243,38.537-21.699,43.726-21.699
					c5.189,0,26.132,36.475,28.346,46.08c2.214,9.605,0.904,15.367-4.337,20.17c-5.241,4.802-36.654,25.933-44.857,24.652
					C214.052,404.929,186.867,364.909,186.539,357.226z"/>
				<path style="opacity:0.8;fill:#FFFFFF;" d="M186.539,357.226c0,0-2.883-12.535,12.838-20.219
					c10.728-5.243,38.537-21.699,43.726-21.699c5.189,0,26.132,36.475,28.346,46.08c2.214,9.605,0.904,15.367-4.337,20.17
					c-5.241,4.802-36.654,25.933-44.857,24.652C214.052,404.929,186.867,364.909,186.539,357.226z"/>
				<path style="opacity:0.6;fill:#FFFFFF;" d="M193.474,352.087c0,0,36.218-20.047,40.853-21.85
					c3.171-4.327,7.494-10.986,7.616-9.144l-2.764,9.809c0,0,27.077,37.135,26.36,41.106c-0.717,3.97-23.126-35.567-28.861-38.37
					c-5.734-2.803-44.65,25.143-45.448,22.74C190.376,353.804,194.177,351.512,193.474,352.087z"/>
			</g>
			<path style="opacity:0.6;fill:#FFFFFF;" d="M202.654,372.288c0,0,13.338,25.264,22.555,24.94
				c9.217-0.323,32.715-18.44,27.42-17.469c-5.295,0.97-22.998,13.422-29.948,8.57C215.731,383.477,202.654,372.288,202.654,372.288
				z"/>
		</g>
		<g>
			<path style="fill:#263238;" d="M203.368,238.911c-16.707-32.944-44.522-59.293-78.323-74.191l0.807-1.83
				c34.222,15.084,62.385,41.761,79.3,75.117L203.368,238.911z"/>
			<g>
				<g>
					<path style="fill:#263238;" d="M246.744,247.099c-2.035-11.82-11.736-22.837-23.721-23.319
						c-8.039-0.323-15.961,4.47-19.739,11.518l0.023-0.055c-8.68,0.182-16.295,6.761-19.878,13.657
						c-3.584,6.896-3.64,15.514-0.146,22.456c2.464,4.895,6.545,8.879,11.257,11.676c11.389,6.759,26.689,6.244,37.598-1.265
						C243.047,274.258,248.991,260.15,246.744,247.099z"/>
				</g>
				<g style="opacity:0.4;">
					<path style="fill:#FFFFFF;" d="M246.744,247.099c-2.035-11.82-11.736-22.837-23.721-23.319
						c-8.039-0.323-15.961,4.47-19.739,11.518l0.023-0.055c-8.68,0.182-16.295,6.761-19.878,13.657
						c-3.584,6.896-3.64,15.514-0.146,22.456c2.464,4.895,6.545,8.879,11.257,11.676c11.389,6.759,26.689,6.244,37.598-1.265
						C243.047,274.258,248.991,260.15,246.744,247.099z"/>
				</g>
				<g style="opacity:0.4;">
					<path style="fill:#FFFFFF;" d="M200.166,241.427c-6.094,2.003-10.937,7.421-12.246,13.701
						c-1.309,6.28,0.967,13.182,5.754,17.452c2.944,2.626,11.615,6.286,11.615,6.286s6.158-10.631,6.142-11.049
						c-5.539-0.544-10.671-4.189-13.007-9.241c-2.337-5.052-1.793-11.322,1.379-15.896"/>
				</g>
			</g>
		</g>
		<path style="opacity:0.3;fill:#407BFF;" d="M334.46,432.335H177.957c-3.192,0-5.838-2.517-6.056-5.76l-0.51-7.603
			c-0.238-3.552,2.511-6.574,6.007-6.602l157.961-1.291c3.631-0.03,6.475,3.172,6.083,6.848l-0.947,8.893
			C340.161,429.957,337.559,432.335,334.46,432.335z"/>
		<path style="fill:#FFFFFF;" d="M158.695,260.022c14.812,2.882,32.59,5.442,47.611,6.853c43.919,4.205,88.281,1.722,131.927-4.243
			c0,0,11.913-1.713,11.913-1.713l-11.877,1.955C278.934,272.336,217.557,273.069,158.695,260.022L158.695,260.022z"/>
		<path style="opacity:0.4;fill:#FFFFFF;" d="M159.406,211.109l26.084,195.156h53.288l-20.032-190.236
			C218.746,216.029,169.977,213.142,159.406,211.109z"/>
		<path style="fill:#FFFFFF;" d="M365.71,204.019c-1.639,6.566-46.859,9.132-54.796,9.73c-37.618,2.165-75.368,2.164-112.987,0.002
			c-14.092-0.94-28.229-1.975-42.13-4.578c-3.077-0.726-12.124-2.141-12.667-5.153c0.522,3.002,9.991,4.306,12.711,4.912
			c13.926,2.318,28.045,3.25,42.129,4.051c37.594,1.891,75.304,1.891,112.898,0.002C318.923,212.414,364.194,210.386,365.71,204.019
			L365.71,204.019z"/>
		<path style="fill:#FFFFFF;" d="M152.088,215.953c7.108,68.743,14.361,145.93,20.168,214.795
			C165.142,362.006,157.9,284.817,152.088,215.953L152.088,215.953z"/>
		<path style="fill:#FFFFFF;" d="M358.542,219.034c-4.792,67.968-11.414,143.415-17.8,211.298
			C345.745,363.416,352.507,285.998,358.542,219.034L358.542,219.034z"/>
	</g>
</g>
</svg>
