<?xml version="1.0" encoding="utf-8"?>
<!-- Generator: Adobe Illustrator 27.5.0, SVG Export Plug-In . SVG Version: 6.00 Build 0)  -->
<svg version="1.1" xmlns="http://www.w3.org/2000/svg" xmlns:xlink="http://www.w3.org/1999/xlink" x="0px" y="0px"
	 viewBox="0 0 500 500" style="enable-background:new 0 0 500 500;" xml:space="preserve">
<g id="Background_Complete">
	<g>
		<g>
			<path style="fill:#E0E0E0;" d="M416.075,262.439c0.587-0.88,1.505-1.545,2.546-1.741c-0.557-0.125-0.529-0.266-1.397-0.344
				c-0.142-0.013-0.923-0.048-0.923-0.048s0.219-0.436,0.481-0.893c0.142-0.246,0.261-0.539,0.189-0.814
				c-0.613,0.234-1.227,0.469-1.84,0.703c0.122-0.872-0.16-1.792-0.749-2.446c0.093,1.036-0.356,2.08-1.116,2.784
				c-3.408-2.035-7.875-1.393-10.526,1.735c-2.952,3.483-2.521,8.699,0.961,11.651c3.483,2.952,8.699,2.522,11.651-0.961
				C417.716,269.279,417.876,265.398,416.075,262.439z"/>
		</g>
		<g style="opacity:0.4;">
			<g>
				<path style="fill:#FFFFFF;" d="M413.04,263.157c0.336-0.772,0.105-1.831-0.768-2.428c-1.135-0.875-2.67-1.131-4.083-0.889
					c-1.413,0.242-2.714,0.941-3.855,1.809c-0.904,0.688-1.768,1.566-1.968,2.685c-0.2,1.119,0.568,2.453,1.704,2.461
					c0.873,0.006,1.564-0.707,2.112-1.386c0.548-0.679,1.158-1.433,2.021-1.561c0.959-0.143,1.857,0.548,2.825,0.58
					C411.87,264.456,412.704,263.929,413.04,263.157z"/>
			</g>
		</g>
	</g>
	<g>
		<g>
			<path style="fill:#E0E0E0;" d="M89.798,326.473c-0.473-0.945-0.597-2.072-0.251-3.074c-0.384,0.422-0.493,0.328-0.99,1.043
				c-0.081,0.117-0.499,0.779-0.499,0.779s-0.271-0.406-0.537-0.86c-0.144-0.245-0.339-0.494-0.614-0.567
				c-0.1,0.649-0.2,1.298-0.3,1.947c-0.697-0.538-1.636-0.748-2.496-0.561c0.946,0.432,1.631,1.339,1.866,2.348
				c-3.455,1.953-5.11,6.152-3.705,10.004c1.564,4.289,6.309,6.499,10.598,4.935c4.289-1.564,6.499-6.309,4.935-10.598
				C96.553,328.434,93.261,326.373,89.798,326.473z"/>
		</g>
		<g style="opacity:0.4;">
			<g>
				<path style="fill:#FFFFFF;" d="M88.919,329.465c-0.505-0.674-1.539-0.998-2.49-0.535c-1.322,0.553-2.304,1.76-2.794,3.107
					c-0.49,1.347-0.527,2.824-0.338,4.245c0.15,1.126,0.485,2.312,1.358,3.04c0.873,0.728,2.412,0.721,2.982-0.262
					c0.438-0.755,0.16-1.709-0.158-2.522c-0.318-0.813-0.671-1.715-0.355-2.529c0.351-0.904,1.395-1.342,1.903-2.167
					C89.468,331.124,89.424,330.139,88.919,329.465z"/>
			</g>
		</g>
	</g>
	<g>
		<g>
			<path style="fill:#E0E0E0;" d="M171.743,65.49c-0.917-1.006-1.464-2.36-1.387-3.722c-0.329,0.657-0.496,0.579-0.862,1.639
				c-0.06,0.173-0.346,1.139-0.346,1.139s-0.477-0.409-0.967-0.879c-0.264-0.254-0.592-0.493-0.959-0.488
				c0.103,0.839,0.206,1.678,0.309,2.518c-1.052-0.423-2.289-0.355-3.289,0.178c1.324,0.205,2.489,1.089,3.134,2.257
				c-3.599,3.629-4.181,9.411-1.093,13.694c3.439,4.769,10.092,5.847,14.86,2.409c4.769-3.438,5.847-10.091,2.409-14.86
				C180.801,65.558,176,64.155,171.743,65.49z"/>
		</g>
		<g style="opacity:0.4;">
			<g>
				<path style="fill:#FFFFFF;" d="M171.701,69.506c-0.861-0.659-2.256-0.699-3.273,0.207c-1.445,1.148-2.24,2.987-2.376,4.828
					c-0.136,1.841,0.335,3.684,1.066,5.379c0.58,1.344,1.41,2.695,2.746,3.292c1.336,0.596,3.242,0.05,3.604-1.368
					c0.278-1.089-0.4-2.174-1.078-3.07c-0.679-0.896-1.432-1.891-1.325-3.01c0.119-1.242,1.26-2.151,1.601-3.351
					C172.962,71.37,172.562,70.165,171.701,69.506z"/>
			</g>
		</g>
	</g>
	<g>
		<path style="fill:#EBEBEB;" d="M67.516,294.274l7.938,2.984l-6.892,1.954c-2.3,0.652-4.125,2.406-4.868,4.678l-2.494,7.621
			l-3.067-7.644c-0.761-1.897-2.294-3.381-4.216-4.078l-6.971-2.531l7.551-3.102c1.827-0.751,3.265-2.221,3.974-4.064l2.729-7.087
			l1.957,6.59C63.797,291.751,65.411,293.483,67.516,294.274z"/>
	</g>
	<g>
		<path style="fill:#EBEBEB;" d="M273.076,380.086l6.458,2.428l-5.607,1.59c-1.871,0.531-3.356,1.957-3.961,3.806l-2.029,6.2
			l-2.495-6.219c-0.619-1.544-1.866-2.75-3.43-3.318l-5.671-2.059l6.143-2.524c1.487-0.611,2.656-1.807,3.233-3.307l2.22-5.766
			l1.592,5.361C270.05,378.033,271.363,379.442,273.076,380.086z"/>
	</g>
	<g>
		<path style="fill:#EBEBEB;" d="M334.784,110.025l4.622,1.738l-4.013,1.138c-1.339,0.38-2.402,1.401-2.835,2.724l-1.452,4.438
			l-1.785-4.451c-0.443-1.105-1.336-1.968-2.455-2.375l-4.059-1.474l4.397-1.807c1.064-0.437,1.901-1.293,2.314-2.367l1.589-4.127
			l1.139,3.837C332.619,108.556,333.558,109.564,334.784,110.025z"/>
	</g>
	<g>
		<path style="fill:#EBEBEB;" d="M82.268,267.347l4.622,1.738l-4.013,1.138c-1.339,0.38-2.402,1.401-2.835,2.724l-1.452,4.438
			l-1.785-4.451c-0.443-1.105-1.336-1.969-2.455-2.375l-4.059-1.474l4.397-1.806c1.064-0.437,1.901-1.293,2.314-2.367l1.589-4.127
			l1.14,3.837C80.102,265.878,81.042,266.886,82.268,267.347z"/>
	</g>
	<g>
		<path style="fill:#EBEBEB;" d="M439.834,174.436l4.622,1.738l-4.013,1.138c-1.339,0.38-2.402,1.401-2.835,2.724l-1.452,4.438
			l-1.786-4.451c-0.443-1.105-1.336-1.969-2.455-2.375l-4.059-1.474l4.397-1.806c1.064-0.437,1.901-1.293,2.314-2.367l1.589-4.127
			l1.139,3.837C437.668,172.966,438.607,173.975,439.834,174.436z"/>
	</g>
	<g>
		<path style="fill:#EBEBEB;" d="M148.44,338.178l4.265,1.604l-3.703,1.05c-1.236,0.351-2.217,1.293-2.616,2.514l-1.34,4.096
			l-1.648-4.108c-0.409-1.02-1.233-1.817-2.266-2.191l-3.746-1.36l4.057-1.667c0.982-0.403,1.755-1.193,2.136-2.184l1.466-3.808
			l1.052,3.541C146.442,336.822,147.309,337.752,148.44,338.178z"/>
	</g>
	<g>
		<path style="fill:#EBEBEB;" d="M141.538,259.909l4.266,1.603l-3.704,1.05c-1.236,0.351-2.217,1.293-2.616,2.514l-1.34,4.096
			l-1.648-4.108c-0.409-1.02-1.233-1.817-2.266-2.192l-3.746-1.36l4.058-1.667c0.982-0.403,1.754-1.193,2.136-2.184l1.466-3.808
			l1.052,3.541C139.54,258.552,140.407,259.483,141.538,259.909z"/>
	</g>
	<g>
		<path style="fill:#EBEBEB;" d="M297.527,144.555l4.265,1.604l-3.703,1.05c-1.236,0.351-2.217,1.293-2.616,2.514l-1.34,4.096
			l-1.648-4.108c-0.409-1.02-1.233-1.817-2.266-2.192l-3.746-1.36l4.058-1.667c0.982-0.403,1.754-1.193,2.136-2.184l1.466-3.808
			l1.052,3.541C295.529,143.199,296.396,144.129,297.527,144.555z"/>
	</g>
	<g>
		<path style="fill:#EBEBEB;" d="M280.05,92.914l7.049,2.65l-6.12,1.736c-2.043,0.579-3.663,2.137-4.323,4.154l-2.215,6.768
			l-2.723-6.788c-0.676-1.685-2.038-3.002-3.744-3.622l-6.191-2.248l6.706-2.755c1.623-0.667,2.899-1.972,3.53-3.609l2.423-6.294
			l1.738,5.852C276.747,90.673,278.18,92.211,280.05,92.914z"/>
	</g>
	<g>
		<path style="fill:#EBEBEB;" d="M423.99,217.132l9.607,3.611l-8.341,2.365c-2.784,0.79-4.992,2.912-5.892,5.661l-3.018,9.224
			l-3.711-9.252c-0.921-2.296-2.777-4.092-5.103-4.936l-8.437-3.064l9.138-3.755c2.212-0.908,3.951-2.688,4.81-4.919l3.302-8.577
			l2.368,7.975C419.489,214.078,421.442,216.174,423.99,217.132z"/>
	</g>
	<g>
		<path style="fill:#EBEBEB;" d="M300.204,234.292c1.115-0.348,2.209-0.688,3.293-1.026c-4.289,1.319-8.533,2.625-12.726,3.915
			C294.024,236.184,297.175,235.22,300.204,234.292z"/>
		<path style="fill:#EBEBEB;" d="M232.87,200.227c-0.361-1.098-0.715-2.174-1.066-3.239c1.386,4.265,2.757,8.485,4.111,12.652
			C234.864,206.391,233.847,203.246,232.87,200.227z"/>
		<path style="fill:#EBEBEB;" d="M232.449,299.644c0.296-0.891,0.597-1.793,0.9-2.704c-0.405,1.212-0.811,2.428-1.219,3.648
			C232.237,300.272,232.342,299.962,232.449,299.644z"/>
		<path style="fill:#EBEBEB;" d="M300.069,266.119c-0.547-0.172-1.106-0.349-1.661-0.523c0.741,0.234,1.486,0.47,2.23,0.705
			C300.447,266.24,300.261,266.181,300.069,266.119z"/>
		<path style="fill:#EBEBEB;" d="M262.247,240.613c-1.608,1.138-3.235,2.289-4.881,3.454c0.201-0.14,0.4-0.278,0.601-0.417
			C259.384,242.645,260.81,241.634,262.247,240.613z"/>
		<path style="fill:#EBEBEB;" d="M249.549,250.046c-0.035,0.005-0.07,0.011-0.105,0.016c0.075,0.001,0.15,0.001,0.225,0.002
			C249.629,250.058,249.589,250.052,249.549,250.046z"/>
		<path style="fill:#EBEBEB;" d="M192.949,289.655c-2.039,1.446-4.063,2.879-6.081,4.31c5.434-3.816,11.726-8.235,18.762-13.177
			c10.231-7.26,22.045-15.643,35.011-24.843c-1.19,0.828-2.367,1.648-3.537,2.462C223.213,268.237,208.381,278.734,192.949,289.655z
			"/>
		<path style="fill:#EBEBEB;" d="M270.54,246.829c-3.78,0.579-7.652,1.173-11.618,1.781c16.018-2.309,30.583-4.409,43.206-6.229
			c15.539-2.316,28.118-4.192,36.854-5.494c0.011-0.002,0.021-0.003,0.031-0.005c-7.027,1.02-14.184,2.057-21.448,3.108
			C301.26,242.361,285.487,244.655,270.54,246.829z"/>
		<path style="fill:#EBEBEB;" d="M317.481,260.546c6.936,1.059,13.773,2.104,20.493,3.133c-8.68-1.364-20.909-3.285-35.912-5.642
			c-12.616-1.92-27.173-4.135-43.184-6.571c3.845,0.62,7.603,1.226,11.273,1.818C285.187,255.591,301.063,258.027,317.481,260.546z"
			/>
		<path style="fill:#EBEBEB;" d="M262.474,243.299c-1.534,0.762-3.079,1.529-4.645,2.307c0.194-0.094,0.385-0.187,0.578-0.281
			C259.754,244.654,261.111,243.978,262.474,243.299z"/>
		<path style="fill:#EBEBEB;" d="M258.878,251.466c-2.839-0.458-5.728-0.924-8.656-1.396c-0.185-0.002-0.368-0.004-0.553-0.005
			C252.787,250.539,255.861,251.007,258.878,251.466z"/>
		<path style="fill:#EBEBEB;" d="M475.69,285.438c-8.67-1.494-21.23-3.563-36.761-6.049c-26.52-4.25-61.708-9.701-100.954-15.71
			c0.299,0.047,0.605,0.095,0.895,0.141c4.317,0.71,7.676,1.263,9.995,1.644c1.117,0.197,1.978,0.348,2.595,0.457
			c0.583,0.109,0.881,0.174,0.878,0.192c-0.003,0.018-0.306-0.011-0.895-0.086c-0.621-0.085-1.486-0.204-2.611-0.359
			c-2.325-0.346-5.693-0.848-10.02-1.493c-8.725-1.364-21.29-3.329-36.812-5.756c-9.568-1.543-20.257-3.267-31.847-5.137
			c-7.062-1.083-13.934-2.138-20.593-3.16c-0.056-0.018-0.111-0.036-0.167-0.054c0.017-0.003,0.035-0.005,0.052-0.008
			c-0.026,0-0.052-0.001-0.079-0.001c-0.017-0.005-0.033-0.011-0.05-0.016c0.076,0,0.152,0,0.228,0c0.002,0,0.004,0.001,0.006,0.001
			c0.002,0,0.004-0.001,0.006-0.001c0.171,0,0.343,0,0.514,0c-0.083-0.013-0.166-0.027-0.249-0.04
			c0.1-0.015,0.201-0.031,0.301-0.046c0.191,0,0.38,0,0.572,0c-0.181-0.002-0.364-0.003-0.545-0.004
			c2.969-0.455,5.897-0.904,8.775-1.345c-3.047,0.439-6.15,0.887-9.299,1.34c-0.049,0-0.099-0.001-0.148-0.001
			c-0.025-0.004-0.05-0.008-0.076-0.012c0.065-0.02,0.129-0.041,0.194-0.061c6.771-0.985,13.761-2.001,20.947-3.047
			c11.466-1.757,22.047-3.379,31.527-4.832c15.541-2.305,28.122-4.172,36.858-5.468c4.333-0.611,7.704-1.086,10.032-1.415
			c1.126-0.146,1.993-0.258,2.614-0.338c0.59-0.07,0.894-0.097,0.897-0.079c0.003,0.018-0.295,0.081-0.879,0.186
			c-0.618,0.104-1.479,0.249-2.598,0.437c-2.317,0.363-5.67,0.887-9.978,1.561c38.922-5.65,73.806-10.776,100.152-14.786
			c15.551-2.364,28.128-4.335,36.81-5.761c4.341-0.713,7.708-1.29,9.986-1.71c2.279-0.42,3.469-0.683,3.455-0.767
			c-0.013-0.084-1.229,0.013-3.532,0.281c-2.303,0.267-5.692,0.704-10.052,1.296c-8.72,1.184-21.324,2.99-36.885,5.292
			c-31.123,4.598-74.075,11.201-121.493,18.566c-23.876,3.69-46.608,7.203-67.269,10.396c0.909-0.287,1.812-0.573,2.712-0.857
			c11.992-3.689,24.678-7.591,37.872-11.65c-9.921,3.038-20.848,6.385-32.585,9.979c15.54-4.912,29.666-9.377,41.896-13.242
			c14.974-4.653,27.096-8.42,35.514-11.035c4.18-1.266,7.433-2.25,9.679-2.93c1.088-0.316,1.926-0.559,2.526-0.733
			c0.571-0.159,0.867-0.232,0.873-0.214c0.006,0.018-0.278,0.125-0.838,0.318c-0.593,0.197-1.421,0.472-2.495,0.829
			c-2.235,0.714-5.471,1.749-9.63,3.078c-7.789,2.427-18.755,5.844-32.213,10.036c3.841-1.182,7.715-2.373,11.623-3.576
			c45.793-14.048,87.241-26.833,117.189-36.266c14.974-4.713,27.076-8.583,35.418-11.32c4.171-1.368,7.403-2.453,9.585-3.216
			c2.182-0.763,3.314-1.205,3.288-1.287c-0.028-0.082-1.213,0.2-3.443,0.816c-2.231,0.616-5.507,1.565-9.717,2.816
			c-8.42,2.502-20.574,6.213-35.568,10.866c-29.991,9.301-71.338,22.391-116.973,36.917c-23.036,7.313-44.965,14.275-64.89,20.6
			c18.74-9.127,39.364-19.171,61.03-29.723c42.948-20.876,81.81-39.84,109.858-53.734c14.025-6.944,25.35-12.615,33.145-16.593
			c3.898-1.989,6.914-3.554,8.946-4.641c2.031-1.087,3.078-1.697,3.038-1.773c-0.04-0.076-1.164,0.384-3.267,1.334
			c-2.104,0.949-5.185,2.388-9.14,4.268c-7.91,3.759-19.312,9.282-33.366,16.17c-28.112,13.77-66.825,33.019-109.541,54.341
			c-16.845,8.392-33.055,16.468-48.235,24.031c12.631-6.273,24.185-12.011,34.339-17.053c14.034-6.885,25.396-12.459,33.285-16.329
			c3.923-1.889,6.976-3.359,9.084-4.374c1.023-0.478,1.811-0.847,2.376-1.111c0.538-0.245,0.818-0.362,0.827-0.345
			c0.009,0.017-0.254,0.166-0.776,0.442c-0.554,0.285-1.326,0.683-2.33,1.2c-2.091,1.047-5.12,2.563-9.012,4.512
			c-7.887,3.876-19.244,9.458-33.273,16.353c-11.287,5.479-24.293,11.793-38.585,18.732c-2.987,1.488-5.931,2.955-8.83,4.399
			c0.034-0.024,0.068-0.047,0.102-0.071c2.758-1.37,5.479-2.721,8.15-4.048c-2.532,1.229-5.108,2.48-7.718,3.747
			c16.992-11.828,35.683-24.839,55.314-38.505c39.061-27.146,74.394-51.783,99.861-69.768c12.736-8.99,23.009-16.312,30.069-21.425
			c3.53-2.556,6.258-4.56,8.09-5.942c1.832-1.382,2.768-2.143,2.717-2.212c-0.051-0.069-1.088,0.557-3.012,1.814
			c-1.925,1.258-4.737,3.147-8.341,5.605c-7.208,4.915-17.581,12.103-30.354,21.042c-25.551,17.872-60.693,42.766-99.454,70.315
			c-14.912,10.581-29.27,20.769-42.753,30.337c11.067-7.832,21.222-15.018,30.164-21.346c12.754-8.933,23.079-16.165,30.248-21.187
			c3.571-2.462,6.349-4.379,8.268-5.701c0.934-0.628,1.652-1.112,2.168-1.459c0.492-0.324,0.75-0.482,0.76-0.467
			c0.011,0.015-0.225,0.202-0.696,0.554c-0.501,0.366-1.2,0.876-2.109,1.539c-1.897,1.352-4.645,3.309-8.176,5.825
			c-7.166,5.027-17.486,12.265-30.233,21.207c-10.155,7.05-21.841,15.163-34.675,24.073c-2.851,2.023-5.663,4.018-8.426,5.978
			c-0.036,0.018-0.072,0.035-0.108,0.053c2.691-1.904,5.333-3.774,7.933-5.614c-2.502,1.737-5.048,3.505-7.634,5.3
			c14.951-14.31,31.407-30.059,48.697-46.607c34.241-32.721,65.201-62.4,87.48-84.015c11.142-10.806,20.118-19.591,26.275-25.71
			c3.078-3.059,5.452-5.45,7.04-7.093c1.588-1.642,2.392-2.535,2.33-2.595c-0.062-0.06-0.985,0.715-2.685,2.248
			c-1.7,1.534-4.175,3.825-7.342,6.798c-6.333,5.945-15.429,14.614-26.617,25.374c-22.38,21.517-53.11,51.42-86.992,84.492
			c-17.139,16.704-33.449,32.6-48.269,47.044c1.876-2.505,3.72-4.968,5.535-7.391c-1.913,2.507-3.858,5.055-5.839,7.65
			c0.017-0.032,0.033-0.063,0.05-0.095c2.637-3.464,5.336-7.011,8.08-10.616c8.548-11.417,16.361-21.852,23.209-30.997
			c9.313-12.31,16.851-22.275,22.086-29.195c2.619-3.41,4.657-6.063,6.065-7.895c0.69-0.877,1.221-1.552,1.602-2.036
			c0.366-0.455,0.561-0.683,0.576-0.672c0.015,0.011-0.15,0.26-0.487,0.735c-0.361,0.498-0.865,1.192-1.52,2.094
			c-1.378,1.853-3.374,4.536-5.939,7.985c-2.461,3.258-5.438,7.198-8.863,11.733c26.998-35.423,51.307-67.428,68.99-90.993
			c9.277-12.358,16.738-22.394,21.84-29.368c2.551-3.487,4.513-6.209,5.819-8.071c1.306-1.863,1.956-2.866,1.886-2.916
			c-0.071-0.05-0.859,0.855-2.293,2.626c-1.434,1.772-3.513,4.41-6.165,7.825c-5.305,6.83-12.903,16.768-22.233,29.089
			c-18.664,24.639-44.234,58.823-72.41,96.615c-14.178,18.985-27.676,37.061-39.949,53.496c1.328-2.527,2.638-5.02,3.926-7.472
			c-1.39,2.587-2.806,5.222-4.241,7.894c-0.033,0.044-0.065,0.087-0.098,0.131c2.107-3.934,4.26-7.954,6.455-12.053
			c6.546-12.458,12.529-23.846,17.78-33.839c7.218-13.573,13.062-24.562,17.12-32.191c2.039-3.766,3.626-6.696,4.721-8.719
			c0.541-0.971,0.957-1.718,1.255-2.254c0.288-0.505,0.444-0.759,0.461-0.751c0.017,0.009-0.106,0.28-0.363,0.801
			c-0.276,0.546-0.663,1.309-1.164,2.299c-1.063,2.039-2.602,4.993-4.581,8.789c-1.728,3.255-3.782,7.125-6.126,11.541
			c20.675-38.545,39.254-73.323,52.769-98.982c7.176-13.616,12.931-24.662,16.849-32.325c1.959-3.832,3.459-6.818,4.45-8.856
			c0.991-2.038,1.472-3.127,1.394-3.167c-0.078-0.039-0.711,0.975-1.842,2.943c-1.131,1.968-2.76,4.889-4.83,8.666
			c-4.141,7.552-10.047,18.522-17.28,32.11c-14.471,27.172-34.229,64.82-55.98,106.429c-10.996,20.994-21.463,40.978-30.973,59.136
			c6.634-19.328,13.936-40.6,21.607-62.947c15.233-44.26,28.962-84.362,38.717-113.451c4.881-14.544,8.775-26.333,11.401-34.501
			c1.314-4.084,2.31-7.262,2.958-9.427c0.647-2.164,0.944-3.315,0.86-3.342c-0.084-0.027-0.547,1.071-1.346,3.186
			c-0.799,2.116-1.936,5.25-3.37,9.295c-2.869,8.09-6.926,19.827-11.869,34.351c-9.892,29.046-23.305,69.248-38.043,113.666
			c-7.318,21.994-14.29,42.951-20.644,62.046c-0.113,0.329-0.229,0.664-0.343,0.994c3.415-20.075,7.171-42.165,11.118-65.369
			c7.868-46.04,14.926-87.742,19.847-117.962c2.464-15.109,4.4-27.347,5.671-35.815c0.636-4.234,1.106-7.525,1.395-9.761
			c0.289-2.236,0.398-3.418,0.31-3.431c-0.087-0.014-0.365,1.141-0.811,3.353c-0.446,2.212-1.06,5.481-1.82,9.695
			c-1.521,8.429-3.625,20.64-6.153,35.739c-5.063,30.198-11.796,71.951-19.156,118.07c-0.739,4.605-1.47,9.165-2.194,13.675
			c2.415-14.464,4.377-26.209,5.75-34.434c0.734-4.195,1.305-7.459,1.698-9.713c0.203-1.086,0.36-1.922,0.472-2.521
			c0.113-0.567,0.18-0.856,0.199-0.853c0.018,0.003-0.011,0.298-0.089,0.87c-0.088,0.603-0.211,1.444-0.371,2.537
			c-0.358,2.26-0.876,5.532-1.542,9.738c-1.409,8.479-3.439,20.69-5.946,35.773c-1.828,10.663-3.902,22.761-6.167,35.969
			c-0.82,5.111-1.623,10.116-2.406,15c-0.018,0.051-0.035,0.102-0.053,0.154c-0.004-0.025-0.008-0.049-0.012-0.074
			c0-0.056,0.001-0.111,0.001-0.166c0.492-3.038,0.976-6.034,1.452-8.974c-0.475,2.769-0.958,5.587-1.448,8.444
			c0.162-20.339,0.341-42.717,0.528-66.222c0.408-46.669,0.709-88.931,0.74-119.527c0.019-15.298-0.024-27.679-0.12-36.236
			c-0.048-4.279-0.108-7.601-0.179-9.854c-0.07-2.253-0.151-3.436-0.237-3.436c-0.087,0-0.175,1.182-0.261,3.435
			c-0.086,2.252-0.168,5.574-0.245,9.852c-0.153,8.556-0.279,20.937-0.363,36.235c-0.173,30.596-0.156,72.859-0.061,119.529
			c0.03,23.516,0.058,45.904,0.084,66.251c-0.467-2.888-0.927-5.736-1.379-8.536c0.451,2.965,0.91,5.985,1.375,9.049
			c-0.001,0.053-0.001,0.106-0.002,0.158c-0.004,0.022-0.007,0.044-0.011,0.066c-0.021-0.063-0.042-0.127-0.063-0.19
			c-1.007-6.571-2.047-13.354-3.116-20.328c-1.803-11.157-3.467-21.452-4.957-30.675c-2.362-15.105-4.275-27.334-5.603-35.826
			c-0.626-4.211-1.113-7.488-1.449-9.751c-0.149-1.094-0.264-1.937-0.346-2.54c-0.072-0.573-0.099-0.868-0.081-0.871
			c0.019-0.003,0.083,0.287,0.19,0.855c0.107,0.6,0.255,1.438,0.448,2.525c0.372,2.257,0.912,5.527,1.605,9.728
			c0.012,0.075,0.025,0.156,0.036,0.232c-5.804-37.936-11.071-71.942-15.189-97.608c-2.423-15.116-4.442-27.341-5.904-35.779
			c-0.731-4.219-1.322-7.492-1.752-9.707c-0.431-2.215-0.7-3.371-0.787-3.359c-0.087,0.013,0.013,1.195,0.287,3.433
			c0.273,2.238,0.721,5.533,1.327,9.77c1.212,8.476,3.063,20.726,5.421,35.851c4.711,30.251,11.477,72,19.025,118.09
			c3.781,23.206,7.381,45.301,10.653,65.383c-0.302-0.905-0.603-1.804-0.902-2.701c-3.758-11.564-7.731-23.792-11.862-36.506
			c3.1,9.583,6.51,20.126,10.172,31.444c-5.046-15.111-9.632-28.846-13.603-40.738c-4.778-14.556-8.646-26.34-11.332-34.523
			c-1.3-4.063-2.31-7.225-3.009-9.408c-0.324-1.058-0.574-1.872-0.753-2.456c-0.163-0.555-0.238-0.842-0.22-0.848
			c0.019-0.006,0.129,0.271,0.327,0.815c0.202,0.577,0.485,1.381,0.852,2.425c0.733,2.173,1.796,5.318,3.161,9.361
			c2.489,7.564,5.993,18.211,10.294,31.275c-1.209-3.721-2.429-7.474-3.659-11.261c-14.424-44.515-27.552-84.806-37.238-113.918
			c-4.84-14.557-8.813-26.321-11.624-34.43c-1.406-4.055-2.519-7.197-3.303-9.318c-0.784-2.121-1.238-3.222-1.322-3.196
			c-0.084,0.026,0.205,1.178,0.838,3.347c0.632,2.169,1.607,5.354,2.892,9.446c2.569,8.185,6.38,20,11.158,34.576
			c9.55,29.154,22.992,69.347,37.909,113.709c7.51,22.393,14.658,43.71,21.154,63.079c-9.378-18.219-19.7-38.269-30.543-59.333
			c-21.452-41.755-40.939-79.536-55.217-106.805c-7.136-13.635-12.964-24.645-17.052-32.224c-2.044-3.79-3.652-6.722-4.769-8.697
			c-1.117-1.975-1.744-2.993-1.822-2.954c-0.079,0.039,0.394,1.132,1.37,3.177c0.975,2.045,2.454,5.041,4.385,8.886
			c3.862,7.69,9.538,18.775,16.616,32.439c14.151,27.331,33.931,64.968,55.842,106.497c8.671,16.466,17.013,32.308,24.822,47.136
			c-6.496-12.374-12.436-23.689-17.652-33.626c-7.075-13.644-12.803-24.689-16.78-32.36c-1.941-3.814-3.452-6.782-4.495-8.831
			c-0.491-0.995-0.87-1.761-1.141-2.31c-0.251-0.523-0.372-0.795-0.355-0.804c0.017-0.008,0.171,0.247,0.455,0.755
			c0.293,0.538,0.702,1.29,1.233,2.265c1.076,2.033,2.634,4.978,4.636,8.762c3.984,7.667,9.719,18.708,16.805,32.348
			c5.635,10.982,12.13,23.638,19.267,37.547c1.523,2.891,3.023,5.741,4.501,8.548c-0.024-0.032-0.047-0.064-0.071-0.096
			c-1.409-2.684-2.799-5.332-4.164-7.931c1.264,2.464,2.551,4.971,3.854,7.511c-12.16-16.522-25.535-34.696-39.583-53.784
			c-27.906-37.981-53.233-72.336-71.721-97.099c-9.242-12.384-16.769-22.373-22.026-29.238c-2.628-3.433-4.688-6.085-6.109-7.866
			c-1.421-1.781-2.203-2.692-2.274-2.642c-0.071,0.05,0.572,1.058,1.865,2.929c1.293,1.871,3.235,4.606,5.762,8.11
			c5.052,7.008,12.442,17.094,21.631,29.515c18.373,24.845,43.964,59.014,72.284,96.704c10.806,14.404,21.216,28.28,30.995,41.316
			c-7.977-10.661-15.299-20.448-21.754-29.074c-9.184-12.401-16.618-22.44-21.781-29.412c-2.531-3.472-4.501-6.173-5.861-8.039
			c-0.646-0.908-1.143-1.607-1.499-2.108c-0.333-0.479-0.495-0.729-0.48-0.74c0.015-0.011,0.208,0.219,0.57,0.677
			c0.376,0.487,0.901,1.167,1.582,2.05c1.389,1.845,3.402,4.516,5.988,7.95c5.167,6.968,12.609,17.002,21.801,29.397
			c7.237,9.86,15.573,21.217,24.717,33.675c2.09,2.786,4.151,5.534,6.177,8.233c0.018,0.035,0.036,0.071,0.054,0.106
			c-1.962-2.622-3.888-5.197-5.783-7.73c1.789,2.438,3.607,4.915,5.457,7.434c-14.713-14.539-30.906-30.541-47.921-47.355
			c-33.645-33.299-64.163-63.408-86.389-85.075C102.926,106.02,93.891,97.29,87.6,91.303c-3.145-2.994-5.605-5.302-7.293-6.847
			c-1.688-1.545-2.607-2.326-2.669-2.266c-0.063,0.06,0.735,0.958,2.311,2.611c1.577,1.653,3.933,4.06,6.99,7.14
			c6.113,6.159,15.026,15.005,26.091,25.886c22.126,21.765,52.873,51.651,86.88,84.601c17.177,16.669,33.523,32.532,48.376,46.944
			c-2.585-1.83-5.125-3.63-7.626-5.4c2.584,1.866,5.211,3.762,7.886,5.693c-0.032-0.016-0.064-0.032-0.096-0.048
			c-3.55-2.556-7.185-5.173-10.879-7.832c-11.757-8.326-22.501-15.935-31.918-22.604c-12.66-9.058-22.909-16.391-30.026-21.483
			c-3.507-2.548-6.235-4.531-8.119-5.9c-0.902-0.671-1.596-1.188-2.094-1.558c-0.468-0.356-0.702-0.546-0.691-0.561
			c0.011-0.015,0.267,0.146,0.756,0.474c0.512,0.352,1.226,0.842,2.154,1.478c1.906,1.341,4.665,3.282,8.212,5.777
			c3.408,2.435,7.541,5.388,12.306,8.792c-36.525-26.331-69.53-50.043-93.819-67.281c-12.71-9.024-23.031-16.282-30.204-21.245
			c-3.586-2.482-6.385-4.39-8.301-5.661c-1.916-1.271-2.947-1.903-3-1.835c-0.052,0.069,0.879,0.836,2.701,2.23
			c1.822,1.394,4.535,3.417,8.047,5.997c7.024,5.16,17.244,12.551,29.916,21.627c25.339,18.155,60.496,43.029,99.363,70.437
			c19.525,13.791,38.115,26.922,55.017,38.86c-2.6-1.292-5.166-2.568-7.689-3.822c2.662,1.353,5.374,2.732,8.123,4.129
			c0.046,0.032,0.09,0.064,0.136,0.096c-4.048-2.051-8.184-4.147-12.402-6.284c-12.813-6.369-24.525-12.191-34.802-17.299
			c-13.962-7.024-25.264-12.71-33.112-16.659c-3.874-1.984-6.888-3.528-8.968-4.594c-0.999-0.526-1.768-0.931-2.318-1.221
			c-0.519-0.281-0.781-0.433-0.772-0.449c0.009-0.016,0.288,0.104,0.823,0.353c0.562,0.269,1.346,0.645,2.365,1.133
			c2.097,1.034,5.135,2.533,9.04,4.458c3.397,1.706,7.445,3.739,12.072,6.062c-39.727-20.159-75.574-38.277-102.011-51.451
			c-14.005-6.983-25.367-12.583-33.249-16.396c-3.941-1.907-7.013-3.366-9.109-4.331c-2.096-0.964-3.217-1.433-3.257-1.357
			c-0.04,0.076,1.003,0.691,3.027,1.792c2.024,1.1,5.029,2.685,8.913,4.7c7.768,4.03,19.051,9.777,33.027,16.815
			c27.948,14.082,66.673,33.309,109.471,54.475c21.595,10.701,42.151,20.887,60.828,30.142
			c-19.883-6.461-41.767-13.571-64.756-21.041c-45.53-14.833-86.783-28.202-116.707-37.703
			c-14.961-4.753-27.089-8.545-35.491-11.103c-4.201-1.279-7.471-2.25-9.698-2.88c-2.226-0.63-3.41-0.92-3.438-0.838
			c-0.028,0.082,1.101,0.532,3.278,1.311c2.176,0.778,5.4,1.885,9.561,3.282c8.323,2.793,20.396,6.744,35.337,11.558
			c29.88,9.633,71.236,22.695,116.929,37.048c22.649,7.134,44.228,13.931,63.887,20.123c0.32,0.104,0.644,0.21,0.965,0.315
			c-20.655-3.332-43.382-6.997-67.255-10.848c-47.366-7.677-90.271-14.563-121.361-19.366c-15.545-2.404-28.135-4.294-36.847-5.535
			c-4.356-0.621-7.742-1.08-10.043-1.362c-2.301-0.283-3.516-0.388-3.53-0.304c-0.014,0.085,1.174,0.355,3.45,0.79
			c2.275,0.435,5.638,1.034,9.974,1.775c8.672,1.484,21.235,3.537,36.769,6.003c31.068,4.939,74.024,11.51,121.472,18.694
			c4.712,0.717,9.377,1.427,13.992,2.129c-14.846-2.351-26.902-4.26-35.349-5.598c-4.316-0.715-7.674-1.272-9.993-1.657
			c-1.117-0.198-1.977-0.351-2.594-0.46c-0.583-0.11-0.881-0.175-0.878-0.194c0.003-0.018,0.306,0.011,0.896,0.087
			c0.62,0.086,1.486,0.206,2.61,0.362c2.325,0.349,5.692,0.855,10.018,1.505c8.724,1.375,21.286,3.355,36.805,5.801
			c10.97,1.783,23.415,3.806,37.003,6.015c5.26,0.8,10.411,1.584,15.437,2.349c0.053,0.017,0.106,0.035,0.159,0.052
			c-0.022,0.003-0.044,0.007-0.065,0.01c-0.064-0.001-0.127-0.001-0.191-0.002c-3.12-0.479-6.196-0.951-9.216-1.414
			c2.844,0.462,5.738,0.933,8.671,1.41c-20.926-0.17-43.949-0.358-68.133-0.555c-48.018-0.426-91.502-0.745-122.983-0.795
			c-15.74-0.028-28.48,0.006-37.284,0.094c-4.402,0.044-7.82,0.1-10.139,0.168c-2.318,0.067-3.535,0.145-3.536,0.229
			c0,0.084,1.216,0.171,3.534,0.256c2.317,0.085,5.735,0.167,10.137,0.244c8.803,0.154,21.542,0.284,37.282,0.375
			c31.48,0.188,74.966,0.197,122.986,0.135c24.151-0.014,47.147-0.028,68.051-0.04c-3.466-0.032-6.871-0.064-10.214-0.096
			c3.413,0.002,6.891,0.004,10.433,0.007c0.081,0.013,0.163,0.026,0.244,0.04c-0.106,0.016-0.213,0.033-0.319,0.049
			c0.185,0,0.368,0,0.553,0c0.012-0.002,0.024-0.004,0.036-0.005c0.011,0.002,0.021,0.004,0.032,0.005c0.059,0,0.117,0,0.175,0
			c-0.01,0.003-0.019,0.006-0.029,0.009c-0.033,0-0.065-0.001-0.097-0.001c0.022,0.004,0.044,0.007,0.066,0.011
			c-0.062,0.02-0.124,0.039-0.186,0.059c-5.102,0.736-10.331,1.489-15.673,2.26c-13.51,2.088-25.886,4-36.803,5.688
			c-15.538,2.325-28.116,4.207-36.851,5.514c-4.332,0.616-7.703,1.096-10.031,1.427c-1.126,0.147-1.992,0.26-2.613,0.341
			c-0.59,0.071-0.893,0.098-0.896,0.08c-0.003-0.018,0.295-0.081,0.879-0.187c0.617-0.105,1.479-0.251,2.597-0.44
			c2.322-0.366,5.685-0.897,10.007-1.579c8.404-1.263,20.374-3.063,35.107-5.278c-4.527,0.653-9.101,1.312-13.72,1.978
			c-47.506,6.812-90.516,13.047-121.623,17.743c-15.554,2.345-28.134,4.3-36.818,5.715c-4.342,0.707-7.71,1.28-9.989,1.697
			c-2.279,0.417-3.469,0.678-3.456,0.763c0.014,0.085,1.23-0.012,3.533-0.276c2.303-0.265,5.693-0.697,10.054-1.284
			c8.722-1.173,21.327-2.963,36.891-5.246c31.129-4.559,74.089-11.109,121.517-18.415c23.89-3.661,46.634-7.147,67.306-10.316
			c-0.593,0.188-1.185,0.376-1.774,0.563c-19.484,5.967-40.824,12.502-63.21,19.357c-45.812,13.991-87.277,26.724-117.237,36.119
			c-14.981,4.695-27.087,8.549-35.433,11.275c-4.173,1.363-7.406,2.444-9.589,3.204c-2.183,0.76-3.316,1.201-3.289,1.283
			c0.027,0.082,1.212-0.199,3.444-0.812c2.232-0.613,5.509-1.559,9.721-2.804c8.424-2.492,20.582-6.188,35.583-10.822
			c30.003-9.263,71.367-22.302,117.021-36.771c23.045-7.284,44.983-14.218,64.915-20.518c-18.751,9.103-39.388,19.121-61.067,29.646
			c-42.976,20.822-81.863,39.738-109.929,53.597c-14.034,6.927-25.366,12.584-33.167,16.552c-3.901,1.984-6.919,3.545-8.952,4.63
			c-2.033,1.085-3.081,1.693-3.041,1.769c0.04,0.076,1.165-0.383,3.269-1.329c2.104-0.947,5.188-2.382,9.146-4.256
			c7.915-3.749,19.324-9.258,33.388-16.128c26.754-13.064,63.107-31.072,103.373-51.1c-5.035,2.478-9.418,4.635-13.055,6.425
			c-3.921,1.894-6.972,3.368-9.078,4.385c-1.023,0.48-1.81,0.849-2.375,1.114c-0.538,0.245-0.818,0.363-0.826,0.346
			c-0.009-0.017,0.254-0.166,0.776-0.443c0.553-0.286,1.325-0.685,2.328-1.203c2.089-1.05,5.116-2.569,9.006-4.523
			c7.882-3.886,19.231-9.482,33.251-16.394c10.465-5.097,22.408-10.913,35.485-17.282c4.043-2.008,8.009-3.978,11.896-5.908
			c-0.038,0.026-0.075,0.052-0.113,0.078c-2.751,1.371-5.465,2.723-8.129,4.05c2.523-1.229,5.09-2.479,7.691-3.746
			c-17.002,11.803-35.703,24.786-55.344,38.422c-39.097,27.098-74.461,51.691-99.953,69.644
			c-12.748,8.974-23.03,16.284-30.097,21.388c-3.534,2.552-6.264,4.552-8.097,5.933c-1.834,1.38-2.771,2.139-2.72,2.208
			c0.052,0.069,1.089-0.556,3.015-1.811c1.926-1.255,4.741-3.141,8.348-5.594c7.214-4.906,17.596-12.081,30.382-21.004
			c24.23-16.903,57.084-40.102,93.465-65.882c-4.407,3.095-8.251,5.795-11.458,8.047c-3.568,2.467-6.343,4.386-8.26,5.712
			c-0.933,0.629-1.651,1.114-2.166,1.461c-0.492,0.324-0.749,0.483-0.76,0.468c-0.011-0.015,0.225-0.203,0.695-0.555
			c0.501-0.366,1.199-0.878,2.107-1.542c1.895-1.354,4.641-3.315,8.168-5.835c7.16-5.036,17.47-12.287,30.205-21.244
			c9.365-6.519,20.035-13.947,31.706-22.071c3.855-2.728,7.643-5.409,11.342-8.027c0.039-0.019,0.078-0.038,0.117-0.057
			c-2.688,1.907-5.326,3.78-7.923,5.622c2.495-1.736,5.035-3.505,7.613-5.299c-14.967,14.288-31.438,30.012-48.745,46.535
			c-34.284,32.679-65.281,62.319-87.589,83.907c-6.762,6.541-12.72,12.335-17.743,17.25h1.701
			c4.912-4.662,10.631-10.123,17.039-16.271c22.408-21.49,53.178-51.354,87.103-84.385c17.165-16.688,33.501-32.568,48.343-46.997
			c-1.876,2.512-3.72,4.982-5.535,7.412c1.911-2.51,3.852-5.061,5.83-7.659c-0.015,0.029-0.03,0.058-0.045,0.086
			c-1.976,2.589-3.984,5.22-6.021,7.889c-9.335,12.501-17.843,23.895-25.221,33.774c-9.296,12.321-16.822,22.296-22.048,29.223
			c-2.615,3.413-4.649,6.068-6.055,7.902c-0.689,0.878-1.219,1.553-1.599,2.037c-0.365,0.456-0.56,0.683-0.575,0.673
			c-0.015-0.011,0.15-0.26,0.486-0.736c0.361-0.498,0.864-1.193,1.517-2.096c1.375-1.854,3.368-4.54,5.928-7.992
			c5.221-6.93,12.739-16.91,22.027-29.237c7.021-9.224,15.04-19.76,23.826-31.303c-10.419,13.652-21.566,28.258-33.173,43.467
			c-27.915,36.518-53.188,69.687-71.656,94.213h1.775c18.498-24.383,43.259-57.401,70.466-93.795
			c14.208-18.976,27.735-37.042,40.034-53.467c-1.326,2.532-2.635,5.032-3.922,7.488c1.387-2.59,2.801-5.229,4.233-7.904
			c0.03-0.04,0.06-0.08,0.09-0.12c-1.573,2.927-3.171,5.903-4.794,8.923c-7.175,13.698-13.706,26.169-19.381,37.003
			c-7.201,13.582-13.03,24.578-17.077,32.213c-2.034,3.768-3.617,6.701-4.71,8.725c-0.539,0.971-0.954,1.719-1.252,2.255
			c-0.288,0.505-0.444,0.76-0.46,0.751c-0.017-0.008,0.106-0.28,0.362-0.801c0.276-0.547,0.661-1.31,1.161-2.301
			c1.06-2.04,2.596-4.996,4.57-8.795c4.042-7.638,9.863-18.637,17.053-32.225c4.868-9.089,10.357-19.338,16.333-30.497
			c-7.468,13.9-15.395,28.655-23.613,43.951c-17.823,33.11-34.255,63.73-47.481,88.594h1.628
			c13.139-24.762,29.185-55.267,46.494-88.273c11.024-20.981,21.518-40.954,31.053-59.1c-6.66,19.32-13.991,40.585-21.692,62.923
			c-10.706,30.973-20.669,59.903-29.044,84.45h1.524c8.265-24.478,17.916-53.33,28.214-84.228c1.522-4.555,3.029-9.063,4.519-13.521
			c-4.764,14.077-8.629,25.499-11.33,33.48c-1.399,4.032-2.488,7.169-3.24,9.336c-0.376,1.041-0.665,1.843-0.872,2.418
			c-0.203,0.543-0.316,0.818-0.334,0.812c-0.018-0.006,0.058-0.293,0.226-0.847c0.184-0.583,0.44-1.395,0.773-2.45
			c0.716-2.178,1.754-5.332,3.087-9.385c2.755-8.162,6.721-19.914,11.622-34.432c4.07-11.856,8.77-25.549,13.941-40.615
			c-4.651,13.979-8.91,26.78-12.654,38.034c5.175-15.485,10.129-30.31,14.759-44.166c0.189-0.551,0.379-1.104,0.569-1.658
			c-3.44,20.065-7.225,42.143-11.201,65.333c-5.125,29.752-9.908,57.687-13.991,81.887h1.431c3.055-18.569,6.43-39.342,10-61.452
			c-0.025,0.154-0.052,0.316-0.077,0.468c-0.728,4.196-1.294,7.461-1.685,9.715c-0.202,1.086-0.357,1.922-0.469,2.522
			c-0.112,0.567-0.179,0.856-0.198,0.853c-0.019-0.003,0.011-0.298,0.087-0.87c0.087-0.603,0.209-1.445,0.367-2.538
			c0.355-2.26,0.869-5.533,1.529-9.74c1.398-8.481,3.412-20.694,5.899-35.781c1.579-9.285,3.343-19.657,5.256-30.902
			c1.113-6.882,2.197-13.578,3.246-20.066c0.019-0.055,0.038-0.11,0.056-0.164c0.003,0.018,0.006,0.036,0.009,0.053
			c-0.001,0.071-0.001,0.14-0.002,0.211c-0.487,3.035-0.967,6.028-1.438,8.966c0.47-2.764,0.948-5.576,1.433-8.427
			c-0.188,20.33-0.396,42.697-0.613,66.189c-0.294,29.33-0.544,56.916-0.706,80.963h1.387c0.061-24.046,0.067-51.631,0.045-80.96
			c0.001-23.408,0.001-45.7,0.002-65.972c0.001-0.098,0.002-0.197,0.002-0.296c0.471,2.889,0.935,5.739,1.391,8.54
			c-0.454-2.965-0.917-5.986-1.387-9.05c0-0.044,0.001-0.087,0.001-0.131c0.005-0.027,0.009-0.054,0.014-0.081
			c0.02,0.06,0.04,0.119,0.06,0.179c0.755,4.969,1.529,10.061,2.32,15.264c2.137,13.119,4.095,25.137,5.823,35.74
			c2.382,15.103,4.31,27.329,5.649,35.819c0.631,4.211,1.123,7.487,1.462,9.75c0.151,1.094,0.267,1.936,0.35,2.54
			c0.072,0.573,0.1,0.868,0.082,0.871c-0.019,0.003-0.084-0.287-0.191-0.855c-0.108-0.6-0.257-1.437-0.451-2.525
			c-0.375-2.257-0.919-5.526-1.618-9.726c-1.29-8.141-3.126-19.724-5.385-33.977c0.661,4.352,1.33,8.75,2.004,13.189
			c4.484,29.67,8.724,57.529,12.459,81.68h1.427c-3.842-24.184-8.344-52.081-13.169-81.786
			c-3.752-23.219-7.324-45.325-10.571-65.417c0.202,0.603,0.404,1.203,0.604,1.802c6.12,18.918,12.822,39.635,19.851,61.364
			c9.937,30.802,19.255,59.58,27.25,84.037h1.508c-8.104-24.524-17.729-53.376-28.066-84.251
			c-7.48-22.402-14.601-43.726-21.07-63.103c9.354,18.23,19.649,38.292,30.464,59.368c16.822,32.847,32.431,63.233,45.258,87.986
			h1.63c-12.161-23.398-27.048-51.801-43.212-82.542c2.613,5.024,4.884,9.389,6.762,12.999c1.946,3.812,3.46,6.777,4.506,8.826
			c0.493,0.994,0.872,1.76,1.145,2.309c0.252,0.523,0.373,0.795,0.356,0.803c-0.017,0.008-0.171-0.247-0.455-0.754
			c-0.294-0.538-0.704-1.289-1.236-2.264c-1.078-2.032-2.64-4.974-4.648-8.756c-3.993-7.662-9.743-18.697-16.847-32.327
			c-5.249-10.197-11.241-21.836-17.802-34.583c-2.048-3.9-4.056-7.727-6.025-11.478c0.026,0.036,0.052,0.071,0.078,0.106
			c1.412,2.681,2.804,5.325,4.171,7.921c-1.266-2.459-2.553-4.96-3.858-7.494c12.134,16.532,25.48,34.715,39.499,53.812
			c26.48,36.135,50.62,68.973,68.796,93.422h1.768c-17.189-23.275-40.186-54.072-65.643-88.052c3.222,4.339,6.031,8.122,8.37,11.272
			c2.536,3.469,4.509,6.168,5.871,8.032c0.647,0.907,1.145,1.605,1.502,2.106c0.333,0.478,0.496,0.729,0.481,0.739
			c-0.015,0.011-0.209-0.219-0.57-0.676c-0.377-0.487-0.902-1.166-1.585-2.048c-1.392-1.843-3.407-4.512-5.998-7.943
			c-5.176-6.961-12.631-16.987-21.839-29.37c-6.697-9.1-14.332-19.474-22.677-30.813c-2.809-3.754-5.569-7.443-8.264-11.046
			c-0.02-0.038-0.04-0.077-0.059-0.115c1.965,2.62,3.895,5.192,5.793,7.723c-1.79-2.432-3.609-4.904-5.459-7.418
			c14.691,14.554,30.86,30.572,47.848,47.403c33.602,33.34,64.081,63.486,86.279,85.18c5.73,5.602,10.901,10.636,15.434,15.026
			h1.727c-4.666-4.646-10.083-10.011-16.154-15.995c-22.097-21.792-52.806-51.715-86.77-84.707
			c-17.16-16.694-33.491-32.581-48.328-47.015c2.589,1.828,5.133,3.625,7.637,5.394c-2.585-1.861-5.212-3.753-7.888-5.679
			c0.029,0.014,0.058,0.029,0.087,0.043c2.659,1.919,5.36,3.869,8.101,5.847c12.862,9.084,24.584,17.364,34.748,24.543
			c12.672,9.043,22.93,16.363,30.054,21.447c3.51,2.544,6.241,4.523,8.127,5.889c0.903,0.67,1.598,1.186,2.096,1.555
			c0.468,0.355,0.702,0.545,0.691,0.56c-0.011,0.015-0.267-0.146-0.757-0.473c-0.512-0.35-1.227-0.84-2.156-1.476
			c-1.907-1.338-4.669-3.276-8.219-5.767c-7.127-5.079-17.391-12.392-30.069-21.427c-9.527-6.859-20.417-14.699-32.349-23.289
			c14.085,10.167,29.159,21.048,44.859,32.381c38.529,27.856,73.46,53.027,98.86,71.102c12.698,9.04,23.01,16.31,30.176,21.282
			c3.583,2.486,6.379,4.398,8.293,5.671c1.914,1.273,2.945,1.907,2.997,1.839c0.052-0.069-0.878-0.837-2.698-2.233
			c-1.82-1.397-4.53-3.422-8.039-6.007c-7.017-5.169-17.228-12.573-29.888-21.663c-25.316-18.186-60.44-43.103-99.272-70.559
			c-19.515-13.821-38.095-26.979-54.987-38.941c2.606,1.291,5.177,2.566,7.705,3.818c-2.666-1.35-5.38-2.726-8.133-4.121
			c-0.042-0.03-0.083-0.059-0.125-0.089c3.026,1.538,6.102,3.102,9.224,4.688c14.072,6.973,26.884,13.321,38.015,18.837
			c13.971,7.007,25.28,12.679,33.133,16.618c3.876,1.979,6.892,3.519,8.974,4.583c0.999,0.525,1.769,0.929,2.32,1.218
			c0.52,0.28,0.782,0.432,0.773,0.448c-0.009,0.016-0.288-0.103-0.824-0.352c-0.562-0.269-1.347-0.643-2.367-1.13
			c-2.098-1.032-5.139-2.526-9.046-4.447c-7.856-3.933-19.17-9.598-33.146-16.594c-9.228-4.676-19.619-9.941-30.925-15.67
			c14.168,7.201,29.194,14.838,44.765,22.752c42.536,21.66,81.086,41.216,109.08,55.21c13.996,7,25.35,12.614,33.228,16.437
			c3.938,1.911,7.008,3.375,9.103,4.342c2.095,0.967,3.215,1.437,3.255,1.361c0.04-0.075-1.002-0.693-3.024-1.796
			c-2.022-1.103-5.026-2.691-8.907-4.711c-7.762-4.039-19.038-9.8-33.005-16.856c-27.93-14.116-66.63-33.391-109.4-54.61
			c-21.581-10.728-42.125-20.939-60.791-30.218c19.875,6.485,41.75,13.623,64.73,21.122c45.511,14.89,86.746,28.309,116.658,37.847
			c14.955,4.772,27.077,8.579,35.477,11.147c4.199,1.284,7.468,2.259,9.694,2.892c2.226,0.633,3.409,0.924,3.437,0.842
			c0.028-0.082-1.101-0.534-3.276-1.315c-2.175-0.781-5.398-1.892-9.557-3.293c-8.319-2.804-20.387-6.77-35.322-11.602
			c-29.867-9.67-71.206-22.783-116.88-37.193c-4.823-1.526-9.594-3.035-14.312-4.527c14.666,4.699,26.556,8.508,34.842,11.162
			c4.148,1.362,7.375,2.423,9.604,3.155c1.071,0.366,1.896,0.647,2.488,0.849c0.558,0.197,0.841,0.307,0.835,0.325
			c-0.006,0.018-0.301-0.057-0.871-0.221c-0.599-0.179-1.435-0.429-2.52-0.753c-2.241-0.698-5.485-1.708-9.654-3.006
			c-8.396-2.683-20.486-6.546-35.42-11.318c-12.198-3.964-26.286-8.541-41.786-13.578c14.852,4.678,28.404,8.946,40.253,12.679
			c-16.377-5.181-32.046-10.138-46.665-14.762c-0.531-0.172-1.064-0.346-1.598-0.519c20.645,3.356,43.36,7.049,67.22,10.928
			c47.356,7.735,90.251,14.674,121.336,19.515c15.541,2.423,28.129,4.328,36.839,5.58c4.355,0.626,7.741,1.089,10.041,1.374
			c2.3,0.285,3.516,0.393,3.53,0.308c0.014-0.085-1.173-0.357-3.448-0.794C483.387,286.788,480.025,286.185,475.69,285.438z
			 M249.236,250.006c-0.003-0.002-0.007-0.004-0.011-0.005c0.002-0.001,0.004-0.002,0.006-0.003c0.01,0.002,0.02,0.003,0.03,0.005
			C249.253,250.003,249.245,250.005,249.236,250.006z M249.568,249.958c-0.006,0.001-0.013,0.002-0.019,0.003
			c-0.006-0.001-0.011-0.002-0.017-0.003C249.544,249.958,249.556,249.958,249.568,249.958z M313.498,187.613
			c3.133-2.972,5.571-5.285,7.254-6.882c0.822-0.762,1.454-1.348,1.908-1.769c0.434-0.394,0.663-0.59,0.677-0.577
			c0.014,0.013-0.19,0.234-0.599,0.653c-0.436,0.437-1.045,1.047-1.836,1.839c-1.658,1.622-4.059,3.971-7.145,6.99
			c-6.274,6.049-15.31,14.759-26.471,25.519c-9.001,8.593-19.388,18.509-30.787,29.391c11.296-10.982,21.591-20.989,30.511-29.661
			C298.177,202.362,307.219,193.658,313.498,187.613z M265.618,200.379c4.931-14.508,8.923-26.252,11.695-34.408
			c1.404-4.03,2.497-7.166,3.252-9.332c0.377-1.041,0.667-1.842,0.876-2.417c0.203-0.542,0.317-0.818,0.335-0.812
			c0.018,0.006-0.059,0.292-0.228,0.846c-0.185,0.582-0.442,1.395-0.777,2.449c-0.719,2.177-1.761,5.329-3.099,9.381
			c-2.766,8.158-6.748,19.906-11.668,34.417c-4.086,11.853-8.806,25.544-13.998,40.607
			C257.056,226.001,261.645,212.268,265.618,200.379z M249.226,161.562c0.053-4.255,0.093-7.566,0.121-9.852
			c0.027-1.104,0.047-1.953,0.061-2.562c0.02-0.577,0.04-0.873,0.058-0.873c0.019,0,0.035,0.296,0.05,0.873
			c0.009,0.609,0.021,1.459,0.038,2.562c0.007,2.286,0.017,5.597,0.03,9.852c-0.037,8.589-0.091,20.958-0.158,36.237
			c-0.111,12.023-0.239,25.843-0.38,41.014c0-15.171,0.001-28.992,0.001-41.015C249.122,182.52,249.183,170.151,249.226,161.562z
			 M184.849,187.278c-3.056-3.047-5.435-5.418-7.077-7.055c-0.783-0.799-1.386-1.414-1.819-1.855
			c-0.405-0.422-0.606-0.645-0.593-0.658c0.013-0.013,0.24,0.185,0.671,0.583c0.449,0.425,1.076,1.017,1.891,1.786
			c1.668,1.612,4.083,3.947,7.187,6.948c6.219,6.102,15.176,14.889,26.24,25.743c8.838,8.756,19.038,18.861,30.231,29.949
			c-11.296-10.989-21.59-21.004-30.51-29.681C200.015,202.177,191.064,193.384,184.849,187.278z M197.954,233.818
			c-14.924-4.802-27.006-8.689-35.396-11.388c-4.146-1.368-7.372-2.432-9.6-3.167c-1.071-0.367-1.895-0.65-2.487-0.852
			c-0.558-0.198-0.841-0.309-0.835-0.326c0.006-0.018,0.301,0.058,0.87,0.222c0.599,0.18,1.435,0.431,2.519,0.756
			c2.24,0.701,5.483,1.715,9.65,3.019c8.392,2.693,20.477,6.571,35.405,11.361c12.189,3.977,26.266,8.571,41.753,13.624
			C224.3,242.153,210.18,237.686,197.954,233.818z M248.766,249.996c0.003,0.002,0.007,0.003,0.01,0.005
			c-0.002,0.001-0.004,0.002-0.005,0.003c-0.009-0.001-0.019-0.003-0.028-0.004C248.751,249.998,248.758,249.997,248.766,249.996z
			 M162.443,277.228c-4.178,1.271-7.43,2.26-9.675,2.942c-1.088,0.317-1.925,0.561-2.525,0.736c-0.571,0.16-0.867,0.233-0.872,0.215
			c-0.006-0.018,0.278-0.126,0.837-0.319c0.593-0.198,1.42-0.474,2.494-0.832c2.234-0.717,5.469-1.756,9.626-3.09
			c8.412-2.633,20.526-6.423,35.49-11.107c12.261-3.772,26.422-8.128,42.002-12.92c-15.534,4.932-29.653,9.414-41.878,13.295
			C182.974,270.82,170.857,274.602,162.443,277.228z M184.584,312.467c-3.129,2.976-5.564,5.292-7.245,6.891
			c-0.82,0.763-1.453,1.35-1.906,1.771c-0.434,0.395-0.663,0.59-0.676,0.577c-0.013-0.013,0.19-0.234,0.599-0.653
			c0.436-0.438,1.044-1.048,1.834-1.841c1.655-1.624,4.053-3.976,7.135-6.998c6.267-6.056,15.291-14.778,26.438-25.552
			c8.989-8.603,19.361-18.53,30.744-29.424c-11.28,10.994-21.56,21.013-30.467,29.694
			C199.886,297.699,190.855,306.415,184.584,312.467z M249.02,302.203c-0.056,15.279-0.101,27.648-0.132,36.237
			c-0.047,4.255-0.084,7.566-0.109,9.852c-0.025,1.104-0.044,1.953-0.058,2.562c-0.019,0.577-0.038,0.873-0.057,0.873
			c-0.018,0-0.036-0.296-0.051-0.873c-0.009-0.609-0.023-1.459-0.041-2.562c-0.01-2.286-0.024-5.597-0.043-9.852
			c0.026-8.589,0.064-20.958,0.111-36.237c0.096-12.027,0.206-25.853,0.327-41.03C248.987,276.349,249.005,290.176,249.02,302.203z
			 M276.959,334.143c1.305,4.062,2.32,7.222,3.021,9.405c0.325,1.057,0.576,1.871,0.756,2.455c0.164,0.555,0.239,0.842,0.221,0.848
			c-0.018,0.006-0.129-0.27-0.328-0.815c-0.203-0.576-0.487-1.38-0.855-2.424c-0.736-2.172-1.802-5.316-3.173-9.357
			c-2.703-8.178-6.596-19.954-11.405-34.5c-3.872-11.916-8.344-25.678-13.264-40.819c5.063,15.096,9.664,28.818,13.649,40.699
			C270.379,314.185,274.263,325.964,276.959,334.143z M313.233,312.646c3.06,3.043,5.441,5.411,7.085,7.046
			c0.784,0.798,1.388,1.413,1.821,1.853c0.406,0.422,0.607,0.644,0.594,0.657c-0.013,0.013-0.241-0.184-0.672-0.582
			c-0.45-0.424-1.078-1.016-1.893-1.784c-1.67-1.61-4.088-3.943-7.196-6.94c-6.228-6.094-15.196-14.871-26.274-25.712
			c-8.846-8.742-19.055-18.83-30.258-29.901c11.306,10.971,21.608,20.969,30.536,29.632
			C298.047,297.766,307.009,306.548,313.233,312.646z"/>
		<path style="fill:#EBEBEB;" d="M250.069,250.045c0.051,0.008,0.102,0.016,0.153,0.025c20.917,0.196,43.929,0.411,68.099,0.637
			c48.018,0.484,91.501,0.855,122.982,0.943c15.74,0.047,28.479,0.028,37.284-0.049c4.402-0.038,7.821-0.091,10.139-0.155
			c2.318-0.064,3.536-0.141,3.536-0.225c0-0.084-1.217-0.172-3.534-0.26c-2.317-0.087-5.735-0.174-10.137-0.257
			c-8.803-0.165-21.542-0.311-37.282-0.42c-31.48-0.226-74.965-0.288-122.986-0.283c-23.99-0.015-46.84-0.029-67.632-0.042
			c3.326,0.027,6.594,0.054,9.805,0.08C257.087,250.041,253.61,250.043,250.069,250.045z"/>
		<path style="fill:#EBEBEB;" d="M238.193,316.563c-1.107,6.88-2.2,13.66-3.276,20.322c1.401-8.459,3.395-20.494,5.848-35.309
			c1.967-12.26,4.236-26.406,6.732-41.965c-0.638,3.753-1.262,7.42-1.871,11.001C243.265,285.211,240.772,300.625,238.193,316.563z"
			/>
		<path style="fill:#EBEBEB;" d="M248.54,250.054c-0.017-0.003-0.033-0.005-0.05-0.008c-0.023,0-0.045,0-0.068,0
			c-0.015,0.002-0.03,0.004-0.045,0.007C248.432,250.053,248.486,250.053,248.54,250.054z"/>
		<path style="fill:#EBEBEB;" d="M247.727,250.046c0.045,0,0.09,0.001,0.134,0.001c0.003,0,0.006-0.001,0.009-0.001
			C247.822,250.046,247.775,250.046,247.727,250.046z"/>
		<path style="fill:#EBEBEB;" d="M250.439,259.649c2.386,15.564,4.555,29.716,6.435,41.981c0.098,0.62,0.195,1.228,0.291,1.838
			c-1.979-13.022-3.894-25.622-5.72-37.637C251.115,263.796,250.78,261.737,250.439,259.649z"/>
		<path style="fill:#EBEBEB;" d="M194.499,241.669c0.483,0.077,0.961,0.152,1.45,0.23c12.618,1.936,27.178,4.17,43.191,6.627
			c-2.068-0.336-4.106-0.667-6.124-0.995C220.722,245.659,207.827,243.697,194.499,241.669z"/>
		<path style="fill:#EBEBEB;" d="M244.402,258.563c-1.313,2.451-2.602,4.858-3.871,7.228c1.145-2.131,2.278-4.24,3.401-6.33
			C244.088,259.161,244.244,258.865,244.402,258.563z"/>
		<path style="fill:#EBEBEB;" d="M247.861,250.047c-2.973,0.46-5.906,0.913-8.788,1.358c3.048-0.443,6.154-0.895,9.304-1.353
			C248.206,250.051,248.033,250.049,247.861,250.047z"/>
		<path style="fill:#EBEBEB;" d="M187.251,280.657c-2.091,1.04-4.169,2.074-6.24,3.104c5.88-2.894,12.653-6.227,20.208-9.945
			c11.38-5.669,24.512-12.212,38.958-19.408c-1.228,0.598-2.445,1.19-3.654,1.779C221.045,263.874,204.479,272.101,187.251,280.657z
			"/>
		<path style="fill:#EBEBEB;" d="M242.828,258.096c-0.649,0.852-1.309,1.719-1.949,2.561c0.571-0.749,1.146-1.502,1.713-2.245
			C242.67,258.307,242.75,258.201,242.828,258.096z"/>
		<path style="fill:#EBEBEB;" d="M239.073,251.406c-16.012,2.329-30.571,4.446-43.19,6.282c-0.587,0.088-1.162,0.175-1.74,0.262
			c13.356-1.926,26.28-3.789,38.604-5.566C234.831,252.061,236.937,251.736,239.073,251.406z"/>
		<path style="fill:#EBEBEB;" d="M236.042,243.448c1.37,0.681,2.748,1.366,4.143,2.059c-14.372-7.305-27.439-13.947-38.763-19.702
			c-7.923-3.979-14.987-7.527-21.053-10.573c2.368,1.201,4.747,2.409,7.141,3.624C204.469,227.449,220.781,235.715,236.042,243.448z
			"/>
		<path style="fill:#EBEBEB;" d="M257.338,256.014c0.82,0.59,1.655,1.191,2.466,1.775c-0.722-0.521-1.449-1.046-2.166-1.564
			C257.538,256.155,257.438,256.084,257.338,256.014z"/>
		<path style="fill:#EBEBEB;" d="M257.811,254.478c2.672,1.354,5.294,2.683,7.874,3.99c-2.326-1.182-4.629-2.353-6.907-3.511
			C258.455,254.797,258.136,254.639,257.811,254.478z"/>
		<path style="fill:#EBEBEB;" d="M245.756,229.095c0.591,3.659,1.197,7.407,1.817,11.245c-2.365-15.563-4.516-29.714-6.379-41.979
			c-2.353-14.97-4.26-27.109-5.593-35.59c1.032,6.746,2.081,13.615,3.144,20.585C241.175,199.217,243.527,214.559,245.756,229.095z"
			/>
		<path style="fill:#EBEBEB;" d="M257.526,197.101c-0.074,0.445-0.148,0.885-0.223,1.335c-1.984,12.261-4.272,26.41-6.79,41.971
			c0.344-2.005,0.683-3.982,1.018-5.939C253.445,222.539,255.452,210.029,257.526,197.101z"/>
		<path style="fill:#EBEBEB;" d="M257.476,238.851c-0.755,1.008-1.526,2.037-2.292,3.061c9.562-12.529,18.274-23.944,25.819-33.831
			c4.926-6.521,9.349-12.376,13.202-17.478c-1.323,1.736-2.646,3.471-3.981,5.223C278.774,210.871,267.772,225.325,257.476,238.851z
			"/>
		<path style="fill:#EBEBEB;" d="M255.733,237.406c-0.7,1.332-1.404,2.672-2.116,4.028c7.508-13.975,14.334-26.68,20.249-37.689
			c4.135-7.789,7.815-14.722,10.969-20.663c-1.269,2.366-2.545,4.744-3.829,7.137C272.175,206.707,263.68,222.568,255.733,237.406z"
			/>
		<path style="fill:#EBEBEB;" d="M289.766,304.502c1.453,1.939,2.895,3.863,4.333,5.783c-3.901-5.254-8.41-11.327-13.449-18.113
			c-7.46-9.944-16.073-21.425-25.526-34.026c0.848,1.153,1.696,2.305,2.53,3.438C267.757,275.086,278.544,289.503,289.766,304.502z"
			/>
		<path style="fill:#EBEBEB;" d="M237.573,241.784c1.017,0.72,2.056,1.456,3.088,2.187c-12.877-9.295-24.61-17.764-34.772-25.099
			c-6.604-4.719-12.545-8.963-17.735-12.671c1.706,1.23,3.411,2.459,5.133,3.7C208.772,221.05,223.651,231.761,237.573,241.784z"/>
		<path style="fill:#EBEBEB;" d="M242.24,237.143c0.74,1.41,1.485,2.829,2.24,4.267c-0.09-0.175-0.178-0.346-0.267-0.521
			C243.56,239.648,242.902,238.399,242.24,237.143z"/>
		<path style="fill:#EBEBEB;" d="M239.159,236.865c1.228,1.642,2.472,3.303,3.731,4.986c-0.149-0.203-0.299-0.408-0.448-0.61
			C241.355,239.792,240.263,238.336,239.159,236.865z"/>
		<path style="fill:#EBEBEB;" d="M280.505,310.034c1.015,1.93,2.024,3.848,3.029,5.761c-2.937-5.646-6.307-12.125-10.061-19.34
			c-5.824-11.059-12.544-23.821-19.936-37.858c0.597,1.159,1.188,2.308,1.776,3.45C263.226,277.119,271.696,293.254,280.505,310.034
			z"/>
	</g>
	<g>
		<path style="fill:#EBEBEB;" d="M375.363,50.188c-0.415,1.068-33.922,48.575,9.682,74.73s70.695-14.322,70.695-14.322
			L375.363,50.188z"/>
		<path style="fill:#F5F5F5;" d="M451.575,107.543l-71.394-53.656c0,0.001-26.592,46.384,9.774,67.141
			C426.32,141.784,451.575,107.543,451.575,107.543z"/>
		<path style="fill:#EBEBEB;" d="M442.337,110.193c0.336-2.091-1.234-3.962-2.716-5.475c-6.841-6.984-14.213-13.448-22.03-19.318
			l-0.893,0.741c-0.167,8.69,1.097,17.406,3.726,25.69c0.834,2.627,2.062,5.491,4.618,6.523c1.902,0.768,4.067,0.301,6.014-0.347
			c2.835-0.945,5.548-2.258,8.048-3.895C440.565,113.155,442.061,111.916,442.337,110.193z"/>
		<path style="fill:#EBEBEB;" d="M416.165,121.222c1.518-1.477,1.377-3.915,1.092-6.013c-1.316-9.687-3.367-19.274-6.13-28.652
			l-1.159,0.061c-5.324,6.87-9.516,14.615-12.356,22.829c-0.901,2.605-1.626,5.636-0.192,7.99c1.067,1.752,3.082,2.671,5.03,3.313
			c2.838,0.936,5.798,1.504,8.781,1.684C412.975,122.539,414.914,122.439,416.165,121.222z"/>
		<path style="fill:#EBEBEB;" d="M387.488,110.45c2.118,0.008,3.723-1.832,4.989-3.531c5.84-7.84,11.085-16.124,15.674-24.756
			l-0.87-0.768c-8.611,1.181-17.026,3.779-24.803,7.659c-2.467,1.231-5.106,2.888-5.729,5.573c-0.464,1.998,0.332,4.064,1.275,5.887
			c1.372,2.655,3.089,5.132,5.094,7.348C384.288,109.157,385.743,110.443,387.488,110.45z"/>
		<path style="fill:#EBEBEB;" d="M408.08,78.359c-5.132-5.457-11.148-10.36-18.2-13.887c-2.237-1.119-4.922-2.145-7.527-1.244
			c-1.939,0.671-3.333,2.26-4.449,3.83c-1.625,2.287-1.697,5.029-1.967,7.935c-0.145,1.561,0.757,3.438,1.586,4.667
			c1.006,1.491,3.779,1.414,5.844,1.456c9.529,0.192,14.859-0.681,24.47-1.762L408.08,78.359z"/>
		<g style="opacity:0.3;">
			<path style="fill:#FFFFFF;" d="M405.785,111.41c-0.142-0.02,0.075-2.445,0.486-5.416c0.27-1.951,0.556-3.652,0.758-4.57
				l0.269,0.016c-0.029,0.515-0.069,0.803-0.118,0.804c-0.049,0.001-0.102-0.285-0.151-0.799l0.268,0.016
				c-0.054,0.938-0.24,2.653-0.51,4.604C406.376,109.037,405.927,111.43,405.785,111.41z"/>
		</g>
		<g style="opacity:0.3;">
			<path style="fill:#FFFFFF;" d="M408.575,110.186c-0.143-0.016-0.004-2.29,0.309-5.078c0.314-2.789,0.684-5.037,0.827-5.021
				c0.143,0.016,0.004,2.289-0.309,5.079C409.088,107.954,408.717,110.202,408.575,110.186z"/>
		</g>
		<g style="opacity:0.3;">
			<path style="fill:#FFFFFF;" d="M425.802,108.601c-0.137,0.045-0.678-1.215-1.209-2.815c-0.531-1.6-0.851-2.934-0.714-2.979
				c0.137-0.045,0.677,1.215,1.208,2.815C425.619,107.222,425.938,108.556,425.802,108.601z"/>
		</g>
		<g style="opacity:0.3;">
			<path style="fill:#FFFFFF;" d="M433.061,109.69c-0.116,0.085-1.72-1.907-3.581-4.448c-1.862-2.542-3.277-4.671-3.161-4.756
				c0.116-0.085,1.719,1.906,3.581,4.449C431.762,107.475,433.177,109.605,433.061,109.69z"/>
		</g>
		<g style="opacity:0.3;">
			<path style="fill:#FFFFFF;" d="M389.069,94.053c-0.08-0.125,0.992-0.943,2.26-2.003c1.272-1.056,2.27-1.963,2.378-1.861
				c0.103,0.094-0.744,1.181-2.045,2.262C390.365,93.534,389.142,94.172,389.069,94.053z"/>
		</g>
		<g style="opacity:0.3;">
			<path style="fill:#FFFFFF;" d="M389.953,98.584c-0.099-0.104,1.767-2.037,4.168-4.317c2.401-2.281,4.428-4.044,4.527-3.94
				c0.099,0.104-1.767,2.037-4.168,4.317C392.079,96.924,390.052,98.688,389.953,98.584z"/>
		</g>
		<g style="opacity:0.3;">
			<path style="fill:#FFFFFF;" d="M394.282,76.804c-0.043,0.137-1.392-0.164-3.013-0.674c-1.621-0.509-2.9-1.033-2.857-1.171
				c0.043-0.137,1.392,0.164,3.013,0.674C393.046,76.143,394.325,76.667,394.282,76.804z"/>
		</g>
		<g style="opacity:0.3;">
			<path style="fill:#FFFFFF;" d="M393.488,73.194c-0.066,0.135-1.629-0.524-3.607-1.168c-1.976-0.652-3.625-1.044-3.599-1.192
				c0.02-0.136,1.743,0.032,3.761,0.697C392.063,72.189,393.552,73.073,393.488,73.194z"/>
		</g>
		<g style="opacity:0.3;">
			<path style="fill:#FFFFFF;" d="M394.076,69.427c-0.059,0.131-1.279-0.284-2.725-0.927c-1.447-0.644-2.572-1.271-2.513-1.403
				c0.058-0.131,1.278,0.284,2.725,0.927C393.009,68.667,394.134,69.295,394.076,69.427z"/>
		</g>
	</g>
</g>
<g id="Background_Simple" style="display:none;">
	<path style="display:inline;fill:#F5F5F5;" d="M457.511,182.934l-1.193,1.38c-10.06,11.635-25.607,17.045-40.445,13.56
		c-1.907-0.448-3.783-1.034-5.608-1.759c-13.142-5.225-23.264-17.543-25.948-31.581c-1.579-8.256-0.875-17.335-5.321-24.428
		c-5.787-9.231-17.872-11.534-28.59-13.005s-22.807-3.807-28.553-13.064c-3.599-5.798-3.801-13.211-2.299-19.906
		c3.975-17.726,19.144-31.611,36.339-36.88c17.195-5.269,35.978-2.825,52.734,3.606c23.474,9.009,44.309,26.37,54.687,49.499
		C473.691,133.482,472.419,162.386,457.511,182.934z"/>
	
		<ellipse transform="matrix(0.1619 -0.9868 0.9868 0.1619 154.4375 325.7438)" style="display:inline;fill:#F5F5F5;" cx="268.98" cy="71.956" rx="33.161" ry="33.161"/>
	
		<ellipse transform="matrix(0.7071 -0.7071 0.7071 0.7071 -59.4481 377.3947)" style="display:inline;fill:#F5F5F5;" cx="425.832" cy="260.458" rx="27.27" ry="27.27"/>
	
		<ellipse transform="matrix(0.74 -0.6726 0.6726 0.74 -195.7842 129.296)" style="display:inline;fill:#F5F5F5;" cx="69.338" cy="317.873" rx="27.27" ry="27.27"/>
</g>
<g id="Floor">
	<g>
		<path style="fill:#263238;" d="M485.62,398.337c0,0.144-102.004,0.26-227.802,0.26c-125.842,0-227.824-0.117-227.824-0.26
			c0-0.144,101.982-0.26,227.824-0.26C383.616,398.076,485.62,398.193,485.62,398.337z"/>
	</g>
</g>
<g id="Orange">
	<g>
		<g>
			<path style="fill:#FF725E;" d="M372.716,309.188c-16.145,8.441-23.489,17.729-32.494,31.27
				c-9.005,13.541-14.169,30.192-11.486,46.231c3.863,23.097,24.005,41.471,46.73,47.125c22.726,5.653,55.267,1.759,72.512-14.552
				L372.716,309.188z"/>
		</g>
		<g style="opacity:0.3;">
			<g>
				<path d="M372.716,309.188c-16.145,8.441-23.489,17.729-32.494,31.27c-9.005,13.541-14.169,30.192-11.486,46.231
					c3.863,23.097,24.005,41.471,46.73,47.125c22.726,5.653,55.267,1.759,72.512-14.552L372.716,309.188z"/>
			</g>
		</g>
		<g>
			<g>
				<g>
					<path style="fill:#FF725E;" d="M451.683,331.73c-43.514-52.542-85.536-18.389-85.536-18.389l0,0
						c-11.155,9.498-41.433,40.869-8.578,88.618c38.709,56.256,85.2,22.069,85.2,22.069
						C443.539,422.988,495.197,384.272,451.683,331.73z"/>
				</g>
				<g style="opacity:0.6;">
					<path style="fill:#FFFFFF;" d="M444.943,333.812c-25.616-29.824-51.607-24.524-64.883-18.67
						c-5.645,2.489-10.502,6.337-14.353,11.223c-11.014,13.972-26.504,42.701-1.292,73.773
						c15.176,18.704,31.122,24.661,44.39,25.363c18.058,0.954,33.639-8.05,42.249-23.313
						C460.067,386.211,467.602,360.195,444.943,333.812z"/>
				</g>
				<g>
					<path style="fill:#FF725E;" d="M427.987,416.069c1.031-2.228-0.196-5.235-1.434-7.782
						c-5.593-11.513-10.693-22.727-17.642-33.521c-0.283-0.44-0.736-0.746-1.249-0.848l0,0c-1-0.199-1.982,0.413-2.243,1.398
						c-2.523,9.523-3.573,20.42-3.134,30.754c0.148,3.48,0.677,7.446,3.298,10.021c1.951,1.917,4.584,2.553,7.022,2.861
						c3.552,0.45,7.076,0.408,10.456-0.122C425.035,418.52,427.138,417.904,427.987,416.069z"/>
				</g>
				<g>
					<path style="fill:#FF725E;" d="M394.754,414.581c2.202-0.878,2.791-3.764,3.111-6.337c1.425-11.47,4.099-23.581,4.023-35.481
						c-0.005-0.773-0.458-1.473-1.155-1.809l0,0c-0.629-0.303-1.371-0.269-1.962,0.104c-7.948,5.017-16.141,12.272-21.718,19.892
						c-1.839,2.513-3.608,5.612-2.685,9.102c0.687,2.598,2.72,4.749,4.762,6.546c2.975,2.618,6.203,4.877,9.578,6.703
						C390.679,414.367,392.94,415.304,394.754,414.581z"/>
				</g>
				<g>
					<path style="fill:#FF725E;" d="M364.841,386.612c2.433,1.158,4.847-0.091,6.825-1.362c8.826-5.669,16.728-9.177,24.415-16.137
						c0.511-0.462,0.773-1.14,0.724-1.827l0,0c-0.066-0.921-0.684-1.71-1.563-1.993c-9.811-3.16-19.902-6.292-29.563-6.052
						c-3.216,0.08-6.762,0.558-8.307,3.314c-1.15,2.051-0.871,4.864-0.351,7.475c0.759,3.804,1.969,7.589,3.591,11.23
						C361.56,383.387,362.837,385.659,364.841,386.612z"/>
				</g>
				<g>
					<path style="fill:#FF725E;" d="M397.654,362.499c0.722-0.562,0.963-1.552,0.566-2.377c-4.161-8.652-9.789-17.71-16.446-25.189
						c-2.227-2.502-4.998-5.142-8.272-5.517c-2.436-0.279-4.53,0.796-6.297,2c-2.574,1.754-3.503,4.875-4.71,8.076
						c-0.648,1.72-0.19,4.373,0.384,6.237c0.697,2.264,3.909,3.68,6.27,4.847c10.567,5.227,15.945,8.414,26.642,12.22
						C396.424,363.021,397.126,362.91,397.654,362.499L397.654,362.499z"/>
				</g>
				<g style="opacity:0.3;">
					<g>
						<path style="fill:#FFFFFF;" d="M385.583,397.645c-0.132-0.084,0.886-2.747,2.275-5.948c0.912-2.102,1.757-3.913,2.259-4.868
							l0.256,0.138c-0.185,0.581-0.311,0.895-0.359,0.873c-0.048-0.022-0.011-0.375,0.097-0.991l0.255,0.138
							c-0.364,1.043-1.116,2.913-2.028,5.014C386.949,395.201,385.716,397.729,385.583,397.645z"/>
					</g>
				</g>
				<g style="opacity:0.3;">
					<g>
						<path style="fill:#FFFFFF;" d="M389.168,397.747c-0.134-0.081,0.747-2.613,1.968-5.656c1.221-3.044,2.319-5.445,2.453-5.364
							c0.134,0.081-0.747,2.613-1.968,5.656C390.4,395.426,389.302,397.827,389.168,397.747z"/>
					</g>
				</g>
				<g style="opacity:0.3;">
					<g>
						<path style="fill:#FFFFFF;" d="M409.465,405.265c-0.144-0.018-0.355-1.761-0.472-3.892c-0.117-2.132-0.096-3.845,0.048-3.826
							c0.144,0.018,0.354,1.761,0.472,3.893C409.631,403.57,409.609,405.284,409.465,405.265z"/>
					</g>
				</g>
				<g style="opacity:0.3;">
					<g>
						<path style="fill:#FFFFFF;" d="M417.476,410.457c-0.134,0.03-1.342-3.14-2.699-7.078c-1.357-3.939-2.348-7.155-2.214-7.185
							c0.134-0.03,1.342,3.139,2.699,7.078C416.619,407.211,417.61,410.427,417.476,410.457z"/>
					</g>
				</g>
				<g style="opacity:0.3;">
					<g>
						<path style="fill:#FFFFFF;" d="M371.716,368.577c-0.046-0.158,1.449-0.496,3.238-1.03c1.792-0.528,3.21-1.055,3.288-0.906
							c0.075,0.137-1.244,0.907-3.07,1.445C373.349,368.63,371.756,368.724,371.716,368.577z"/>
					</g>
				</g>
				<g style="opacity:0.3;">
					<g>
						<path style="fill:#FFFFFF;" d="M371.336,374.277c-0.069-0.146,2.684-1.339,6.148-2.663c3.465-1.325,6.328-2.281,6.397-2.135
							c0.069,0.146-2.684,1.338-6.148,2.663C374.268,373.468,371.404,374.423,371.336,374.277z"/>
					</g>
				</g>
				<g style="opacity:0.3;">
					<g>
						<path style="fill:#FFFFFF;" d="M383.031,351.529c-0.077,0.113-1.523-0.984-3.229-2.449c-1.707-1.466-3.027-2.746-2.95-2.859
							c0.077-0.113,1.523,0.983,3.23,2.449C381.787,350.136,383.108,351.416,383.031,351.529z"/>
					</g>
				</g>
				<g style="opacity:0.3;">
					<g>
						<path style="fill:#FFFFFF;" d="M383.232,346.94c-0.1,0.101-1.681-1.523-3.76-3.34c-2.074-1.826-3.862-3.155-3.797-3.287
							c0.054-0.122,1.97,1.024,4.082,2.882C381.873,345.044,383.325,346.852,383.232,346.94z"/>
					</g>
				</g>
				<g style="opacity:0.3;">
					<g>
						<path style="fill:#FFFFFF;" d="M385.07,342.917c-0.091,0.1-1.351-1.055-2.815-2.581c-1.465-1.526-2.579-2.844-2.488-2.945
							c0.09-0.101,1.351,1.055,2.816,2.581C384.046,341.498,385.16,342.817,385.07,342.917z"/>
					</g>
				</g>
				<g style="opacity:0.3;">
					<g>
						<path d="M347.02,354.276c0.161,0.509,0.868,0.38,0.707-0.13C347.566,353.636,346.858,353.765,347.02,354.276L347.02,354.276z"
							/>
					</g>
				</g>
				<g style="opacity:0.3;">
					<g>
						<path d="M346.188,347.148c0.161,0.51,0.868,0.381,0.707-0.13C346.734,346.509,346.026,346.638,346.188,347.148
							L346.188,347.148z"/>
					</g>
				</g>
				<g style="opacity:0.3;">
					<g>
						<path d="M352.109,343.263c0.161,0.509,0.869,0.381,0.707-0.13C352.655,342.624,351.948,342.753,352.109,343.263
							L352.109,343.263z"/>
					</g>
				</g>
				<g style="opacity:0.3;">
					<g>
						<path d="M350.137,337.092c0.161,0.509,0.868,0.381,0.707-0.13C350.683,336.453,349.976,336.582,350.137,337.092
							L350.137,337.092z"/>
					</g>
				</g>
				<g style="opacity:0.3;">
					<g>
						<path d="M348.601,380.763c0.161,0.51,0.868,0.381,0.707-0.13C349.147,380.124,348.44,380.254,348.601,380.763L348.601,380.763
							z"/>
					</g>
				</g>
			</g>
			<g>
				<path style="fill:#FF725E;" d="M407.132,329.236c-0.259-3.493-0.911-7.462-3.597-9.955c-1.999-1.855-4.635-2.399-7.066-2.62
					c-3.543-0.322-7.042-0.151-10.383,0.506c-1.951,0.384-4.02,1.08-4.805,2.956c-0.953,2.277,0.363,5.257,1.673,7.772
					c5.69,10.92,12.05,21.977,19.036,32.305c0.555,0.82,1.533,1.245,2.512,1.102l0,0c1.074-0.158,1.941-0.969,2.156-2.033
					C408.586,349.739,407.886,339.422,407.132,329.236z"/>
				<g>
					<path style="fill:#FF725E;" d="M414.99,319.197c-2.159,0.963-2.652,3.887-2.887,6.485c-1.061,11.733-2.565,23.953-1.997,36.049
						c0.023,0.493,0.34,0.924,0.802,1.098l0,0c0.376,0.142,0.797,0.095,1.129-0.13c7.859-5.319,15.906-12.389,21.293-20.389
						c1.747-2.595,3.405-5.775,2.376-9.251c-0.766-2.587-2.854-4.675-4.94-6.408c-3.039-2.523-6.318-4.677-9.729-6.389
						C419.045,319.263,416.769,318.403,414.99,319.197z"/>
				</g>
				<g>
					<path style="fill:#FF725E;" d="M444.952,347.427c-2.454-1.075-4.811,0.27-6.736,1.62c-8.602,6.035-17.045,10.573-24.515,17.925
						c-0.434,0.427-0.513,1.1-0.199,1.622l0,0c0.173,0.287,0.447,0.498,0.769,0.591c10.154,2.924,20.824,6.408,30.726,5.793
						c3.192-0.198,6.699-0.808,8.145-3.636c1.077-2.105,0.71-4.923,0.109-7.529c-0.876-3.797-2.199-7.559-3.927-11.16
						C448.314,350.55,446.973,348.313,444.952,347.427z"/>
				</g>
				<g>
					<path style="fill:#FF725E;" d="M412.712,372.781c-0.486,0.467-0.613,1.197-0.307,1.797c4.434,8.688,10.424,18.047,17.38,25.434
						c2.292,2.434,5.13,4.987,8.393,5.244c2.429,0.191,4.474-0.966,6.191-2.241c2.501-1.858,3.323-5.03,4.42-8.293
						c0.589-1.753,0.048-4.404-0.582-6.258c-0.764-2.25-4.001-3.556-6.383-4.644c-10.715-4.891-16.707-7.94-27.585-11.396
						C413.704,372.253,413.117,372.392,412.712,372.781L412.712,372.781z"/>
				</g>
				<g style="opacity:0.3;">
					<g>
						<path style="fill:#FFFFFF;" d="M423.994,337.095c0.134,0.08-0.792,2.795-2.069,6.064c-0.839,2.147-1.62,3.999-2.089,4.978
							l-0.258-0.129c0.165-0.592,0.28-0.911,0.329-0.891c0.048,0.02,0.023,0.377-0.065,1l-0.258-0.129
							c0.328-1.062,1.015-2.969,1.854-5.116C422.715,339.602,423.86,337.016,423.994,337.095z"/>
					</g>
				</g>
				<g style="opacity:0.3;">
					<g>
						<path style="fill:#FFFFFF;" d="M420.429,337.124c0.136,0.076-0.659,2.655-1.774,5.759c-1.116,3.105-2.13,5.56-2.265,5.484
							c-0.136-0.076,0.659-2.654,1.774-5.759C419.28,339.503,420.294,337.048,420.429,337.124z"/>
					</g>
				</g>
				<g style="opacity:0.3;">
					<g>
						<path style="fill:#FFFFFF;" d="M400.026,330.308c0.143,0.013,0.409,1.758,0.593,3.896c0.184,2.139,0.218,3.862,0.075,3.849
							c-0.143-0.013-0.409-1.758-0.593-3.897C399.916,332.018,399.883,330.295,400.026,330.308z"/>
					</g>
				</g>
				<g style="opacity:0.3;">
					<g>
						<path style="fill:#FFFFFF;" d="M391.902,325.381c0.132-0.034,1.434,3.108,2.908,7.018c1.474,3.911,2.562,7.109,2.429,7.143
							c-0.132,0.034-1.434-3.107-2.908-7.019C392.857,328.614,391.77,325.416,391.902,325.381z"/>
					</g>
				</g>
				<g style="opacity:0.3;">
					<g>
						<path style="fill:#FFFFFF;" d="M438.7,365.814c0.05,0.157-1.424,0.552-3.183,1.155c-1.763,0.596-3.155,1.178-3.237,1.032
							c-0.079-0.135,1.206-0.958,3.003-1.566C437.076,365.82,438.656,365.667,438.7,365.814z"/>
					</g>
				</g>
				<g style="opacity:0.3;">
					<g>
						<path style="fill:#FFFFFF;" d="M438.895,360.068c0.073,0.145-2.624,1.444-6.022,2.903c-3.4,1.459-6.213,2.525-6.286,2.38
							c-0.073-0.144,2.623-1.444,6.022-2.903C436.008,360.99,438.822,359.924,438.895,360.068z"/>
					</g>
				</g>
				<g style="opacity:0.3;">
					<g>
						<path style="fill:#FFFFFF;" d="M428.006,383.37c0.073-0.117,1.544,0.933,3.286,2.344c1.743,1.412,3.095,2.65,3.022,2.767
							c-0.073,0.116-1.544-0.933-3.287-2.345C429.286,384.726,427.933,383.487,428.006,383.37z"/>
					</g>
				</g>
				<g style="opacity:0.3;">
					<g>
						<path style="fill:#FFFFFF;" d="M427.953,387.993c0.096-0.106,1.718,1.47,3.842,3.221c2.119,1.76,3.937,3.031,3.878,3.166
							c-0.05,0.124-1.99-0.957-4.148-2.748C429.364,389.849,427.864,388.084,427.953,387.993z"/>
					</g>
				</g>
				<g style="opacity:0.3;">
					<g>
						<path style="fill:#FFFFFF;" d="M426.257,392.105c0.086-0.104,1.376,1.011,2.88,2.491c1.504,1.481,2.653,2.765,2.566,2.87
							c-0.086,0.104-1.376-1.011-2.88-2.492C427.319,393.494,426.17,392.209,426.257,392.105z"/>
					</g>
				</g>
				<g style="opacity:0.3;">
					<g>
						<path d="M463.691,379.289c-0.176-0.507-0.875-0.351-0.698,0.156C463.169,379.952,463.867,379.796,463.691,379.289
							L463.691,379.289z"/>
					</g>
				</g>
				<g style="opacity:0.3;">
					<g>
						<path d="M464.745,386.425c-0.176-0.507-0.875-0.351-0.698,0.156C464.224,387.088,464.922,386.932,464.745,386.425
							L464.745,386.425z"/>
					</g>
				</g>
				<g style="opacity:0.3;">
					<g>
						<path d="M458.987,390.548c-0.176-0.507-0.875-0.351-0.698,0.156C458.466,391.211,459.164,391.055,458.987,390.548
							L458.987,390.548z"/>
					</g>
				</g>
				<g style="opacity:0.3;">
					<g>
						<path d="M461.145,396.681c-0.176-0.507-0.875-0.351-0.698,0.157C460.623,397.344,461.321,397.188,461.145,396.681
							L461.145,396.681z"/>
					</g>
				</g>
				<g style="opacity:0.3;">
					<g>
						<path d="M461.272,352.713c-0.176-0.507-0.875-0.351-0.698,0.156C460.75,353.376,461.448,353.22,461.272,352.713
							L461.272,352.713z"/>
					</g>
				</g>
			</g>
		</g>
		<path style="opacity:0.3;" d="M368.292,431.392c0.556,0.233,7.592,2.421,7.592,2.421l-1.394-125.331l-7.705,4.029l1.507,117.864"
			/>
	</g>
	<path style="fill:#F5F5F5;" d="M372.716,309.188"/>
</g>
<g id="Cocktail">
	<g>
		<path style="fill:#E0E0E0;" d="M359.511,438.738h-226.43c-4.619,0-8.363-3.744-8.363-8.363V163.932h243.156v266.444
			C367.874,434.994,364.13,438.738,359.511,438.738z"/>
		<g>
			<path style="fill:#263238;" d="M133.564,184.886c0.144,0,0.26,45.606,0.26,101.85c0,56.264-0.117,101.86-0.26,101.86
				c-0.144,0-0.26-45.596-0.26-101.86C133.303,230.492,133.42,184.886,133.564,184.886z"/>
		</g>
		<g>
			<path style="fill:#263238;" d="M358.371,184.886c0.144,0,0.26,45.118,0.26,100.761c0,55.662-0.117,100.77-0.26,100.77
				c-0.144,0-0.26-45.108-0.26-100.77C358.111,230.004,358.227,184.886,358.371,184.886z"/>
		</g>
		<g>
			<path style="fill:#263238;" d="M348.244,386.418c0,0.144-46.448,0.26-103.73,0.26c-57.303,0-103.74-0.117-103.74-0.26
				s46.438-0.26,103.74-0.26C301.796,386.157,348.244,386.274,348.244,386.418z"/>
		</g>
		<g>
			<path style="fill:#263238;" d="M348.244,431.392c0,0.144-46.448,0.26-103.73,0.26c-57.303,0-103.74-0.117-103.74-0.26
				s46.438-0.26,103.74-0.26C301.796,431.132,348.244,431.248,348.244,431.392z"/>
		</g>
		<g>
			<g>
				<path style="fill:#FF725E;" d="M349.002,247.747c-0.503-1.239-10.104-68.435-68.094-55.715
					c-57.99,12.72-48.571,68.802-48.571,68.802L349.002,247.747z"/>
				<path style="opacity:0.3;fill:#FFFFFF;" d="M238.321,260.09l103.626-11.624c0-0.001-14.574-60.701-62.091-49.197
					C232.339,210.774,238.32,260.09,238.321,260.09z"/>
				<path style="fill:#FF725E;" d="M244.043,250.438c1.39,2.045,4.222,2.377,6.693,2.475c11.406,0.451,22.845,0.035,34.188-1.242
					l0.165-1.344c-6.82-7.514-14.877-13.904-23.747-18.835c-2.813-1.564-6.151-3.012-9.148-1.84
					c-2.231,0.872-3.696,3.003-4.829,5.113c-1.652,3.074-2.904,6.362-3.715,9.756C243.176,246.502,242.898,248.753,244.043,250.438z
					"/>
				<path style="fill:#FF725E;" d="M257.436,220.103c-0.107,2.471,1.967,4.428,3.89,5.983c8.878,7.174,18.301,13.674,28.161,19.425
					l0.936-0.979c-0.982-10.1-3.626-20.038-7.795-29.29c-1.322-2.934-3.134-6.09-6.238-6.94c-2.31-0.633-4.757,0.201-6.927,1.216
					c-3.161,1.479-6.129,3.368-8.807,5.605C259.092,216.428,257.525,218.067,257.436,220.103z"/>
				<path style="fill:#FF725E;" d="M290.425,206.278c-1.805,1.69-1.695,4.539-1.409,6.996c1.321,11.338,3.503,22.575,6.521,33.584
					l1.354-0.045c6.368-7.902,11.433-16.85,14.931-26.377c1.109-3.021,2.023-6.543,0.401-9.323
					c-1.207-2.069-3.539-3.186-5.799-3.979c-3.293-1.156-6.735-1.884-10.214-2.16C294.178,204.812,291.912,204.885,290.425,206.278z
					"/>
				<path style="fill:#FF725E;" d="M298.643,250.032c8.731,0.523,17.769-0.131,26.584-2.786c2.796-0.842,5.9-2.122,7.39-4.974
					c1.11-2.123,1.021-4.59,0.711-6.817c-0.452-3.244-2.588-5.632-4.686-8.316c-1.127-1.442-3.398-2.313-5.086-2.693
					c-2.049-0.461-4.343,1.827-6.129,3.445c-8.247,7.471-12.075,12.483-19.372,21.101L298.643,250.032z"/>
				<g style="opacity:0.3;">
					<path style="fill:#FFFFFF;" d="M274.114,220.12c0.165-0.117,1.946,2.1,3.977,4.953c1.334,1.873,2.445,3.554,2.992,4.506
						l-0.29,0.243c-0.382-0.467-0.57-0.752-0.52-0.8c0.05-0.049,0.331,0.144,0.791,0.534l-0.29,0.243
						c-0.72-0.829-1.946-2.428-3.28-4.301C275.462,222.646,273.949,220.238,274.114,220.12z"/>
				</g>
				<g style="opacity:0.3;">
					<path style="fill:#FFFFFF;" d="M272.725,223.395c0.162-0.122,1.889,1.904,3.856,4.523c1.968,2.62,3.432,4.843,3.27,4.964
						c-0.162,0.121-1.888-1.903-3.856-4.524C274.028,225.739,272.564,223.517,272.725,223.395z"/>
				</g>
				<g style="opacity:0.3;">
					<path style="fill:#FFFFFF;" d="M259.363,238.543c0.096-0.178,1.579,0.434,3.311,1.367c1.733,0.934,3.06,1.835,2.963,2.013
						c-0.096,0.178-1.578-0.434-3.311-1.368C260.594,239.622,259.267,238.721,259.363,238.543z"/>
				</g>
				<g style="opacity:0.3;">
					<path style="fill:#FFFFFF;" d="M252.325,243.434c0.037-0.199,2.999,0.18,6.616,0.847c3.618,0.667,6.521,1.37,6.484,1.569
						c-0.037,0.199-2.999-0.18-6.617-0.848C255.192,244.336,252.288,243.633,252.325,243.434z"/>
				</g>
				<g style="opacity:0.3;">
					<path style="fill:#FFFFFF;" d="M302.218,221.471c0.201,0.051-0.026,1.607-0.253,3.52c-0.234,1.912-0.383,3.478-0.591,3.479
						c-0.197,0.004-0.377-1.602-0.137-3.567C301.471,222.938,302.027,221.42,302.218,221.471z"/>
				</g>
				<g style="opacity:0.3;">
					<path style="fill:#FFFFFF;" d="M297.837,218.331c0.202,0.011,0.194,3.15-0.019,7.009c-0.213,3.861-0.549,6.981-0.751,6.97
						c-0.202-0.011-0.194-3.149,0.019-7.01C297.299,221.44,297.635,218.32,297.837,218.331z"/>
				</g>
				<g style="opacity:0.3;">
					<path style="fill:#FFFFFF;" d="M311.61,240.298c-0.088-0.182,1.287-1.032,3.071-1.898c1.785-0.866,3.303-1.42,3.392-1.238
						c0.088,0.182-1.286,1.032-3.071,1.898C313.217,239.925,311.698,240.48,311.61,240.298z"/>
				</g>
				<g style="opacity:0.3;">
					<path style="fill:#FFFFFF;" d="M315.176,242.728c-0.061-0.201,1.782-0.918,3.972-1.954c2.195-1.027,3.923-1.989,4.039-1.814
						c0.111,0.16-1.475,1.423-3.727,2.478C317.213,242.499,315.229,242.916,315.176,242.728z"/>
				</g>
				<g style="opacity:0.3;">
					<path style="fill:#FFFFFF;" d="M317.695,246.399c-0.067-0.191,1.292-0.842,3.036-1.455c1.744-0.613,3.212-0.954,3.279-0.763
						c0.067,0.191-1.292,0.842-3.036,1.455C319.23,246.248,317.762,246.589,317.695,246.399z"/>
				</g>
			</g>
		</g>
		<path style="fill:#FF725E;" d="M341.007,381.755H150.803c-6.467,0-11.71-5.243-11.71-11.71l-0.475-114.158l214.099,3.376v110.782
			C352.717,376.513,347.474,381.755,341.007,381.755z"/>
		<g>
			<path style="fill:#FF725E;" d="M351.418,246.053l-210.645,9.516c-1.4,23.038-0.756,47.413,12.789,66.852
				c14.236,20.43,27.94,29.769,41.997,37.171c14.975,7.886,33.01,11.319,49.981,11.319l0,0c16.971,0,33.751-3.943,48.726-11.828
				c14.057-7.402,27.529-17.325,43.252-36.662C352.924,303.475,354.502,272.097,351.418,246.053z"/>
		</g>
		<g style="opacity:0.4;">
			<g>
				<path style="fill:#FFFFFF;" d="M218.796,272.86c5.2,1.948,8.879,8.045,13.496,11.13c4.617,3.085,14.165,5.869,19.703,5.467
					c4.287-0.311,9.016-4.139,11.962-7.977c4.635-6.038,6.035-7.141,11.476-12.463L218.796,272.86z"/>
			</g>
		</g>
		<g>
			<path style="fill:#FF725E;" d="M138.618,255.459c6.215-10.292,18.741-15.563,30.856-16.235
				c12.115-0.672,24.066,2.552,35.759,5.757c11.692,3.205,23.634,6.449,35.751,5.819c12.774-0.664,24.86-5.581,37.202-8.901
				c14.797-3.98,30.217-5.694,45.54-5.06c10.331,0.428,21.531,2.374,28.434,9.978c-35.226,1.767-65.764,24.702-100.263,31.952
				c-37.669,7.916-81.501-0.838-113.28-22.325"/>
		</g>
		<g>
			<g>
				<g>
					<g>
						<path style="fill:#FF725E;" d="M163.871,269.822c-0.339,1.411-34.334,66.761,24.865,92.187
							c59.199,25.426,86.331-30.005,86.331-30.005L163.871,269.822z"/>
						<path style="opacity:0.2;fill:#FFFFFF;" d="M163.871,269.822c-0.339,1.411-34.334,66.761,24.865,92.187
							c59.199,25.426,86.331-30.005,86.331-30.005L163.871,269.822z"/>
						<path style="opacity:0.5;fill:#FFFFFF;" d="M269.318,328.878l-98.769-55.232c0,0.001-25.502,62.763,23.689,82.642
							C243.43,376.167,269.318,328.879,269.318,328.878z"/>
						<path style="fill:#FF725E;" d="M258.17,333.778c0.066-2.683-2.223-4.765-4.341-6.413c-9.778-7.605-20.133-14.468-30.947-20.51
							l-0.996,1.082c1.269,10.94,4.338,21.669,9.047,31.624c1.494,3.157,3.523,6.545,6.908,7.405c2.52,0.64,5.158-0.314,7.492-1.459
							c3.4-1.668,6.583-3.778,9.444-6.259C256.448,337.798,258.116,335.988,258.17,333.778z"/>
						<path style="fill:#FF725E;" d="M227.183,352.077c1.655-2.112,1.064-5.15,0.349-7.736c-3.299-11.94-7.505-23.629-12.569-34.934
							l-1.445,0.273c-5.517,9.532-9.464,19.97-11.633,30.767c-0.688,3.424-1.084,7.353,1.118,10.065
							c1.638,2.018,4.324,2.829,6.88,3.305c3.723,0.693,7.536,0.902,11.313,0.62C223.4,354.272,225.819,353.817,227.183,352.077z"/>
						<path style="fill:#FF725E;" d="M189.343,343.426c2.661-0.35,4.364-2.934,5.664-5.282c6-10.837,11.176-22.13,15.471-33.75
							l-1.223-0.816c-10.611,2.947-20.736,7.641-29.842,13.835c-2.888,1.965-5.92,4.494-6.246,7.972
							c-0.243,2.588,1.108,5.047,2.601,7.175c2.174,3.1,4.752,5.918,7.646,8.361C185.105,342.347,187.151,343.715,189.343,343.426z"
							/>
						<path style="fill:#FF725E;" d="M209.743,299.631c-7.372-5.979-15.76-11.113-25.214-14.342
							c-2.998-1.024-6.545-1.857-9.663-0.282c-2.32,1.171-3.801,3.404-4.935,5.565c-1.652,3.148-1.276,6.604-1.121,10.298
							c0.083,1.984,1.536,4.188,2.785,5.59c1.516,1.701,4.986,1.133,7.585,0.834c11.997-1.379,18.542-3.382,30.426-6.374
							L209.743,299.631z"/>
						<g style="opacity:0.3;">
							<path style="fill:#FFFFFF;" d="M212.481,341.522c-0.22-0.001-0.39-3.083-0.379-6.883c0.007-2.496,0.089-4.681,0.208-5.866
								l0.41-0.031c0.041,0.653,0.028,1.023-0.047,1.035c-0.075,0.012-0.201-0.336-0.361-0.971l0.41-0.031
								c0.112,1.186,0.182,3.372,0.176,5.867C212.887,338.441,212.7,341.522,212.481,341.522z"/>
						</g>
						<g style="opacity:0.3;">
							<path style="fill:#FFFFFF;" d="M215.775,339.51c-0.22,0.005-0.463-2.873-0.544-6.427c-0.08-3.556,0.033-6.441,0.252-6.446
								c0.22-0.005,0.463,2.872,0.543,6.428C216.108,336.619,215.995,339.505,215.775,339.51z"/>
						</g>
						<g style="opacity:0.3;">
							<path style="fill:#FFFFFF;" d="M237.137,334.591c-0.197,0.097-1.118-1.381-2.057-3.299c-0.939-1.919-1.54-3.552-1.342-3.649
								c0.197-0.097,1.118,1.38,2.057,3.299C236.733,332.86,237.334,334.494,237.137,334.591z"/>
						</g>
						<g style="opacity:0.3;">
							<path style="fill:#FFFFFF;" d="M246.437,334.723c-0.158,0.153-2.532-2.055-5.302-4.929c-2.77-2.875-4.887-5.329-4.729-5.482
								c0.158-0.152,2.532,2.054,5.302,4.93C244.478,332.116,246.595,334.57,246.437,334.723z"/>
						</g>
						<g style="opacity:0.3;">
							<path style="fill:#FFFFFF;" d="M188.539,322.569c-0.146-0.172,1.039-1.402,2.448-2.945c1.415-1.539,2.536-2.826,2.72-2.696
								c0.176,0.122-0.68,1.652-2.133,3.234C190.125,321.747,188.676,322.734,188.539,322.569z"/>
						</g>
						<g style="opacity:0.3;">
							<path style="fill:#FFFFFF;" d="M190.42,328.108c-0.172-0.137,1.819-2.901,4.446-6.172c2.628-3.272,4.896-5.812,5.068-5.674
								c0.171,0.138-1.819,2.901-4.447,6.172C192.86,325.705,190.592,328.246,190.42,328.108z"/>
						</g>
						<g style="opacity:0.3;">
							<path style="fill:#FFFFFF;" d="M192.152,300.024c-0.037,0.217-1.787,0.097-3.909-0.266c-2.122-0.364-3.812-0.834-3.775-1.051
								c0.037-0.216,1.787-0.097,3.909,0.267C190.499,299.337,192.189,299.808,192.152,300.024z"/>
						</g>
						<g style="opacity:0.3;">
							<path style="fill:#FFFFFF;" d="M190.541,295.627c-0.073,0.216-2.152-0.316-4.739-0.786c-2.586-0.481-4.718-0.724-4.709-0.952
								c0.004-0.212,2.201-0.324,4.853,0.169C188.6,294.541,190.613,295.428,190.541,295.627z"/>
						</g>
						<g style="opacity:0.3;">
							<path style="fill:#FFFFFF;" d="M190.638,290.796c-0.062,0.211-1.673-0.073-3.598-0.635c-1.926-0.562-3.437-1.188-3.375-1.399
								c0.062-0.211,1.672,0.073,3.598,0.635C189.189,289.959,190.7,290.586,190.638,290.796z"/>
						</g>
					</g>
				</g>
				<g>
					<path style="fill:#FFFFFF;" d="M189.034,350.563c0.004-0.006,0.073,0.024,0.205,0.087c0.152,0.076,0.343,0.172,0.581,0.291
						c0.514,0.249,1.239,0.677,2.231,1.114c1.947,0.942,4.848,2.162,8.575,3.203c3.729,1.007,8.284,1.882,13.398,2.03
						c5.1,0.19,10.766-0.262,16.483-1.676c2.846-0.769,5.536-1.809,8.069-2.954c2.498-1.219,4.866-2.49,7.004-3.895
						c4.321-2.741,7.849-5.743,10.658-8.399c2.795-2.677,4.883-5.024,6.229-6.72c0.705-0.823,1.181-1.518,1.541-1.961
						c0.165-0.209,0.297-0.377,0.402-0.51c0.092-0.114,0.143-0.17,0.149-0.166c0.006,0.004-0.033,0.068-0.115,0.19
						c-0.097,0.139-0.218,0.315-0.37,0.534c-0.339,0.459-0.796,1.171-1.483,2.012c-1.311,1.731-3.373,4.115-6.153,6.829
						c-2.795,2.692-6.32,5.732-10.655,8.506c-2.145,1.421-4.525,2.708-7.038,3.94c-2.55,1.159-5.261,2.211-8.134,2.987
						c-5.775,1.428-11.464,1.867-16.601,1.657c-5.146-0.17-9.724-1.08-13.463-2.128c-3.737-1.082-6.634-2.348-8.566-3.338
						c-0.984-0.46-1.7-0.912-2.201-1.185c-0.23-0.134-0.415-0.242-0.562-0.327C189.093,350.611,189.03,350.569,189.034,350.563z"/>
				</g>
				<g>
					<path style="fill:#FFFFFF;" d="M223.854,351.352c0.011,0.05-0.732,0.271-1.961,0.498c-1.229,0.228-2.949,0.442-4.858,0.488
						c-1.91,0.043-3.639-0.09-4.877-0.26c-1.239-0.17-1.99-0.355-1.982-0.406c0.01-0.061,0.775,0.024,2.012,0.119
						c1.236,0.096,2.947,0.182,4.837,0.139c1.889-0.046,3.594-0.212,4.824-0.366C223.08,351.412,223.842,351.292,223.854,351.352z"
						/>
				</g>
				<g>
					<path style="fill:#FFFFFF;" d="M252.967,337.729c0.035,0.039-0.419,0.514-1.226,1.201c-0.806,0.687-1.977,1.573-3.351,2.429
						c-1.376,0.854-2.689,1.512-3.662,1.931c-0.973,0.42-1.599,0.617-1.619,0.568c-0.049-0.114,2.348-1.147,5.066-2.846
						C250.899,339.328,252.886,337.635,252.967,337.729z"/>
				</g>
			</g>
		</g>
		<g style="opacity:0.3;">
			<g>
				<path d="M138.618,255.459c6.215-10.292,18.741-15.563,30.856-16.235c12.115-0.672,24.066,2.552,35.759,5.757
					c11.692,3.205,23.634,6.449,35.751,5.819c12.774-0.664,24.967-5.215,37.202-8.901c17.223-5.189,30.217-5.694,45.54-5.06
					c10.331,0.428,21.531,2.374,28.434,9.978c-35.226,1.767-65.764,24.702-100.263,31.952c-37.669,7.916-81.501-0.838-113.28-22.325
					"/>
			</g>
		</g>
		<g style="opacity:0.3;">
			<path style="fill:#FFFFFF;" d="M279.23,291.975c0,1.589-1.288,2.876-2.876,2.876s-2.877-1.288-2.877-2.876
				c0-1.589,1.288-2.877,2.877-2.877S279.23,290.387,279.23,291.975z"/>
		</g>
		<g style="opacity:0.3;">
			<path style="fill:#FFFFFF;" d="M320.498,357.76c0,2.518-2.041,4.559-4.559,4.559c-2.518,0-4.559-2.041-4.559-4.559
				c0-2.517,2.041-4.559,4.559-4.559C318.457,353.201,320.498,355.242,320.498,357.76z"/>
		</g>
		<g style="opacity:0.3;">
			<path style="fill:#FFFFFF;" d="M212.484,349.303c0,0.794-0.644,1.438-1.438,1.438c-0.795,0-1.438-0.644-1.438-1.438
				c0-0.794,0.644-1.438,1.438-1.438C211.84,347.865,212.484,348.509,212.484,349.303z"/>
		</g>
		<g style="opacity:0.3;">
			<path style="fill:#FFFFFF;" d="M223.684,304.438c0,0.794-0.644,1.438-1.438,1.438c-0.794,0-1.438-0.644-1.438-1.438
				c0-0.794,0.644-1.438,1.438-1.438C223.04,303,223.684,303.644,223.684,304.438z"/>
		</g>
		<g style="opacity:0.3;">
			<path style="fill:#FFFFFF;" d="M304.835,346.537c0,1.186-0.962,2.147-2.148,2.147c-1.186,0-2.148-0.961-2.148-2.147
				c0-1.186,0.962-2.148,2.148-2.148C303.873,344.389,304.835,345.35,304.835,346.537z"/>
		</g>
		<g>
			<g style="opacity:0.2;">
				<path style="fill:#FFFFFF;" d="M308.605,287.301c-3.11-0.938-6.451,0.398-8.042,3.23c-4.241,7.551-11.836,21.503-11.214,23.525
					c0.63,2.048,6.229,9.873,9.168,13.9c1.133,1.551,2.85,2.555,4.756,2.787l19.641,2.396c2.818,0.344,5.561-1.065,6.924-3.556
					l9.681-17.699c1.459-2.667,1.011-5.973-1.105-8.156l-8.935-9.214c-0.821-0.847-1.845-1.471-2.975-1.812L308.605,287.301z"/>
			</g>
			<g>
				<g>
					<path style="fill:#FFFFFF;" d="M312.714,301.953c0.436,0.237-2.209,5.553-5.725,11.87c-3.515,6.285-5.518,11.8-6.004,11.649
						c-0.438-0.108,0.876-6.025,4.476-12.471C309.018,306.609,312.308,301.733,312.714,301.953z"/>
				</g>
			</g>
			<g>
				<g>
					<path style="fill:#FFFFFF;" d="M312.873,301.083c-0.471,0.177-1.853-2.614-4.327-5.425c-2.439-2.843-5.01-4.6-4.768-5.042
						c0.181-0.418,3.388,0.786,6.078,3.904C312.568,297.618,313.313,300.962,312.873,301.083z"/>
				</g>
			</g>
			<g>
				<g>
					<path style="fill:#FFFFFF;" d="M333.997,307.676c-0.18,0.181-1.009-0.431-2.586-0.652c-1.552-0.354-3.872,0.152-6.728-0.759
						c-2.804-1.215-4.098-3.189-5.559-3.75c-1.381-0.721-2.397-0.487-2.484-0.727c-0.145-0.185,1.034-0.984,2.921-0.42
						c1.909,0.437,3.684,2.468,5.725,3.269c2.13,0.735,4.696,0.507,6.431,1.198C333.504,306.443,334.183,307.546,333.997,307.676z"
						/>
				</g>
			</g>
		</g>
		<g>
			<g>
				<path style="fill:#FF725E;" d="M169.068,231.145c2.935,18.535,24.683,32.203,43.218,29.268
					c18.535-2.935,31.18-20.34,28.245-38.874c-2.935-18.535-23.811-31.898-42.346-28.963S166.132,212.61,169.068,231.145z"/>
			</g>
			<g>
				<path style="fill:#FFFFFF;" d="M182.738,207.249c1.022,2.711,6.088,3.31,11.316,1.34c5.228-1.971,8.638-5.765,7.616-8.476
					s-6.088-3.31-11.316-1.34C185.126,200.744,181.716,204.539,182.738,207.249z"/>
			</g>
			<g style="opacity:0.2;">
				<path style="fill:#FFFFFF;" d="M185.746,234.047c10.685,7.175,54.047-15.411,53.977-16.082c0.341,1.167,0.615,2.358,0.807,3.573
					c2.935,18.535-9.711,35.939-28.245,38.874c-18.535,2.935-40.282-10.734-43.218-29.268c-0.984-6.211-0.112-12.257,2.169-17.666
					C172.448,216.996,176.829,228.059,185.746,234.047z"/>
			</g>
			<g style="opacity:0.3;">
				<path d="M223.405,207.963c0,0-6.248-1.616-9.773-0.016c0,0-2.197-5.645-5.108-9.222
					C208.524,198.726,220.913,199.63,223.405,207.963z"/>
			</g>
			<g>
				<path style="fill:#263238;" d="M241.172,116.293c0,0,12.483,20.819,1.105,47.797c-11.378,26.979-28.644,43.857-28.644,43.857
					l-0.776-1.816c0,0,28.516-32.712,28.383-57.187c-0.133-24.476-7.037-31.548-7.037-31.548L241.172,116.293z"/>
			</g>
			<g>
				<path style="fill:#FFFFFF;" d="M179.233,206.091c0.072,0.068-0.974,1.13-2.34,3.085c-0.69,0.972-1.417,2.193-2.13,3.594
					c-0.688,1.414-1.347,3.016-1.868,4.755c-0.502,1.745-0.814,3.449-0.999,5.011c-0.158,1.565-0.205,2.985-0.151,4.175
					c0.092,2.383,0.398,3.842,0.301,3.86c-0.035,0.007-0.132-0.352-0.278-1.01c-0.157-0.656-0.298-1.626-0.391-2.829
					c-0.103-1.205-0.094-2.649,0.041-4.244c0.162-1.592,0.465-3.332,0.977-5.109c0.53-1.771,1.215-3.399,1.939-4.825
					c0.749-1.414,1.522-2.634,2.26-3.592c0.729-0.962,1.372-1.702,1.858-2.169C178.932,206.316,179.207,206.066,179.233,206.091z"/>
			</g>
		</g>
		<g>
			<g>
				<g style="opacity:0.8;">
					<path style="fill:#FFFFFF;" d="M215.877,265.188c4.256,4.02,12.611,9.877,24.251,8.443
						c13.459-1.658,36.816-10.749,46.628-14.749l2.798-6.591c1.792-4.221,0.626-9.117-2.877-12.077l-14.786-12.497
						c-1.359-1.149-2.99-1.932-4.736-2.275l-27.671-5.435c-4.809-0.944-9.624,1.56-11.59,6.049
						c-5.239,11.966-14.557,34.043-13.322,36.984C214.784,263.545,215.25,264.292,215.877,265.188z"/>
				</g>
			</g>
			<g>
				<g>
					<g>
						<path style="fill:#FFFFFF;" d="M247.838,241.386c0.452,0.196-2.404,7.458-6.245,16.225c-1.987,4.391-3.599,8.286-4.197,11.35
							c-0.712,3.063-1.355,4.935-1.586,4.878c-0.235-0.058-0.024-1.982,0.381-5.107c0.295-3.199,1.834-7.466,3.809-11.808
							C243.858,248.118,247.41,241.201,247.838,241.386z"/>
					</g>
				</g>
				<g>
					<g>
						<path style="fill:#FFFFFF;" d="M247.947,240.056c-0.458,0.239-2.801-3.901-7.002-7.817c-4.156-3.967-8.424-6.064-8.212-6.536
							c0.124-0.426,4.971,1.058,9.403,5.273C246.601,235.154,248.365,239.907,247.947,240.056z"/>
					</g>
				</g>
				<g>
					<g>
						<path style="fill:#FFFFFF;" d="M280.638,246.8c-0.159,0.21-1.468-0.712-3.931-0.901c-1.229-0.115-2.694-0.055-4.396,0.056
							c-1.692,0.086-3.663,0.221-5.752-0.31c-2.108-0.561-3.73-1.725-5.134-2.635c-1.404-0.944-2.645-1.66-3.799-2.038
							c-2.305-0.824-3.822-0.174-3.919-0.419c-0.176-0.155,1.448-1.382,4.24-0.766c2.82,0.414,5.665,3.195,9.051,4.178
							c3.495,0.811,7.242,0.023,9.896,0.72C279.604,245.238,280.813,246.665,280.638,246.8z"/>
					</g>
				</g>
			</g>
		</g>
		<g>
			<g>
				<g style="opacity:0.8;">
					<path style="fill:#FFFFFF;" d="M210.329,260.423c-2.411,2.777-7.271,6.959-14.637,6.786c-8.518-0.2-23.685-4.432-30.069-6.323
						l-2.159-3.947c-1.382-2.527-0.958-5.661,1.048-7.729l8.468-8.733c0.779-0.803,1.749-1.394,2.82-1.717l16.962-5.118
						c2.947-0.889,6.114,0.377,7.622,3.061c4.02,7.156,11.217,20.379,10.628,22.295C210.91,259.327,210.665,259.823,210.329,260.423
						z"/>
				</g>
			</g>
			<g>
				<g>
					<g>
						<path style="fill:#FFFFFF;" d="M188.867,247.528c0.412-0.229,3.185,3.798,6.15,9.072c1.501,2.583,2.722,5.225,3.052,7.237
							c0.391,1.946,0.564,3.154,0.336,3.234c-0.225,0.079-0.822-1.033-1.513-2.887c-0.618-1.848-1.874-4.113-3.393-6.743
							C190.555,252.205,188.441,247.765,188.867,247.528z"/>
					</g>
				</g>
				<g>
					<g>
						<path style="fill:#FFFFFF;" d="M188.716,246.703c-0.44-0.122,0.249-3.306,2.825-6.249c2.556-2.962,5.612-4.088,5.795-3.669
							c0.24,0.441-2.18,2.12-4.485,4.808C190.513,244.248,189.187,246.879,188.716,246.703z"/>
					</g>
				</g>
				<g>
					<g>
						<path style="fill:#FFFFFF;" d="M168.697,252.952c-0.186-0.131,0.453-1.19,2.154-1.776c1.649-0.664,4.087-0.455,6.087-1.147
							c1.914-0.748,3.61-2.674,5.43-3.085c1.801-0.53,2.923,0.242,2.78,0.429c-0.089,0.238-1.048,0.031-2.343,0.719
							c-1.373,0.534-2.587,2.404-5.264,3.566c-2.727,0.868-4.918,0.381-6.384,0.708
							C169.667,252.565,168.878,253.131,168.697,252.952z"/>
					</g>
				</g>
			</g>
		</g>
		<path style="fill:#F5F5F5;" d="M257.735,425.124H139.278c-2.596,0-4.701-2.105-4.701-4.701v-23.036
			c0-2.596,2.105-4.701,4.701-4.701h118.458c2.596,0,4.701,2.105,4.701,4.701v23.036
			C262.436,423.019,260.331,425.124,257.735,425.124z"/>
		<path style="opacity:0.3;fill:#FFFFFF;" d="M145.679,174.672c0,0,3.451,207.083,8.281,207.083c4.831,0,37.21,0,37.21,0
			l3.165-196.698C178.673,184.809,162.385,180.943,145.679,174.672z"/>
		<g style="opacity:0.3;">
			<path style="fill:#FFFFFF;" d="M352.16,177.009c-0.852,23.899-1.692,42.861-2.543,66.76c-0.247,6.921-2.189,19.851-5.198,26.176
				s-9.429,11.74-16.82,11.698c-6.692-0.037-12.635-4.541-15.867-10.031c-3.231-5.49-4.232-11.859-5.008-18.086
				c-2.699-21.68-4.358-68.074-4.358-68.074C316.666,184.863,340.018,180.291,352.16,177.009z"/>
		</g>
		<g>
			<g style="opacity:0.4;">
				<path style="fill:#FFFFFF;" d="M283.037,347.847l-10.036-40.525c-0.579-2.338-2.499-3.996-4.734-4.089l-22.578-0.941
					c-0.868-0.036-1.73,0.168-2.505,0.592l-27.582,15.128c-2.192,1.202-3.284,3.913-2.594,6.465c0.626,2.314,1.46,5.386,2.397,8.807
					l6.079,21.608c1.792,6.113,3.232,10.648,3.632,10.913c1.584,1.045,19.145,4.801,25.013,6.036
					c1.221,0.257,2.485,0.023,3.558-0.658l27.002-17.144C282.671,352.781,283.631,350.247,283.037,347.847z"/>
			</g>
			<g>
				<g>
					<path style="fill:#FFFFFF;" d="M238.875,324.503c-0.078,0.473-4.763,0.096-10.463-0.842
						c-5.702-0.939-10.259-2.083-10.181-2.556c0.078-0.473,4.761-0.096,10.463,0.843
						C234.394,322.886,238.952,324.03,238.875,324.503z"/>
				</g>
			</g>
			<g>
				<g>
					<path style="fill:#FFFFFF;" d="M263.6,310.148c0.275,0.392-2.646,2.918-6.524,5.64c-3.88,2.723-7.247,4.612-7.522,4.22
						c-0.275-0.392,2.645-2.917,6.525-5.64C259.957,311.645,263.325,309.756,263.6,310.148z"/>
				</g>
			</g>
			<g>
				<g>
					<path style="fill:#FFFFFF;" d="M251.41,356.06c-0.483,0.074-1.81-6.023-3.406-13.533c-1.586-7.515-2.845-13.626-2.373-13.754
						c0.453-0.125,2.473,5.825,4.07,13.394C251.309,349.731,251.875,355.99,251.41,356.06z"/>
				</g>
			</g>
		</g>
		<g>
			<g>
				<g>
					<path style="fill:#FF725E;" d="M208.284,162.781c-1.271-1.349-47.362-83.382-115.933-37.875
						c-68.572,45.507-28.287,113.267-28.287,113.267L208.284,162.781z"/>
					<path style="opacity:0.5;fill:#FFFFFF;" d="M71.425,234.212l128.102-66.966c-0.001-0.001-49.263-71.145-104.908-32.459
						C38.974,173.474,71.424,234.212,71.425,234.212z"/>
					<path style="fill:#FF725E;" d="M73.982,218.87c2.822,1.946,6.648,0.956,9.891-0.156c14.967-5.135,29.543-11.406,43.563-18.742
						l-0.46-1.821c-12.582-6.293-26.197-10.513-40.132-12.439c-4.42-0.611-9.46-0.81-12.746,2.207
						c-2.446,2.246-3.271,5.733-3.678,9.029c-0.594,4.801-0.564,9.678,0.088,14.472C70.889,214.217,71.657,217.266,73.982,218.87z"
						/>
					<path style="fill:#FF725E;" d="M76.087,172.95c1.101,3.247,4.761,4.738,8.026,5.782c15.071,4.822,30.507,8.499,46.133,10.989
						l0.718-1.735c-6.332-12.562-14.731-24.079-24.756-33.947c-3.18-3.13-7.103-6.3-11.541-5.843
						c-3.303,0.34-6.048,2.644-8.343,5.044c-3.344,3.495-6.233,7.426-8.573,11.659C76.385,167.371,75.18,170.275,76.087,172.95z"/>
					<path style="fill:#FF725E;" d="M111.791,138.547c-1.486,3.089,0.085,6.716,1.686,9.747
						c7.39,13.991,15.843,27.421,25.261,40.136l1.727-0.737c4.269-13.404,6.33-27.509,6.076-41.574
						c-0.081-4.461-0.665-9.471-4.155-12.251c-2.597-2.069-6.17-2.344-9.489-2.236c-4.835,0.157-9.649,0.941-14.283,2.328
						C115.908,134.771,113.016,136.002,111.791,138.547z"/>
					<path style="fill:#FF725E;" d="M144.345,190.976c11.546-3.7,22.899-9.077,32.961-16.926c3.191-2.489,6.561-5.699,7.058-10.133
						c0.37-3.3-0.981-6.443-2.498-9.166c-2.21-3.967-6.168-5.981-10.225-8.398c-2.18-1.299-5.551-1.287-7.923-0.931
						c-2.879,0.432-4.697,4.538-6.195,7.525c-6.914,13.789-9.349,22.186-14.459,36.982L144.345,190.976z"/>
					<g style="opacity:0.3;">
						<path style="fill:#FFFFFF;" d="M97.65,164.613c0.154-0.235,3.568,1.739,7.623,4.407c2.663,1.752,4.941,3.368,6.126,4.324
							l-0.253,0.46c-0.727-0.413-1.113-0.686-1.074-0.773c0.04-0.088,0.5,0.021,1.29,0.293l-0.253,0.46
							c-1.347-0.71-3.732-2.163-6.395-3.915C100.658,167.202,97.495,164.848,97.65,164.613z"/>
					</g>
					<g style="opacity:0.3;">
						<path style="fill:#FFFFFF;" d="M97.497,169.542c0.148-0.238,3.395,1.514,7.251,3.913c3.857,2.4,6.863,4.538,6.714,4.777
							c-0.148,0.238-3.394-1.513-7.251-3.914C100.355,171.919,97.349,169.78,97.497,169.542z"/>
					</g>
					<g style="opacity:0.3;">
						<path style="fill:#FFFFFF;" d="M87.819,195.817c0.035-0.279,2.258-0.23,4.965,0.108c2.708,0.338,4.874,0.838,4.839,1.117
							c-0.035,0.279-2.257,0.23-4.965-0.108C89.951,196.595,87.785,196.095,87.819,195.817z"/>
					</g>
					<g style="opacity:0.3;">
						<path style="fill:#FFFFFF;" d="M81.176,205.666c-0.052-0.276,3.967-1.271,8.976-2.221c5.011-0.951,9.114-1.498,9.167-1.223
							c0.052,0.276-3.966,1.27-8.977,2.221C85.332,205.395,81.228,205.942,81.176,205.666z"/>
					</g>
					<g style="opacity:0.3;">
						<path style="fill:#FFFFFF;" d="M134.649,152.271c0.285-0.036,0.772,2.091,1.437,4.676c0.656,2.588,1.248,4.687,0.98,4.793
							c-0.253,0.104-1.29-1.882-1.965-4.541C134.419,154.541,134.377,152.301,134.649,152.271z"/>
					</g>
					<g style="opacity:0.3;">
						<path style="fill:#FFFFFF;" d="M127.413,150.409c0.267-0.087,1.829,3.974,3.489,9.068c1.66,5.097,2.79,9.298,2.523,9.385
							c-0.267,0.087-1.829-3.973-3.489-9.07C128.275,154.698,127.146,150.496,127.413,150.409z"/>
					</g>
					<g style="opacity:0.3;">
						<path style="fill:#FFFFFF;" d="M156.224,171.896c-0.206-0.191,1.146-1.979,3.018-3.992c1.873-2.014,3.557-3.491,3.763-3.3
							c0.206,0.191-1.145,1.978-3.018,3.992C158.114,170.609,156.429,172.087,156.224,171.896z"/>
					</g>
					<g style="opacity:0.3;">
						<path style="fill:#FFFFFF;" d="M162.051,173.249c-0.18-0.229,1.842-2.08,4.154-4.517c2.323-2.428,4.073-4.537,4.31-4.369
							c0.224,0.152-1.193,2.579-3.574,5.07C164.569,171.933,162.213,173.465,162.051,173.249z"/>
					</g>
					<g style="opacity:0.3;">
						<path style="fill:#FFFFFF;" d="M167.147,176.731c-0.182-0.213,1.248-1.737,3.195-3.402c1.947-1.666,3.673-2.843,3.856-2.63
							c0.182,0.213-1.248,1.736-3.195,3.402C169.055,175.766,167.329,176.944,167.147,176.731z"/>
					</g>
				</g>
			</g>
			<g>
				<path style="fill:#FFFFFF;" d="M104.378,133.227c0.004,0.008-0.076,0.061-0.236,0.158c-0.187,0.109-0.423,0.246-0.717,0.417
					c-0.625,0.375-1.591,0.851-2.751,1.606c-2.369,1.422-5.701,3.67-9.419,6.927c-3.683,3.282-7.803,7.54-11.538,12.903
					c-3.769,5.32-7.247,11.692-9.733,18.792c-1.168,3.58-1.936,7.183-2.483,10.691c-0.443,3.523-0.741,6.943-0.734,10.211
					c-0.091,6.536,0.651,12.407,1.526,17.266c0.907,4.859,1.956,8.733,2.829,11.357c0.387,1.329,0.797,2.324,1.019,3.019
					c0.108,0.322,0.195,0.581,0.264,0.787c0.057,0.178,0.082,0.271,0.073,0.275c-0.008,0.003-0.05-0.083-0.123-0.255
					c-0.081-0.201-0.184-0.454-0.313-0.769c-0.254-0.684-0.695-1.67-1.113-2.992c-0.934-2.612-2.041-6.483-2.998-11.353
					c-0.924-4.87-1.709-10.763-1.644-17.337c-0.02-3.286,0.269-6.73,0.709-10.279c0.544-3.536,1.315-7.17,2.494-10.784
					c2.511-7.171,6.02-13.561,9.835-18.905c3.78-5.382,7.954-9.64,11.688-12.904c3.77-3.239,7.149-5.45,9.557-6.823
					c1.18-0.731,2.164-1.179,2.806-1.525c0.304-0.152,0.549-0.275,0.742-0.372C104.285,133.256,104.374,133.219,104.378,133.227z"/>
			</g>
			<g>
				<path style="fill:#FFFFFF;" d="M79.189,169.898c-0.061-0.023,0.222-0.971,0.839-2.445c0.615-1.473,1.589-3.461,2.875-5.535
					c1.289-2.072,2.64-3.827,3.688-5.031c1.048-1.206,1.771-1.879,1.819-1.835c0.058,0.053-0.568,0.812-1.534,2.068
					c-0.967,1.255-2.255,3.023-3.531,5.073c-1.272,2.051-2.286,3.989-2.982,5.413C79.665,169.029,79.262,169.927,79.189,169.898z"/>
			</g>
			<g>
				<path style="fill:#FFFFFF;" d="M73.396,210.545c-0.066,0.009-0.257-0.807-0.427-2.15c-0.171-1.342-0.299-3.214-0.253-5.281
					c0.049-2.068,0.264-3.932,0.496-5.264c0.231-1.334,0.459-2.141,0.525-2.128c0.156,0.028-0.416,3.312-0.5,7.405
					C73.133,207.216,73.553,210.524,73.396,210.545z"/>
			</g>
		</g>
		<path style="opacity:0.5;fill:#E0E0E0;" d="M124.422,224.569l0.271-55.284c0.013-2.622,2.58-4.468,5.069-3.644
			c12.414,4.109,45.476,14.464,73.468,17.995"/>
		<g>
			<path style="fill:#263238;" d="M369.731,164.678c0,0-0.197,0.087-0.591,0.233c-0.412,0.149-0.995,0.36-1.753,0.635
				c-1.55,0.531-3.805,1.408-6.775,2.342c-5.898,1.993-14.538,4.576-25.356,7.212c-10.815,2.643-23.851,5.168-38.451,7.072
				c-14.599,1.889-30.773,3.087-47.765,3.132c-8.497,0.006-16.793-0.212-24.794-0.66c-7.998-0.481-15.7-1.155-23.013-2.011
				c-14.619-1.773-27.677-4.2-38.499-6.815c-10.824-2.615-19.458-5.224-25.348-7.235c-2.967-0.943-5.218-1.827-6.766-2.364
				c-0.757-0.277-1.339-0.49-1.75-0.641c-0.393-0.147-0.59-0.235-0.59-0.235s0.209,0.054,0.608,0.185
				c0.416,0.139,1.003,0.336,1.767,0.592c1.558,0.505,3.82,1.358,6.794,2.271c5.906,1.951,14.548,4.504,25.37,7.07
				c10.821,2.567,23.868,4.953,38.471,6.697c7.305,0.842,14.997,1.504,22.986,1.978c7.99,0.441,16.277,0.655,24.763,0.648
				c16.969-0.045,33.121-1.227,47.705-3.087c14.585-1.876,27.611-4.36,38.426-6.954c10.817-2.587,19.466-5.114,25.379-7.047
				c2.978-0.904,5.242-1.749,6.803-2.248c0.765-0.253,1.353-0.448,1.77-0.586C369.522,164.732,369.731,164.678,369.731,164.678z"/>
		</g>
		<g>
			<path style="fill:#FFFFFF;" d="M142.992,364.621c-0.144,0-0.26-41.236-0.26-92.09c0-50.873,0.117-92.099,0.26-92.099
				c0.144,0,0.26,41.227,0.26,92.099C143.253,323.385,143.136,364.621,142.992,364.621z"/>
		</g>
		<g>
			<path style="fill:#FFFFFF;" d="M343.623,181.878c0,0-0.172,0.053-0.512,0.13c-0.361,0.079-0.865,0.189-1.514,0.331
				c-1.355,0.284-3.317,0.696-5.833,1.223c-1.27,0.262-2.678,0.553-4.219,0.872c-1.546,0.297-3.236,0.57-5.046,0.889
				c-3.626,0.608-7.74,1.403-12.332,1.987c-2.293,0.321-4.694,0.657-7.195,1.007c-2.503,0.342-5.122,0.575-7.826,0.883
				c-5.405,0.66-11.209,1.047-17.311,1.52c-12.217,0.743-25.682,1.094-39.805,0.701c-14.126-0.471-27.547-1.644-39.698-3.132
				c-6.063-0.846-11.833-1.586-17.188-2.575c-2.68-0.473-5.28-0.866-7.758-1.36c-2.476-0.502-4.852-0.984-7.121-1.445
				c-4.549-0.864-8.605-1.909-12.187-2.737c-1.787-0.429-3.457-0.805-4.982-1.196c-1.518-0.412-2.906-0.788-4.157-1.128
				c-2.479-0.68-4.412-1.211-5.747-1.577c-0.639-0.181-1.135-0.322-1.491-0.423c-0.335-0.098-0.503-0.161-0.503-0.161
				s0.178,0.029,0.517,0.11c0.359,0.089,0.859,0.213,1.504,0.373c1.341,0.344,3.281,0.843,5.77,1.482
				c1.254,0.326,2.645,0.688,4.166,1.083c1.528,0.376,3.2,0.738,4.989,1.153c3.586,0.801,7.645,1.82,12.194,2.66
				c2.269,0.449,4.645,0.92,7.121,1.411c2.477,0.483,5.077,0.866,7.756,1.329c5.352,0.969,11.119,1.693,17.176,2.525
				c12.141,1.46,25.545,2.617,39.654,3.088c14.106,0.392,27.554,0.056,39.759-0.659c6.096-0.46,11.896-0.83,17.297-1.471
				c2.702-0.299,5.32-0.522,7.822-0.853c2.501-0.338,4.902-0.663,7.193-0.973c4.592-0.56,8.706-1.329,12.335-1.91
				c1.811-0.305,3.502-0.564,5.051-0.846c1.543-0.302,2.954-0.578,4.225-0.827c2.524-0.486,4.491-0.865,5.851-1.127
				c0.654-0.12,1.161-0.213,1.525-0.28C343.444,181.896,343.623,181.878,343.623,181.878z"/>
		</g>
		<g>
			<path style="fill:#FFFFFF;" d="M129.946,428.544c-0.144,0-0.26-9.633-0.26-21.514c0-11.885,0.117-21.516,0.26-21.516
				s0.26,9.631,0.26,21.516C130.207,418.911,130.09,428.544,129.946,428.544z"/>
		</g>
	</g>
</g>
</svg>
